Istok Web-Bold Italic.ufo
<glyph name="exclam" format="1">
  <advance width="326"/>
  <unicode hex="0021"/>
  <outline>
    <contour>
      <point x="180" y="205" type="line" smooth="yes"/>
      <point x="201" y="205"/>
      <point x="213" y="216"/>
      <point x="219" y="237" type="curve" smooth="yes"/>
      <point x="331" y="664" type="line"/>
      <point x="332" y="671"/>
      <point x="333" y="675"/>
      <point x="333" y="678" type="curve" smooth="yes"/>
      <point x="333" y="693"/>
      <point x="324" y="700"/>
      <point x="305" y="700" type="curve" smooth="yes"/>
      <point x="227" y="700" type="line" smooth="yes"/>
      <point x="202" y="700"/>
      <point x="190" y="688"/>
      <point x="185" y="664" type="curve" smooth="yes"/>
      <point x="99" y="237" type="line" smooth="yes"/>
      <point x="98" y="235"/>
      <point x="98" y="232"/>
      <point x="98" y="227" type="curve" smooth="yes"/>
      <point x="98" y="212"/>
      <point x="107" y="205"/>
      <point x="124" y="205" type="curve" smooth="yes"/>
    </contour>
    <contour>
      <point x="142" y="0" type="line" smooth="yes"/>
      <point x="165" y="0"/>
      <point x="178" y="12"/>
      <point x="184" y="37" type="curve" smooth="yes"/>
      <point x="199" y="102" type="line" smooth="yes"/>
      <point x="200" y="109"/>
      <point x="201" y="113"/>
      <point x="201" y="116" type="curve" smooth="yes"/>
      <point x="201" y="131"/>
      <point x="192" y="139"/>
      <point x="174" y="139" type="curve" smooth="yes"/>
      <point x="100" y="139" type="line" smooth="yes"/>
      <point x="76" y="139"/>
      <point x="63" y="127"/>
      <point x="57" y="102" type="curve" smooth="yes"/>
      <point x="42" y="37" type="line" smooth="yes"/>
      <point x="41" y="30"/>
      <point x="40" y="26"/>
      <point x="40" y="23" type="curve" smooth="yes"/>
      <point x="40" y="8"/>
      <point x="49" y="0"/>
      <point x="67" y="0" type="curve" smooth="yes"/>
    </contour>
  </outline>
</glyph>
<glyph name="numbersign" format="1">
  <advance width="691"/>
  <unicode hex="0023"/>
  <outline>
    <contour>
      <point x="209" y="0" type="line" smooth="yes"/>
      <point x="224" y="0"/>
      <point x="236" y="10"/>
      <point x="239" y="29" type="curve" smooth="yes"/>
      <point x="263" y="168" type="line"/>
      <point x="409" y="168" type="line"/>
      <point x="383" y="20" type="line"/>
      <point x="383" y="7"/>
      <point x="390" y="0"/>
      <point x="403" y="0" type="curve" smooth="yes"/>
      <point x="445" y="0" type="line" smooth="yes"/>
      <point x="462" y="0"/>
      <point x="471" y="10"/>
      <point x="475" y="29" type="curve" smooth="yes"/>
      <point x="500" y="168" type="line"/>
      <point x="587" y="168" type="line" smooth="yes"/>
      <point x="607" y="168"/>
      <point x="618" y="176"/>
      <point x="621" y="192" type="curve" smooth="yes"/>
      <point x="628" y="231" type="line" smooth="yes"/>
      <point x="628" y="233"/>
      <point x="628" y="234"/>
      <point x="628" y="236" type="curve" smooth="yes"/>
      <point x="628" y="249"/>
      <point x="620" y="256"/>
      <point x="603" y="256" type="curve" smooth="yes"/>
      <point x="515" y="256" type="line"/>
      <point x="547" y="438" type="line"/>
      <point x="635" y="438" type="line" smooth="yes"/>
      <point x="654" y="438"/>
      <point x="667" y="447"/>
      <point x="668" y="463" type="curve"/>
      <point x="675" y="502" type="line" smooth="yes"/>
      <point x="675" y="504"/>
      <point x="675" y="506"/>
      <point x="675" y="508" type="curve" smooth="yes"/>
      <point x="675" y="520"/>
      <point x="667" y="526"/>
      <point x="650" y="526" type="curve" smooth="yes"/>
      <point x="563" y="526" type="line"/>
      <point x="588" y="674" type="line"/>
      <point x="588" y="687"/>
      <point x="581" y="694"/>
      <point x="568" y="694" type="curve" smooth="yes"/>
      <point x="526" y="694" type="line" smooth="yes"/>
      <point x="510" y="694"/>
      <point x="499" y="684"/>
      <point x="496" y="665" type="curve" smooth="yes"/>
      <point x="472" y="526" type="line"/>
      <point x="326" y="526" type="line"/>
      <point x="352" y="674" type="line"/>
      <point x="352" y="687"/>
      <point x="345" y="694"/>
      <point x="332" y="694" type="curve" smooth="yes"/>
      <point x="290" y="694" type="line" smooth="yes"/>
      <point x="273" y="694"/>
      <point x="263" y="684"/>
      <point x="260" y="665" type="curve" smooth="yes"/>
      <point x="235" y="526" type="line"/>
      <point x="147" y="526" type="line" smooth="yes"/>
      <point x="128" y="526"/>
      <point x="117" y="518"/>
      <point x="114" y="502" type="curve" smooth="yes"/>
      <point x="107" y="463" type="line"/>
      <point x="106" y="461"/>
      <point x="106" y="459"/>
      <point x="106" y="457" type="curve" smooth="yes"/>
      <point x="106" y="445"/>
      <point x="115" y="438"/>
      <point x="132" y="438" type="curve" smooth="yes"/>
      <point x="220" y="438" type="line"/>
      <point x="188" y="256" type="line"/>
      <point x="100" y="256" type="line" smooth="yes"/>
      <point x="80" y="256"/>
      <point x="69" y="248"/>
      <point x="66" y="231" type="curve" smooth="yes"/>
      <point x="59" y="192" type="line" smooth="yes"/>
      <point x="59" y="190"/>
      <point x="59" y="189"/>
      <point x="59" y="187" type="curve" smooth="yes"/>
      <point x="59" y="174"/>
      <point x="67" y="168"/>
      <point x="84" y="168" type="curve" smooth="yes"/>
      <point x="172" y="168" type="line"/>
      <point x="147" y="20" type="line"/>
      <point x="147" y="7"/>
      <point x="154" y="0"/>
      <point x="167" y="0" type="curve" smooth="yes"/>
    </contour>
    <contour>
      <point x="311" y="438" type="line"/>
      <point x="456" y="438" type="line"/>
      <point x="424" y="256" type="line"/>
      <point x="279" y="256" type="line"/>
    </contour>
  </outline>
</glyph>
<glyph name="dollar" format="1">
  <advance width="586"/>
  <unicode hex="0024"/>
  <outline>
    <contour>
      <point x="240" y="-103" type="line" smooth="yes"/>
      <point x="257" y="-103"/>
      <point x="266" y="-93"/>
      <point x="271" y="-73" type="curve" smooth="yes"/>
      <point x="284" y="-16" type="line"/>
      <point x="379" y="-16"/>
      <point x="524" y="52"/>
      <point x="524" y="198" type="curve" smooth="yes"/>
      <point x="524" y="266"/>
      <point x="490" y="342"/>
      <point x="411" y="377" type="curve" smooth="yes"/>
      <point x="396" y="384"/>
      <point x="385" y="389"/>
      <point x="378" y="394" type="curve"/>
      <point x="426" y="598" type="line"/>
      <point x="465" y="587"/>
      <point x="494" y="547"/>
      <point x="508" y="547" type="curve" smooth="yes"/>
      <point x="515" y="547"/>
      <point x="523" y="552"/>
      <point x="531" y="562" type="curve" smooth="yes"/>
      <point x="573" y="614" type="line" smooth="yes"/>
      <point x="576" y="617"/>
      <point x="578" y="622"/>
      <point x="578" y="628" type="curve" smooth="yes"/>
      <point x="578" y="651"/>
      <point x="529" y="683"/>
      <point x="516" y="689" type="curve" smooth="yes"/>
      <point x="498" y="698"/>
      <point x="476" y="705"/>
      <point x="451" y="708" type="curve"/>
      <point x="463" y="760" type="line" smooth="yes"/>
      <point x="464" y="765"/>
      <point x="465" y="769"/>
      <point x="465" y="772" type="curve" smooth="yes"/>
      <point x="465" y="783"/>
      <point x="459" y="789"/>
      <point x="446" y="789" type="curve" smooth="yes"/>
      <point x="407" y="789" type="line" smooth="yes"/>
      <point x="392" y="789"/>
      <point x="379" y="779"/>
      <point x="375" y="760" type="curve" smooth="yes"/>
      <point x="364" y="710" type="line"/>
      <point x="258" y="710"/>
      <point x="129" y="644"/>
      <point x="129" y="506" type="curve" smooth="yes"/>
      <point x="129" y="409"/>
      <point x="165" y="347"/>
      <point x="270" y="302" type="curve"/>
      <point x="221" y="92" type="line"/>
      <point x="195" y="96"/>
      <point x="133" y="114"/>
      <point x="101" y="141" type="curve" smooth="yes"/>
      <point x="88" y="151"/>
      <point x="77" y="155"/>
      <point x="69" y="156" type="curve" smooth="yes"/>
      <point x="61" y="156"/>
      <point x="55" y="153"/>
      <point x="50" y="146" type="curve" smooth="yes"/>
      <point x="16" y="98" type="line" smooth="yes"/>
      <point x="12" y="92"/>
      <point x="10" y="86"/>
      <point x="10" y="81" type="curve" smooth="yes"/>
      <point x="10" y="31"/>
      <point x="131" y="-6"/>
      <point x="197" y="-13" type="curve"/>
      <point x="183" y="-73" type="line" smooth="yes"/>
      <point x="182" y="-76"/>
      <point x="182" y="-79"/>
      <point x="182" y="-84" type="curve" smooth="yes"/>
      <point x="182" y="-97"/>
      <point x="188" y="-103"/>
      <point x="201" y="-103" type="curve" smooth="yes"/>
    </contour>
    <contour>
      <point x="350" y="269" type="line"/>
      <point x="364" y="261" type="line" smooth="yes"/>
      <point x="386" y="248"/>
      <point x="397" y="226"/>
      <point x="397" y="196" type="curve" smooth="yes"/>
      <point x="397" y="169"/>
      <point x="387" y="146"/>
      <point x="368" y="129" type="curve" smooth="yes"/>
      <point x="349" y="111"/>
      <point x="329" y="100"/>
      <point x="310" y="96" type="curve"/>
    </contour>
    <contour>
      <point x="283" y="436"/>
      <point x="263" y="463"/>
      <point x="259" y="475" type="curve" smooth="yes"/>
      <point x="256" y="485"/>
      <point x="254" y="496"/>
      <point x="254" y="507" type="curve" smooth="yes"/>
      <point x="254" y="552"/>
      <point x="288" y="596"/>
      <point x="339" y="602" type="curve"/>
      <point x="300" y="431" type="line"/>
    </contour>
  </outline>
</glyph>
<glyph name="ampersand" format="1">
  <advance width="691"/>
  <unicode hex="0026"/>
  <outline>
    <contour>
      <point x="285" y="-17"/>
      <point x="377" y="7"/>
      <point x="432" y="56" type="curve"/>
      <point x="446" y="29" type="line" smooth="yes"/>
      <point x="456" y="10"/>
      <point x="475" y="0"/>
      <point x="497" y="0" type="curve" smooth="yes"/>
      <point x="572" y="0" type="line" smooth="yes"/>
      <point x="591" y="0"/>
      <point x="600" y="5"/>
      <point x="600" y="16" type="curve" smooth="yes"/>
      <point x="600" y="20"/>
      <point x="598" y="25"/>
      <point x="595" y="32" type="curve" smooth="yes"/>
      <point x="544" y="129" type="line"/>
      <point x="607" y="174"/>
      <point x="629" y="211"/>
      <point x="656" y="263" type="curve" smooth="yes"/>
      <point x="662" y="274"/>
      <point x="667" y="283"/>
      <point x="666" y="291" type="curve" smooth="yes"/>
      <point x="666" y="294"/>
      <point x="665" y="296"/>
      <point x="662" y="299" type="curve"/>
      <point x="614" y="330" type="line" smooth="yes"/>
      <point x="608" y="334"/>
      <point x="602" y="336"/>
      <point x="597" y="336" type="curve" smooth="yes"/>
      <point x="571" y="336"/>
      <point x="545" y="273"/>
      <point x="493" y="224" type="curve"/>
      <point x="414" y="375" type="line"/>
      <point x="511" y="433"/>
      <point x="575" y="494"/>
      <point x="575" y="579" type="curve" smooth="yes"/>
      <point x="575" y="653"/>
      <point x="509" y="717"/>
      <point x="407" y="717" type="curve" smooth="yes"/>
      <point x="280" y="717"/>
      <point x="199" y="645"/>
      <point x="199" y="554" type="curve" smooth="yes"/>
      <point x="199" y="492"/>
      <point x="208" y="464"/>
      <point x="248" y="405" type="curve"/>
      <point x="175" y="364"/>
      <point x="120" y="323"/>
      <point x="85" y="282" type="curve" smooth="yes"/>
      <point x="51" y="241"/>
      <point x="34" y="193"/>
      <point x="34" y="136" type="curve" smooth="yes"/>
      <point x="34" y="53"/>
      <point x="84" y="-17"/>
      <point x="219" y="-17" type="curve" smooth="yes"/>
    </contour>
    <contour>
      <point x="202" y="90"/>
      <point x="180" y="113"/>
      <point x="180" y="153" type="curve" smooth="yes"/>
      <point x="180" y="210"/>
      <point x="216" y="246"/>
      <point x="300" y="305" type="curve"/>
      <point x="383" y="148" type="line"/>
      <point x="341" y="115"/>
      <point x="304" y="90"/>
      <point x="247" y="90" type="curve" smooth="yes"/>
    </contour>
    <contour>
      <point x="346" y="485"/>
      <point x="338" y="501"/>
      <point x="335" y="512" type="curve" smooth="yes"/>
      <point x="332" y="523"/>
      <point x="331" y="536"/>
      <point x="331" y="553" type="curve" smooth="yes"/>
      <point x="331" y="573"/>
      <point x="353" y="604"/>
      <point x="391" y="604" type="curve" smooth="yes"/>
      <point x="426" y="604"/>
      <point x="443" y="589"/>
      <point x="443" y="559" type="curve" smooth="yes"/>
      <point x="443" y="519"/>
      <point x="418" y="498"/>
      <point x="360" y="466" type="curve"/>
    </contour>
  </outline>
</glyph>
<glyph name="quotesingle" format="1">
  <advance width="273"/>
  <unicode hex="0027"/>
  <outline>
    <contour>
      <point x="202" y="402" type="line" smooth="yes"/>
      <point x="218" y="402"/>
      <point x="227" y="412"/>
      <point x="233" y="432" type="curve" smooth="yes"/>
      <point x="304" y="686" type="line" smooth="yes"/>
      <point x="305" y="689"/>
      <point x="306" y="694"/>
      <point x="306" y="700" type="curve" smooth="yes"/>
      <point x="306" y="711"/>
      <point x="299" y="717"/>
      <point x="286" y="717" type="curve" smooth="yes"/>
      <point x="201" y="717" type="line" smooth="yes"/>
      <point x="184" y="717"/>
      <point x="173" y="707"/>
      <point x="169" y="686" type="curve" smooth="yes"/>
      <point x="122" y="432" type="line"/>
      <point x="121" y="430"/>
      <point x="121" y="427"/>
      <point x="121" y="423" type="curve" smooth="yes"/>
      <point x="121" y="409"/>
      <point x="127" y="402"/>
      <point x="140" y="402" type="curve" smooth="yes"/>
    </contour>
  </outline>
</glyph>
<glyph name="parenleft" format="1">
  <advance width="361"/>
  <unicode hex="0028"/>
  <outline>
    <contour>
      <point x="175" y="-225"/>
      <point x="180" y="-223"/>
      <point x="185" y="-220" type="curve" smooth="yes"/>
      <point x="225" y="-194" type="line" smooth="yes"/>
      <point x="232" y="-189"/>
      <point x="236" y="-182"/>
      <point x="236" y="-174" type="curve" smooth="yes"/>
      <point x="236" y="-169"/>
      <point x="234" y="-163"/>
      <point x="231" y="-154" type="curve"/>
      <point x="196" y="-74"/>
      <point x="184" y="6"/>
      <point x="184" y="160" type="curve" smooth="yes"/>
      <point x="184" y="295"/>
      <point x="211" y="402"/>
      <point x="265" y="485" type="curve" smooth="yes"/>
      <point x="318" y="567"/>
      <point x="372" y="632"/>
      <point x="429" y="677" type="curve" smooth="yes"/>
      <point x="439" y="685"/>
      <point x="444" y="692"/>
      <point x="444" y="699" type="curve" smooth="yes"/>
      <point x="444" y="703"/>
      <point x="442" y="707"/>
      <point x="437" y="712" type="curve" smooth="yes"/>
      <point x="395" y="752" type="line" smooth="yes"/>
      <point x="392" y="754"/>
      <point x="388" y="755"/>
      <point x="384" y="755" type="curve" smooth="yes"/>
      <point x="330" y="755"/>
      <point x="231" y="647"/>
      <point x="151" y="535" type="curve" smooth="yes"/>
      <point x="76" y="428"/>
      <point x="38" y="305"/>
      <point x="38" y="166" type="curve" smooth="yes"/>
      <point x="38" y="6"/>
      <point x="86" y="-123"/>
      <point x="147" y="-208" type="curve" smooth="yes"/>
      <point x="155" y="-219"/>
      <point x="163" y="-225"/>
      <point x="171" y="-225" type="curve" smooth="yes"/>
    </contour>
  </outline>
</glyph>
<glyph name="parenright" format="1">
  <advance width="361"/>
  <unicode hex="0029"/>
  <outline>
    <contour>
      <point x="-10" y="-224"/>
      <point x="-2" y="-221"/>
      <point x="7" y="-216" type="curve" smooth="yes"/>
      <point x="71" y="-181"/>
      <point x="139" y="-111"/>
      <point x="215" y="-4" type="curve" smooth="yes"/>
      <point x="291" y="104"/>
      <point x="330" y="225"/>
      <point x="330" y="366" type="curve" smooth="yes"/>
      <point x="330" y="513"/>
      <point x="286" y="649"/>
      <point x="220" y="739" type="curve" smooth="yes"/>
      <point x="212" y="750"/>
      <point x="204" y="756"/>
      <point x="196" y="756" type="curve" smooth="yes"/>
      <point x="192" y="756"/>
      <point x="187" y="754"/>
      <point x="182" y="751" type="curve" smooth="yes"/>
      <point x="143" y="726" type="line" smooth="yes"/>
      <point x="135" y="721"/>
      <point x="131" y="714"/>
      <point x="131" y="705" type="curve" smooth="yes"/>
      <point x="131" y="700"/>
      <point x="133" y="693"/>
      <point x="136" y="685" type="curve" smooth="yes"/>
      <point x="175" y="598"/>
      <point x="183" y="548"/>
      <point x="183" y="372" type="curve" smooth="yes"/>
      <point x="183" y="237"/>
      <point x="156" y="128"/>
      <point x="102" y="46" type="curve" smooth="yes"/>
      <point x="47" y="-38"/>
      <point x="-7" y="-102"/>
      <point x="-62" y="-146" type="curve" smooth="yes"/>
      <point x="-72" y="-154"/>
      <point x="-77" y="-161"/>
      <point x="-77" y="-168" type="curve" smooth="yes"/>
      <point x="-77" y="-172"/>
      <point x="-75" y="-176"/>
      <point x="-70" y="-181" type="curve" smooth="yes"/>
      <point x="-28" y="-221" type="line" smooth="yes"/>
      <point x="-25" y="-223"/>
      <point x="-21" y="-224"/>
      <point x="-18" y="-224" type="curve" smooth="yes"/>
    </contour>
  </outline>
</glyph>
<glyph name="asterisk" format="1">
  <advance width="469"/>
  <unicode hex="002A"/>
  <outline>
    <contour>
      <point x="256" y="312" type="line" smooth="yes"/>
      <point x="282" y="312"/>
      <point x="300" y="327"/>
      <point x="303" y="357" type="curve" smooth="yes"/>
      <point x="314" y="461" type="line"/>
      <point x="384" y="398" type="line" smooth="yes"/>
      <point x="393" y="390"/>
      <point x="401" y="386"/>
      <point x="410" y="386" type="curve" smooth="yes"/>
      <point x="421" y="386"/>
      <point x="432" y="393"/>
      <point x="443" y="407" type="curve" smooth="yes"/>
      <point x="455" y="422" type="line" smooth="yes"/>
      <point x="463" y="432"/>
      <point x="467" y="441"/>
      <point x="467" y="449" type="curve" smooth="yes"/>
      <point x="467" y="460"/>
      <point x="460" y="468"/>
      <point x="446" y="475" type="curve" smooth="yes"/>
      <point x="359" y="517" type="line"/>
      <point x="465" y="558" type="line" smooth="yes"/>
      <point x="490" y="567"/>
      <point x="502" y="579"/>
      <point x="502" y="597" type="curve" smooth="yes"/>
      <point x="502" y="602"/>
      <point x="501" y="606"/>
      <point x="499" y="611" type="curve" smooth="yes"/>
      <point x="494" y="626" type="line" smooth="yes"/>
      <point x="489" y="640"/>
      <point x="480" y="647"/>
      <point x="469" y="647" type="curve" smooth="yes"/>
      <point x="460" y="647"/>
      <point x="450" y="643"/>
      <point x="438" y="635" type="curve" smooth="yes"/>
      <point x="340" y="572" type="line"/>
      <point x="376" y="676" type="line" smooth="yes"/>
      <point x="379" y="686"/>
      <point x="381" y="693"/>
      <point x="381" y="698" type="curve" smooth="yes"/>
      <point x="381" y="714"/>
      <point x="371" y="722"/>
      <point x="351" y="722" type="curve" smooth="yes"/>
      <point x="333" y="722" type="line" smooth="yes"/>
      <point x="305" y="722"/>
      <point x="291" y="707"/>
      <point x="288" y="676" type="curve" smooth="yes"/>
      <point x="276" y="572" type="line"/>
      <point x="207" y="635" type="line" smooth="yes"/>
      <point x="198" y="643"/>
      <point x="190" y="647"/>
      <point x="181" y="647" type="curve" smooth="yes"/>
      <point x="170" y="647"/>
      <point x="158" y="640"/>
      <point x="147" y="627" type="curve" smooth="yes"/>
      <point x="135" y="612" type="line" smooth="yes"/>
      <point x="127" y="602"/>
      <point x="123" y="593"/>
      <point x="123" y="585" type="curve" smooth="yes"/>
      <point x="123" y="574"/>
      <point x="130" y="565"/>
      <point x="145" y="558" type="curve" smooth="yes"/>
      <point x="230" y="517" type="line"/>
      <point x="125" y="476" type="line" smooth="yes"/>
      <point x="100" y="466"/>
      <point x="88" y="452"/>
      <point x="88" y="435" type="curve" smooth="yes"/>
      <point x="88" y="431"/>
      <point x="89" y="426"/>
      <point x="91" y="421" type="curve" smooth="yes"/>
      <point x="96" y="406" type="line" smooth="yes"/>
      <point x="100" y="393"/>
      <point x="108" y="386"/>
      <point x="120" y="386" type="curve" smooth="yes"/>
      <point x="129" y="386"/>
      <point x="139" y="390"/>
      <point x="152" y="398" type="curve" smooth="yes"/>
      <point x="250" y="461" type="line"/>
      <point x="214" y="357" type="line" smooth="yes"/>
      <point x="211" y="347"/>
      <point x="209" y="340"/>
      <point x="209" y="335" type="curve" smooth="yes"/>
      <point x="209" y="320"/>
      <point x="219" y="312"/>
      <point x="239" y="312" type="curve" smooth="yes"/>
    </contour>
  </outline>
</glyph>
<glyph name="plus" format="1">
  <advance width="625"/>
  <unicode hex="002B"/>
  <outline>
    <contour>
      <point x="356" y="78" type="line" smooth="yes"/>
      <point x="373" y="78"/>
      <point x="381" y="88"/>
      <point x="381" y="107" type="curve" smooth="yes"/>
      <point x="381" y="309" type="line"/>
      <point x="582" y="309" type="line" smooth="yes"/>
      <point x="601" y="309"/>
      <point x="611" y="317"/>
      <point x="611" y="333" type="curve" smooth="yes"/>
      <point x="611" y="375" type="line" smooth="yes"/>
      <point x="611" y="391"/>
      <point x="601" y="399"/>
      <point x="582" y="399" type="curve" smooth="yes"/>
      <point x="381" y="399" type="line"/>
      <point x="381" y="601" type="line" smooth="yes"/>
      <point x="381" y="620"/>
      <point x="373" y="630"/>
      <point x="356" y="630" type="curve" smooth="yes"/>
      <point x="314" y="630" type="line" smooth="yes"/>
      <point x="298" y="630"/>
      <point x="290" y="620"/>
      <point x="290" y="601" type="curve" smooth="yes"/>
      <point x="290" y="399" type="line"/>
      <point x="89" y="399" type="line" smooth="yes"/>
      <point x="70" y="399"/>
      <point x="60" y="391"/>
      <point x="60" y="375" type="curve" smooth="yes"/>
      <point x="60" y="333" type="line" smooth="yes"/>
      <point x="60" y="317"/>
      <point x="70" y="309"/>
      <point x="89" y="309" type="curve" smooth="yes"/>
      <point x="290" y="309" type="line"/>
      <point x="290" y="107" type="line" smooth="yes"/>
      <point x="290" y="88"/>
      <point x="298" y="78"/>
      <point x="314" y="78" type="curve" smooth="yes"/>
    </contour>
  </outline>
</glyph>
<glyph name="comma" format="1">
  <advance width="326"/>
  <unicode hex="002C"/>
  <outline>
    <contour>
      <point x="102" y="-149"/>
      <point x="145" y="-88"/>
      <point x="156" y="-60" type="curve" smooth="yes"/>
      <point x="168" y="-29"/>
      <point x="177" y="4"/>
      <point x="185" y="37" type="curve" smooth="yes"/>
      <point x="200" y="102" type="line" smooth="yes"/>
      <point x="201" y="109"/>
      <point x="202" y="113"/>
      <point x="202" y="116" type="curve" smooth="yes"/>
      <point x="202" y="131"/>
      <point x="193" y="139"/>
      <point x="175" y="139" type="curve" smooth="yes"/>
      <point x="99" y="139" type="line" smooth="yes"/>
      <point x="75" y="139"/>
      <point x="62" y="127"/>
      <point x="56" y="102" type="curve" smooth="yes"/>
      <point x="41" y="37" type="line" smooth="yes"/>
      <point x="40" y="30"/>
      <point x="39" y="26"/>
      <point x="39" y="23" type="curve" smooth="yes"/>
      <point x="39" y="8"/>
      <point x="48" y="0"/>
      <point x="66" y="0" type="curve" smooth="yes"/>
      <point x="100" y="0" type="line"/>
      <point x="91" y="-40"/>
      <point x="76" y="-69"/>
      <point x="53" y="-87" type="curve" smooth="yes"/>
      <point x="40" y="-97"/>
      <point x="34" y="-106"/>
      <point x="34" y="-113" type="curve" smooth="yes"/>
      <point x="34" y="-117"/>
      <point x="36" y="-121"/>
      <point x="39" y="-124" type="curve" smooth="yes"/>
      <point x="56" y="-142" type="line" smooth="yes"/>
      <point x="60" y="-147"/>
      <point x="65" y="-149"/>
      <point x="71" y="-149" type="curve" smooth="yes"/>
    </contour>
  </outline>
</glyph>
<glyph name="hyphen" format="1">
  <advance width="342"/>
  <unicode hex="002D"/>
  <outline>
    <contour>
      <point x="278" y="218" type="line" smooth="yes"/>
      <point x="299" y="218"/>
      <point x="309" y="226"/>
      <point x="313" y="242" type="curve" smooth="yes"/>
      <point x="326" y="298" type="line" smooth="yes"/>
      <point x="327" y="301"/>
      <point x="327" y="303"/>
      <point x="327" y="305" type="curve" smooth="yes"/>
      <point x="327" y="316"/>
      <point x="319" y="322"/>
      <point x="302" y="322" type="curve" smooth="yes"/>
      <point x="71" y="322" type="line" smooth="yes"/>
      <point x="52" y="322"/>
      <point x="40" y="314"/>
      <point x="36" y="298" type="curve" smooth="yes"/>
      <point x="23" y="242" type="line" smooth="yes"/>
      <point x="22" y="240"/>
      <point x="22" y="238"/>
      <point x="22" y="236" type="curve" smooth="yes"/>
      <point x="22" y="224"/>
      <point x="30" y="218"/>
      <point x="47" y="218" type="curve" smooth="yes"/>
    </contour>
  </outline>
</glyph>
<glyph name="period" format="1">
  <advance width="326"/>
  <unicode hex="002E"/>
  <outline>
    <contour>
      <point x="142" y="0" type="line" smooth="yes"/>
      <point x="165" y="0"/>
      <point x="178" y="12"/>
      <point x="184" y="37" type="curve" smooth="yes"/>
      <point x="199" y="102" type="line" smooth="yes"/>
      <point x="200" y="109"/>
      <point x="201" y="113"/>
      <point x="201" y="116" type="curve" smooth="yes"/>
      <point x="201" y="131"/>
      <point x="192" y="139"/>
      <point x="174" y="139" type="curve" smooth="yes"/>
      <point x="100" y="139" type="line" smooth="yes"/>
      <point x="76" y="139"/>
      <point x="63" y="127"/>
      <point x="57" y="102" type="curve" smooth="yes"/>
      <point x="42" y="37" type="line" smooth="yes"/>
      <point x="41" y="30"/>
      <point x="40" y="26"/>
      <point x="40" y="23" type="curve" smooth="yes"/>
      <point x="40" y="8"/>
      <point x="49" y="0"/>
      <point x="67" y="0" type="curve" smooth="yes"/>
    </contour>
  </outline>
</glyph>
<glyph name="slash" format="1">
  <advance width="418"/>
  <unicode hex="002F"/>
  <outline>
    <contour>
      <point x="-27" y="-206"/>
      <point x="-18" y="-199"/>
      <point x="-9" y="-184" type="curve" smooth="yes"/>
      <point x="510" y="659" type="line" smooth="yes"/>
      <point x="515" y="666"/>
      <point x="517" y="672"/>
      <point x="517" y="679" type="curve" smooth="yes"/>
      <point x="517" y="686"/>
      <point x="513" y="692"/>
      <point x="506" y="695" type="curve"/>
      <point x="466" y="718" type="line" smooth="yes"/>
      <point x="463" y="720"/>
      <point x="459" y="721"/>
      <point x="456" y="721" type="curve" smooth="yes"/>
      <point x="447" y="721"/>
      <point x="438" y="714"/>
      <point x="429" y="699" type="curve" smooth="yes"/>
      <point x="-90" y="-144" type="line" smooth="yes"/>
      <point x="-95" y="-151"/>
      <point x="-97" y="-157"/>
      <point x="-97" y="-163" type="curve" smooth="yes"/>
      <point x="-97" y="-171"/>
      <point x="-93" y="-177"/>
      <point x="-86" y="-180" type="curve"/>
      <point x="-46" y="-203" type="line" smooth="yes"/>
      <point x="-43" y="-205"/>
      <point x="-39" y="-206"/>
      <point x="-36" y="-206" type="curve" smooth="yes"/>
    </contour>
  </outline>
</glyph>
<glyph name="zero" format="1">
  <advance width="586"/>
  <unicode hex="0030"/>
  <outline>
    <contour>
      <point x="380" y="-17"/>
      <point x="463" y="36"/>
      <point x="510" y="141" type="curve" smooth="yes"/>
      <point x="556" y="246"/>
      <point x="580" y="350"/>
      <point x="580" y="456" type="curve" smooth="yes"/>
      <point x="580" y="648"/>
      <point x="491" y="711"/>
      <point x="371" y="711" type="curve" smooth="yes"/>
      <point x="250" y="711"/>
      <point x="165" y="658"/>
      <point x="118" y="553" type="curve" smooth="yes"/>
      <point x="72" y="448"/>
      <point x="49" y="344"/>
      <point x="49" y="239" type="curve" smooth="yes"/>
      <point x="49" y="45"/>
      <point x="138" y="-17"/>
      <point x="258" y="-17" type="curve" smooth="yes"/>
    </contour>
    <contour>
      <point x="218" y="90"/>
      <point x="193" y="130"/>
      <point x="193" y="219" type="curve" smooth="yes"/>
      <point x="193" y="292"/>
      <point x="207" y="375"/>
      <point x="235" y="467" type="curve" smooth="yes"/>
      <point x="263" y="558"/>
      <point x="305" y="604"/>
      <point x="362" y="604" type="curve" smooth="yes"/>
      <point x="411" y="604"/>
      <point x="436" y="564"/>
      <point x="436" y="475" type="curve" smooth="yes"/>
      <point x="436" y="405"/>
      <point x="422" y="323"/>
      <point x="394" y="228" type="curve" smooth="yes"/>
      <point x="366" y="136"/>
      <point x="324" y="90"/>
      <point x="267" y="90" type="curve" smooth="yes"/>
    </contour>
  </outline>
</glyph>
<glyph name="one" format="1">
  <advance width="443"/>
  <unicode hex="0031"/>
  <outline>
    <contour>
      <point x="263" y="0" type="line" smooth="yes"/>
      <point x="283" y="0"/>
      <point x="295" y="10"/>
      <point x="299" y="29" type="curve" smooth="yes"/>
      <point x="448" y="674" type="line" smooth="yes"/>
      <point x="449" y="677"/>
      <point x="449" y="680"/>
      <point x="449" y="684" type="curve" smooth="yes"/>
      <point x="449" y="697"/>
      <point x="441" y="703"/>
      <point x="425" y="703" type="curve" smooth="yes"/>
      <point x="348" y="703" type="line" smooth="yes"/>
      <point x="322" y="703"/>
      <point x="290" y="661"/>
      <point x="237" y="628" type="curve" smooth="yes"/>
      <point x="185" y="596"/>
      <point x="140" y="589"/>
      <point x="141" y="565" type="curve" smooth="yes"/>
      <point x="141" y="563"/>
      <point x="142" y="560"/>
      <point x="143" y="556" type="curve" smooth="yes"/>
      <point x="169" y="487" type="line" smooth="yes"/>
      <point x="172" y="477"/>
      <point x="179" y="472"/>
      <point x="188" y="472" type="curve" smooth="yes"/>
      <point x="221" y="472"/>
      <point x="261" y="505"/>
      <point x="276" y="523" type="curve"/>
      <point x="278" y="523" type="line"/>
      <point x="278" y="523"/>
      <point x="278" y="523"/>
      <point x="278" y="523" type="curve"/>
      <point x="278" y="523"/>
      <point x="274" y="510"/>
      <point x="267" y="484" type="curve"/>
      <point x="163" y="29" type="line" smooth="yes"/>
      <point x="162" y="26"/>
      <point x="162" y="23"/>
      <point x="162" y="19" type="curve" smooth="yes"/>
      <point x="162" y="6"/>
      <point x="170" y="0"/>
      <point x="185" y="0" type="curve" smooth="yes"/>
    </contour>
  </outline>
</glyph>
<glyph name="two" format="1">
  <advance width="586"/>
  <unicode hex="0032"/>
  <outline>
    <contour>
      <point x="447" y="0" type="line" smooth="yes"/>
      <point x="471" y="0"/>
      <point x="486" y="11"/>
      <point x="491" y="32" type="curve" smooth="yes"/>
      <point x="504" y="89" type="line" smooth="yes"/>
      <point x="505" y="92"/>
      <point x="505" y="95"/>
      <point x="505" y="99" type="curve" smooth="yes"/>
      <point x="505" y="114"/>
      <point x="495" y="121"/>
      <point x="475" y="121" type="curve" smooth="yes"/>
      <point x="263" y="121" type="line" smooth="yes"/>
      <point x="244" y="121"/>
      <point x="227" y="120"/>
      <point x="214" y="119" type="curve"/>
      <point x="215" y="122" type="line"/>
      <point x="320" y="209" type="line"/>
      <point x="487" y="352" type="line" smooth="yes"/>
      <point x="558" y="413"/>
      <point x="593" y="476"/>
      <point x="593" y="534" type="curve" smooth="yes"/>
      <point x="593" y="646"/>
      <point x="515" y="711"/>
      <point x="391" y="711" type="curve" smooth="yes"/>
      <point x="235" y="711"/>
      <point x="163" y="646"/>
      <point x="117" y="548" type="curve" smooth="yes"/>
      <point x="114" y="540"/>
      <point x="112" y="534"/>
      <point x="112" y="529" type="curve" smooth="yes"/>
      <point x="112" y="518"/>
      <point x="118" y="508"/>
      <point x="131" y="502" type="curve" smooth="yes"/>
      <point x="177" y="479" type="line" smooth="yes"/>
      <point x="181" y="477"/>
      <point x="184" y="476"/>
      <point x="187" y="476" type="curve" smooth="yes"/>
      <point x="198" y="476"/>
      <point x="208" y="485"/>
      <point x="218" y="503" type="curve" smooth="yes"/>
      <point x="254" y="566"/>
      <point x="295" y="602"/>
      <point x="373" y="602" type="curve" smooth="yes"/>
      <point x="412" y="602"/>
      <point x="447" y="586"/>
      <point x="447" y="525" type="curve" smooth="yes"/>
      <point x="447" y="475"/>
      <point x="381" y="403"/>
      <point x="214" y="259" type="curve"/>
      <point x="32" y="105" type="line" smooth="yes"/>
      <point x="13" y="89"/>
      <point x="1" y="72"/>
      <point x="-3" y="55" type="curve" smooth="yes"/>
      <point x="-8" y="32" type="line" smooth="yes"/>
      <point x="-9" y="29"/>
      <point x="-9" y="26"/>
      <point x="-9" y="22" type="curve" smooth="yes"/>
      <point x="-9" y="7"/>
      <point x="1" y="0"/>
      <point x="21" y="0" type="curve" smooth="yes"/>
    </contour>
  </outline>
</glyph>
<glyph name="three" format="1">
  <advance width="586"/>
  <unicode hex="0033"/>
  <outline>
    <contour>
      <point x="451" y="-17"/>
      <point x="535" y="106"/>
      <point x="535" y="208" type="curve" smooth="yes"/>
      <point x="535" y="295"/>
      <point x="478" y="362"/>
      <point x="407" y="378" type="curve"/>
      <point x="407" y="380" type="line"/>
      <point x="491" y="394"/>
      <point x="581" y="454"/>
      <point x="581" y="548" type="curve" smooth="yes"/>
      <point x="581" y="629"/>
      <point x="514" y="711"/>
      <point x="367" y="711" type="curve" smooth="yes"/>
      <point x="267" y="711"/>
      <point x="126" y="667"/>
      <point x="126" y="613" type="curve" smooth="yes"/>
      <point x="126" y="606"/>
      <point x="128" y="600"/>
      <point x="132" y="594" type="curve" smooth="yes"/>
      <point x="159" y="557" type="line" smooth="yes"/>
      <point x="165" y="548"/>
      <point x="173" y="544"/>
      <point x="182" y="544" type="curve" smooth="yes"/>
      <point x="191" y="544"/>
      <point x="200" y="548"/>
      <point x="209" y="555" type="curve" smooth="yes"/>
      <point x="248" y="584"/>
      <point x="288" y="602"/>
      <point x="341" y="602" type="curve" smooth="yes"/>
      <point x="408" y="602"/>
      <point x="438" y="576"/>
      <point x="438" y="535" type="curve" smooth="yes"/>
      <point x="438" y="478"/>
      <point x="377" y="428"/>
      <point x="295" y="428" type="curve" smooth="yes"/>
      <point x="271" y="428" type="line" smooth="yes"/>
      <point x="250" y="428"/>
      <point x="237" y="419"/>
      <point x="233" y="401" type="curve" smooth="yes"/>
      <point x="220" y="347" type="line" smooth="yes"/>
      <point x="219" y="344"/>
      <point x="219" y="342"/>
      <point x="219" y="340" type="curve" smooth="yes"/>
      <point x="219" y="327"/>
      <point x="228" y="321"/>
      <point x="246" y="321" type="curve" smooth="yes"/>
      <point x="278" y="321" type="line" smooth="yes"/>
      <point x="340" y="321"/>
      <point x="388" y="283"/>
      <point x="388" y="216" type="curve" smooth="yes"/>
      <point x="388" y="153"/>
      <point x="343" y="93"/>
      <point x="240" y="93" type="curve" smooth="yes"/>
      <point x="184" y="93"/>
      <point x="133" y="109"/>
      <point x="88" y="141" type="curve" smooth="yes"/>
      <point x="77" y="149"/>
      <point x="68" y="153"/>
      <point x="59" y="153" type="curve" smooth="yes"/>
      <point x="50" y="153"/>
      <point x="42" y="148"/>
      <point x="36" y="137" type="curve" smooth="yes"/>
      <point x="11" y="89" type="line" smooth="yes"/>
      <point x="8" y="84"/>
      <point x="7" y="79"/>
      <point x="7" y="74" type="curve" smooth="yes"/>
      <point x="7" y="15"/>
      <point x="168" y="-17"/>
      <point x="231" y="-17" type="curve" smooth="yes"/>
    </contour>
  </outline>
</glyph>
<glyph name="four" format="1">
  <advance width="586"/>
  <unicode hex="0034"/>
  <outline>
    <contour>
      <point x="375" y="0" type="line" smooth="yes"/>
      <point x="396" y="0"/>
      <point x="409" y="11"/>
      <point x="414" y="32" type="curve" smooth="yes"/>
      <point x="441" y="152" type="line"/>
      <point x="501" y="152" type="line" smooth="yes"/>
      <point x="522" y="152"/>
      <point x="535" y="163"/>
      <point x="540" y="184" type="curve" smooth="yes"/>
      <point x="553" y="242" type="line" smooth="yes"/>
      <point x="554" y="245"/>
      <point x="554" y="248"/>
      <point x="554" y="252" type="curve" smooth="yes"/>
      <point x="554" y="266"/>
      <point x="545" y="273"/>
      <point x="528" y="273" type="curve" smooth="yes"/>
      <point x="469" y="273" type="line"/>
      <point x="561" y="671" type="line" smooth="yes"/>
      <point x="562" y="674"/>
      <point x="562" y="677"/>
      <point x="562" y="682" type="curve" smooth="yes"/>
      <point x="562" y="696"/>
      <point x="553" y="703"/>
      <point x="536" y="703" type="curve" smooth="yes"/>
      <point x="457" y="703" type="line" smooth="yes"/>
      <point x="438" y="703"/>
      <point x="421" y="695"/>
      <point x="405" y="678" type="curve" smooth="yes"/>
      <point x="55" y="297" type="line" smooth="yes"/>
      <point x="43" y="284"/>
      <point x="33" y="268"/>
      <point x="29" y="249" type="curve" smooth="yes"/>
      <point x="14" y="184" type="line" smooth="yes"/>
      <point x="13" y="181"/>
      <point x="13" y="178"/>
      <point x="13" y="174" type="curve" smooth="yes"/>
      <point x="13" y="159"/>
      <point x="22" y="152"/>
      <point x="39" y="152" type="curve" smooth="yes"/>
      <point x="305" y="152" type="line"/>
      <point x="277" y="32" type="line" smooth="yes"/>
      <point x="276" y="29"/>
      <point x="276" y="26"/>
      <point x="276" y="21" type="curve" smooth="yes"/>
      <point x="276" y="7"/>
      <point x="284" y="0"/>
      <point x="301" y="0" type="curve" smooth="yes"/>
    </contour>
    <contour>
      <point x="382" y="487" type="line"/>
      <point x="384" y="487" type="line"/>
      <point x="381" y="478"/>
      <point x="377" y="465"/>
      <point x="373" y="448" type="curve" smooth="yes"/>
      <point x="333" y="273" type="line"/>
      <point x="186" y="273" type="line"/>
    </contour>
  </outline>
</glyph>
<glyph name="five" format="1">
  <advance width="586"/>
  <unicode hex="0035"/>
  <outline>
    <contour>
      <point x="409" y="-17"/>
      <point x="534" y="112"/>
      <point x="534" y="250" type="curve" smooth="yes"/>
      <point x="534" y="384"/>
      <point x="465" y="452"/>
      <point x="371" y="452" type="curve" smooth="yes"/>
      <point x="314" y="452"/>
      <point x="287" y="444"/>
      <point x="244" y="415" type="curve"/>
      <point x="238" y="415" type="line"/>
      <point x="244" y="426"/>
      <point x="247" y="439"/>
      <point x="251" y="454" type="curve" smooth="yes"/>
      <point x="279" y="573" type="line"/>
      <point x="526" y="573" type="line" smooth="yes"/>
      <point x="547" y="573"/>
      <point x="560" y="584"/>
      <point x="565" y="605" type="curve" smooth="yes"/>
      <point x="578" y="663" type="line" smooth="yes"/>
      <point x="579" y="666"/>
      <point x="579" y="669"/>
      <point x="579" y="674" type="curve" smooth="yes"/>
      <point x="579" y="687"/>
      <point x="571" y="694"/>
      <point x="554" y="694" type="curve" smooth="yes"/>
      <point x="202" y="694" type="line" smooth="yes"/>
      <point x="181" y="694"/>
      <point x="168" y="684"/>
      <point x="163" y="663" type="curve" smooth="yes"/>
      <point x="85" y="326" type="line" smooth="yes"/>
      <point x="84" y="324"/>
      <point x="84" y="321"/>
      <point x="84" y="316" type="curve" smooth="yes"/>
      <point x="84" y="301"/>
      <point x="93" y="294"/>
      <point x="110" y="294" type="curve" smooth="yes"/>
      <point x="163" y="294" type="line" smooth="yes"/>
      <point x="196" y="294"/>
      <point x="246" y="332"/>
      <point x="266" y="338" type="curve" smooth="yes"/>
      <point x="278" y="342"/>
      <point x="294" y="343"/>
      <point x="310" y="343" type="curve" smooth="yes"/>
      <point x="343" y="343"/>
      <point x="388" y="333"/>
      <point x="388" y="257" type="curve" smooth="yes"/>
      <point x="388" y="156"/>
      <point x="316" y="93"/>
      <point x="227" y="93" type="curve" smooth="yes"/>
      <point x="162" y="93"/>
      <point x="141" y="98"/>
      <point x="99" y="136" type="curve" smooth="yes"/>
      <point x="89" y="145"/>
      <point x="80" y="149"/>
      <point x="73" y="149" type="curve" smooth="yes"/>
      <point x="65" y="149"/>
      <point x="57" y="144"/>
      <point x="49" y="135" type="curve" smooth="yes"/>
      <point x="11" y="88" type="line" smooth="yes"/>
      <point x="7" y="83"/>
      <point x="5" y="78"/>
      <point x="5" y="73" type="curve" smooth="yes"/>
      <point x="5" y="66"/>
      <point x="9" y="58"/>
      <point x="16" y="51" type="curve" smooth="yes"/>
      <point x="65" y="2"/>
      <point x="133" y="-17"/>
      <point x="233" y="-17" type="curve" smooth="yes"/>
    </contour>
  </outline>
</glyph>
<glyph name="six" format="1">
  <advance width="586"/>
  <unicode hex="0036"/>
  <outline>
    <contour>
      <point x="420" y="-17"/>
      <point x="545" y="105"/>
      <point x="545" y="256" type="curve" smooth="yes"/>
      <point x="545" y="376"/>
      <point x="487" y="452"/>
      <point x="362" y="452" type="curve" smooth="yes"/>
      <point x="307" y="452"/>
      <point x="244" y="437"/>
      <point x="206" y="389" type="curve"/>
      <point x="204" y="389" type="line"/>
      <point x="234" y="532"/>
      <point x="320" y="602"/>
      <point x="399" y="602" type="curve" smooth="yes"/>
      <point x="440" y="602"/>
      <point x="472" y="594"/>
      <point x="505" y="573" type="curve" smooth="yes"/>
      <point x="516" y="566"/>
      <point x="525" y="563"/>
      <point x="532" y="563" type="curve" smooth="yes"/>
      <point x="539" y="563"/>
      <point x="546" y="566"/>
      <point x="551" y="573" type="curve" smooth="yes"/>
      <point x="588" y="621" type="line" smooth="yes"/>
      <point x="592" y="626"/>
      <point x="594" y="631"/>
      <point x="594" y="636" type="curve" smooth="yes"/>
      <point x="594" y="645"/>
      <point x="589" y="653"/>
      <point x="578" y="662" type="curve" smooth="yes"/>
      <point x="535" y="698"/>
      <point x="484" y="711"/>
      <point x="404" y="711" type="curve" smooth="yes"/>
      <point x="301" y="711"/>
      <point x="217" y="666"/>
      <point x="152" y="577" type="curve" smooth="yes"/>
      <point x="87" y="488"/>
      <point x="55" y="376"/>
      <point x="55" y="240" type="curve" smooth="yes"/>
      <point x="55" y="62"/>
      <point x="115" y="-17"/>
      <point x="258" y="-17" type="curve" smooth="yes"/>
    </contour>
    <contour>
      <point x="253" y="93"/>
      <point x="234" y="100"/>
      <point x="218" y="114" type="curve" smooth="yes"/>
      <point x="202" y="129"/>
      <point x="194" y="154"/>
      <point x="194" y="187" type="curve" smooth="yes"/>
      <point x="194" y="258"/>
      <point x="241" y="343"/>
      <point x="322" y="343" type="curve" smooth="yes"/>
      <point x="357" y="343"/>
      <point x="398" y="324"/>
      <point x="398" y="269" type="curve" smooth="yes"/>
      <point x="398" y="172"/>
      <point x="341" y="93"/>
      <point x="276" y="93" type="curve" smooth="yes"/>
    </contour>
  </outline>
</glyph>
<glyph name="seven" format="1">
  <advance width="543"/>
  <unicode hex="0037"/>
  <outline>
    <contour>
      <point x="207" y="-3" type="line" smooth="yes"/>
      <point x="228" y="-3"/>
      <point x="241" y="8"/>
      <point x="246" y="29" type="curve" smooth="yes"/>
      <point x="253" y="59" type="line" smooth="yes"/>
      <point x="309" y="300"/>
      <point x="384" y="415"/>
      <point x="547" y="555" type="curve" smooth="yes"/>
      <point x="568" y="573"/>
      <point x="580" y="590"/>
      <point x="584" y="607" type="curve" smooth="yes"/>
      <point x="597" y="663" type="line" smooth="yes"/>
      <point x="598" y="666"/>
      <point x="598" y="669"/>
      <point x="598" y="673" type="curve" smooth="yes"/>
      <point x="598" y="687"/>
      <point x="589" y="694"/>
      <point x="572" y="694" type="curve" smooth="yes"/>
      <point x="174" y="694" type="line" smooth="yes"/>
      <point x="153" y="694"/>
      <point x="140" y="684"/>
      <point x="135" y="663" type="curve" smooth="yes"/>
      <point x="122" y="605" type="line" smooth="yes"/>
      <point x="121" y="602"/>
      <point x="121" y="599"/>
      <point x="121" y="594" type="curve" smooth="yes"/>
      <point x="121" y="580"/>
      <point x="129" y="573"/>
      <point x="146" y="573" type="curve" smooth="yes"/>
      <point x="399" y="573" type="line" smooth="yes"/>
      <point x="408" y="573"/>
      <point x="421" y="574"/>
      <point x="438" y="575" type="curve"/>
      <point x="438" y="573" type="line"/>
      <point x="292" y="444"/>
      <point x="169" y="300"/>
      <point x="112" y="42" type="curve" smooth="yes"/>
      <point x="109" y="29" type="line" smooth="yes"/>
      <point x="108" y="27"/>
      <point x="108" y="24"/>
      <point x="108" y="19" type="curve" smooth="yes"/>
      <point x="108" y="4"/>
      <point x="117" y="-3"/>
      <point x="134" y="-3" type="curve" smooth="yes"/>
    </contour>
  </outline>
</glyph>
<glyph name="eight" format="1">
  <advance width="586"/>
  <unicode hex="0038"/>
  <outline>
    <contour>
      <point x="437" y="-17"/>
      <point x="533" y="107"/>
      <point x="533" y="216" type="curve" smooth="yes"/>
      <point x="533" y="313"/>
      <point x="490" y="346"/>
      <point x="433" y="375" type="curve"/>
      <point x="433" y="377" type="line"/>
      <point x="496" y="394"/>
      <point x="589" y="454"/>
      <point x="589" y="548" type="curve" smooth="yes"/>
      <point x="589" y="643"/>
      <point x="532" y="711"/>
      <point x="378" y="711" type="curve" smooth="yes"/>
      <point x="233" y="711"/>
      <point x="125" y="617"/>
      <point x="125" y="500" type="curve" smooth="yes"/>
      <point x="125" y="427"/>
      <point x="172" y="394"/>
      <point x="211" y="377" type="curve"/>
      <point x="211" y="375" type="line"/>
      <point x="166" y="369"/>
      <point x="123" y="347"/>
      <point x="84" y="309" type="curve" smooth="yes"/>
      <point x="45" y="271"/>
      <point x="26" y="222"/>
      <point x="26" y="162" type="curve" smooth="yes"/>
      <point x="26" y="27"/>
      <point x="115" y="-17"/>
      <point x="257" y="-17" type="curve" smooth="yes"/>
    </contour>
    <contour>
      <point x="237" y="93"/>
      <point x="214" y="99"/>
      <point x="198" y="111" type="curve" smooth="yes"/>
      <point x="181" y="124"/>
      <point x="173" y="149"/>
      <point x="173" y="186" type="curve" smooth="yes"/>
      <point x="173" y="246"/>
      <point x="230" y="314"/>
      <point x="305" y="314" type="curve" smooth="yes"/>
      <point x="360" y="314"/>
      <point x="386" y="278"/>
      <point x="386" y="221" type="curve" smooth="yes"/>
      <point x="386" y="143"/>
      <point x="328" y="93"/>
      <point x="267" y="93" type="curve" smooth="yes"/>
    </contour>
    <contour>
      <point x="316" y="433"/>
      <point x="301" y="438"/>
      <point x="288" y="449" type="curve"/>
      <point x="275" y="458"/>
      <point x="268" y="477"/>
      <point x="268" y="505" type="curve" smooth="yes"/>
      <point x="268" y="565"/>
      <point x="317" y="602"/>
      <point x="368" y="602" type="curve" smooth="yes"/>
      <point x="419" y="602"/>
      <point x="447" y="575"/>
      <point x="447" y="534" type="curve" smooth="yes"/>
      <point x="447" y="484"/>
      <point x="411" y="433"/>
      <point x="333" y="433" type="curve" smooth="yes"/>
    </contour>
  </outline>
</glyph>
<glyph name="nine" format="1">
  <advance width="586"/>
  <unicode hex="0039"/>
  <outline>
    <contour>
      <point x="431" y="-17"/>
      <point x="574" y="185"/>
      <point x="574" y="455" type="curve" smooth="yes"/>
      <point x="574" y="630"/>
      <point x="515" y="711"/>
      <point x="370" y="711" type="curve" smooth="yes"/>
      <point x="287" y="711"/>
      <point x="218" y="684"/>
      <point x="165" y="631" type="curve"/>
      <point x="110" y="579"/>
      <point x="83" y="515"/>
      <point x="83" y="438" type="curve" smooth="yes"/>
      <point x="83" y="318"/>
      <point x="141" y="242"/>
      <point x="267" y="242" type="curve" smooth="yes"/>
      <point x="310" y="242"/>
      <point x="379" y="253"/>
      <point x="423" y="305" type="curve"/>
      <point x="425" y="305" type="line"/>
      <point x="391" y="161"/>
      <point x="310" y="93"/>
      <point x="229" y="93" type="curve" smooth="yes"/>
      <point x="188" y="93"/>
      <point x="156" y="101"/>
      <point x="123" y="122" type="curve"/>
      <point x="114" y="129"/>
      <point x="105" y="132"/>
      <point x="97" y="132" type="curve" smooth="yes"/>
      <point x="89" y="132"/>
      <point x="83" y="129"/>
      <point x="78" y="122" type="curve" smooth="yes"/>
      <point x="40" y="73" type="line" smooth="yes"/>
      <point x="36" y="68"/>
      <point x="34" y="63"/>
      <point x="34" y="58" type="curve" smooth="yes"/>
      <point x="34" y="49"/>
      <point x="39" y="41"/>
      <point x="50" y="32" type="curve" smooth="yes"/>
      <point x="94" y="-4"/>
      <point x="144" y="-17"/>
      <point x="225" y="-17" type="curve" smooth="yes"/>
    </contour>
    <contour>
      <point x="286" y="352"/>
      <point x="268" y="358"/>
      <point x="253" y="369" type="curve" smooth="yes"/>
      <point x="238" y="381"/>
      <point x="230" y="400"/>
      <point x="230" y="426" type="curve" smooth="yes"/>
      <point x="230" y="521"/>
      <point x="286" y="602"/>
      <point x="352" y="602" type="curve" smooth="yes"/>
      <point x="397" y="602"/>
      <point x="434" y="575"/>
      <point x="434" y="507" type="curve" smooth="yes"/>
      <point x="434" y="435"/>
      <point x="387" y="352"/>
      <point x="306" y="352" type="curve" smooth="yes"/>
    </contour>
  </outline>
</glyph>
<glyph name="less" format="1">
  <advance width="648"/>
  <unicode hex="003C"/>
  <outline>
    <contour>
      <point x="572" y="60"/>
      <point x="578" y="64"/>
      <point x="583" y="73" type="curve" smooth="yes"/>
      <point x="601" y="107" type="line" smooth="yes"/>
      <point x="603" y="112"/>
      <point x="604" y="117"/>
      <point x="604" y="120" type="curve" smooth="yes"/>
      <point x="604" y="128"/>
      <point x="598" y="136"/>
      <point x="586" y="143" type="curve" smooth="yes"/>
      <point x="179" y="359" type="line"/>
      <point x="586" y="575" type="line"/>
      <point x="598" y="580"/>
      <point x="604" y="588"/>
      <point x="604" y="598" type="curve" smooth="yes"/>
      <point x="604" y="602"/>
      <point x="603" y="606"/>
      <point x="601" y="610" type="curve" smooth="yes"/>
      <point x="583" y="645" type="line" smooth="yes"/>
      <point x="578" y="654"/>
      <point x="572" y="658"/>
      <point x="563" y="658" type="curve" smooth="yes"/>
      <point x="558" y="658"/>
      <point x="552" y="656"/>
      <point x="545" y="653" type="curve" smooth="yes"/>
      <point x="85" y="408" type="line" smooth="yes"/>
      <point x="72" y="401"/>
      <point x="66" y="392"/>
      <point x="66" y="381" type="curve" smooth="yes"/>
      <point x="66" y="336" type="line" smooth="yes"/>
      <point x="66" y="324"/>
      <point x="72" y="317"/>
      <point x="85" y="310" type="curve" smooth="yes"/>
      <point x="545" y="65" type="line" smooth="yes"/>
      <point x="552" y="62"/>
      <point x="558" y="60"/>
      <point x="563" y="60" type="curve" smooth="yes"/>
    </contour>
  </outline>
</glyph>
<glyph name="greater" format="1">
  <advance width="648"/>
  <unicode hex="003E"/>
  <outline>
    <contour>
      <point x="113" y="60"/>
      <point x="119" y="62"/>
      <point x="126" y="65" type="curve" smooth="yes"/>
      <point x="585" y="310" type="line" smooth="yes"/>
      <point x="597" y="317"/>
      <point x="605" y="324"/>
      <point x="605" y="336" type="curve" smooth="yes"/>
      <point x="605" y="381" type="line" smooth="yes"/>
      <point x="605" y="392"/>
      <point x="598" y="401"/>
      <point x="585" y="408" type="curve" smooth="yes"/>
      <point x="126" y="653" type="line" smooth="yes"/>
      <point x="119" y="656"/>
      <point x="113" y="658"/>
      <point x="108" y="658" type="curve" smooth="yes"/>
      <point x="99" y="658"/>
      <point x="93" y="654"/>
      <point x="88" y="645" type="curve" smooth="yes"/>
      <point x="70" y="610" type="line" smooth="yes"/>
      <point x="68" y="606"/>
      <point x="67" y="602"/>
      <point x="67" y="598" type="curve" smooth="yes"/>
      <point x="67" y="589"/>
      <point x="73" y="581"/>
      <point x="84" y="575" type="curve" smooth="yes"/>
      <point x="492" y="358" type="line"/>
      <point x="84" y="143" type="line"/>
      <point x="73" y="136"/>
      <point x="67" y="129"/>
      <point x="67" y="120" type="curve" smooth="yes"/>
      <point x="67" y="117"/>
      <point x="68" y="112"/>
      <point x="70" y="107" type="curve" smooth="yes"/>
      <point x="88" y="73" type="line" smooth="yes"/>
      <point x="93" y="64"/>
      <point x="99" y="60"/>
      <point x="108" y="60" type="curve" smooth="yes"/>
    </contour>
  </outline>
</glyph>
<glyph name="question" format="1">
  <advance width="540"/>
  <unicode hex="003F"/>
  <outline>
    <contour>
      <point x="286" y="202" type="line" smooth="yes"/>
      <point x="306" y="202"/>
      <point x="319" y="212"/>
      <point x="325" y="233" type="curve" smooth="yes"/>
      <point x="327" y="241" type="line" smooth="yes"/>
      <point x="337" y="285"/>
      <point x="378" y="333"/>
      <point x="449" y="385" type="curve" smooth="yes"/>
      <point x="520" y="437"/>
      <point x="555" y="497"/>
      <point x="555" y="565" type="curve" smooth="yes"/>
      <point x="555" y="676"/>
      <point x="465" y="717"/>
      <point x="344" y="717" type="curve" smooth="yes"/>
      <point x="237" y="717"/>
      <point x="166" y="668"/>
      <point x="120" y="618" type="curve" smooth="yes"/>
      <point x="113" y="611"/>
      <point x="110" y="604"/>
      <point x="110" y="597" type="curve" smooth="yes"/>
      <point x="110" y="588"/>
      <point x="115" y="578"/>
      <point x="126" y="568" type="curve" smooth="yes"/>
      <point x="168" y="530" type="line" smooth="yes"/>
      <point x="173" y="525"/>
      <point x="179" y="523"/>
      <point x="185" y="523" type="curve" smooth="yes"/>
      <point x="203" y="523"/>
      <point x="236" y="569"/>
      <point x="267" y="587" type="curve" smooth="yes"/>
      <point x="288" y="600"/>
      <point x="309" y="607"/>
      <point x="334" y="607" type="curve" smooth="yes"/>
      <point x="386" y="607"/>
      <point x="408" y="586"/>
      <point x="408" y="554" type="curve" smooth="yes"/>
      <point x="408" y="516"/>
      <point x="376" y="472"/>
      <point x="313" y="426" type="curve"/>
      <point x="251" y="379"/>
      <point x="206" y="322"/>
      <point x="191" y="248" type="curve" smooth="yes"/>
      <point x="188" y="233" type="line" smooth="yes"/>
      <point x="187" y="230"/>
      <point x="187" y="227"/>
      <point x="187" y="222" type="curve" smooth="yes"/>
      <point x="187" y="209"/>
      <point x="195" y="202"/>
      <point x="212" y="202" type="curve" smooth="yes"/>
    </contour>
    <contour>
      <point x="240" y="0" type="line" smooth="yes"/>
      <point x="263" y="0"/>
      <point x="276" y="12"/>
      <point x="282" y="37" type="curve" smooth="yes"/>
      <point x="297" y="102" type="line" smooth="yes"/>
      <point x="298" y="109"/>
      <point x="299" y="113"/>
      <point x="299" y="116" type="curve" smooth="yes"/>
      <point x="299" y="131"/>
      <point x="290" y="139"/>
      <point x="272" y="139" type="curve" smooth="yes"/>
      <point x="198" y="139" type="line" smooth="yes"/>
      <point x="174" y="139"/>
      <point x="161" y="127"/>
      <point x="155" y="102" type="curve" smooth="yes"/>
      <point x="140" y="37" type="line" smooth="yes"/>
      <point x="139" y="30"/>
      <point x="138" y="26"/>
      <point x="138" y="23" type="curve" smooth="yes"/>
      <point x="138" y="8"/>
      <point x="147" y="0"/>
      <point x="166" y="0" type="curve" smooth="yes"/>
    </contour>
  </outline>
</glyph>
<glyph name="at" format="1">
  <advance width="1013"/>
  <unicode hex="0040"/>
  <outline>
    <contour>
      <point x="585" y="-175"/>
      <point x="717" y="-162"/>
      <point x="824" y="-101" type="curve"/>
      <point x="833" y="-95"/>
      <point x="837" y="-89"/>
      <point x="837" y="-83" type="curve" smooth="yes"/>
      <point x="837" y="-78"/>
      <point x="835" y="-73"/>
      <point x="832" y="-68" type="curve" smooth="yes"/>
      <point x="801" y="-23" type="line" smooth="yes"/>
      <point x="799" y="-20"/>
      <point x="796" y="-18"/>
      <point x="791" y="-18" type="curve" smooth="yes"/>
      <point x="786" y="-18"/>
      <point x="780" y="-20"/>
      <point x="772" y="-24" type="curve" smooth="yes"/>
      <point x="678" y="-77"/>
      <point x="615" y="-86"/>
      <point x="518" y="-86" type="curve" smooth="yes"/>
      <point x="302" y="-86"/>
      <point x="146" y="66"/>
      <point x="146" y="278" type="curve" smooth="yes"/>
      <point x="146" y="484"/>
      <point x="303" y="644"/>
      <point x="519" y="644" type="curve" smooth="yes"/>
      <point x="732" y="644"/>
      <point x="866" y="527"/>
      <point x="866" y="323" type="curve" smooth="yes"/>
      <point x="866" y="197"/>
      <point x="798" y="137"/>
      <point x="708" y="137" type="curve" smooth="yes"/>
      <point x="687" y="137"/>
      <point x="678" y="146"/>
      <point x="678" y="166" type="curve" smooth="yes"/>
      <point x="678" y="177"/>
      <point x="680" y="190"/>
      <point x="684" y="206" type="curve" smooth="yes"/>
      <point x="743" y="466" type="line" smooth="yes"/>
      <point x="744" y="468"/>
      <point x="744" y="471"/>
      <point x="744" y="475" type="curve" smooth="yes"/>
      <point x="744" y="486"/>
      <point x="737" y="491"/>
      <point x="724" y="491" type="curve" smooth="yes"/>
      <point x="656" y="491" type="line" smooth="yes"/>
      <point x="639" y="491"/>
      <point x="630" y="483"/>
      <point x="627" y="468" type="curve" smooth="yes"/>
      <point x="620" y="438" type="line"/>
      <point x="618" y="438" type="line"/>
      <point x="602" y="485"/>
      <point x="571" y="509"/>
      <point x="525" y="509" type="curve" smooth="yes"/>
      <point x="387" y="509"/>
      <point x="275" y="380"/>
      <point x="275" y="238" type="curve" smooth="yes"/>
      <point x="275" y="100"/>
      <point x="351" y="49"/>
      <point x="426" y="49" type="curve" smooth="yes"/>
      <point x="501" y="49"/>
      <point x="539" y="80"/>
      <point x="580" y="132" type="curve"/>
      <point x="581" y="132" type="line"/>
      <point x="595" y="67"/>
      <point x="632" y="49"/>
      <point x="703" y="49" type="curve" smooth="yes"/>
      <point x="853" y="49"/>
      <point x="958" y="147"/>
      <point x="958" y="342" type="curve" smooth="yes"/>
      <point x="958" y="588"/>
      <point x="769" y="732"/>
      <point x="519" y="732" type="curve" smooth="yes"/>
      <point x="381" y="732"/>
      <point x="269" y="689"/>
      <point x="183" y="602" type="curve"/>
      <point x="98" y="513"/>
      <point x="55" y="404"/>
      <point x="55" y="275" type="curve" smooth="yes"/>
      <point x="55" y="17"/>
      <point x="254" y="-175"/>
      <point x="513" y="-175" type="curve" smooth="yes"/>
    </contour>
    <contour>
      <point x="416" y="137"/>
      <point x="394" y="167"/>
      <point x="394" y="211" type="curve" smooth="yes"/>
      <point x="394" y="357"/>
      <point x="469" y="421"/>
      <point x="527" y="421" type="curve" smooth="yes"/>
      <point x="562" y="421"/>
      <point x="588" y="388"/>
      <point x="588" y="344" type="curve" smooth="yes"/>
      <point x="588" y="282"/>
      <point x="579" y="233"/>
      <point x="537" y="184" type="curve" smooth="yes"/>
      <point x="510" y="153"/>
      <point x="482" y="137"/>
      <point x="451" y="137" type="curve" smooth="yes"/>
    </contour>
  </outline>
</glyph>
<glyph name="A" format="1">
  <advance width="681"/>
  <unicode hex="0041"/>
  <outline>
    <contour>
      <point x="73" y="0" type="line" smooth="yes"/>
      <point x="95" y="0"/>
      <point x="111" y="11"/>
      <point x="125" y="34" type="curve" smooth="yes"/>
      <point x="203" y="165" type="line"/>
      <point x="451" y="165" type="line"/>
      <point x="473" y="34" type="line" smooth="yes"/>
      <point x="477" y="11"/>
      <point x="487" y="0"/>
      <point x="510" y="0" type="curve" smooth="yes"/>
      <point x="578" y="0" type="line" smooth="yes"/>
      <point x="598" y="0"/>
      <point x="608" y="9"/>
      <point x="608" y="25" type="curve" smooth="yes"/>
      <point x="608" y="27"/>
      <point x="608" y="29"/>
      <point x="608" y="32" type="curve" smooth="yes"/>
      <point x="502" y="661" type="line" smooth="yes"/>
      <point x="498" y="687"/>
      <point x="486" y="700"/>
      <point x="465" y="700" type="curve" smooth="yes"/>
      <point x="396" y="700" type="line" smooth="yes"/>
      <point x="376" y="700"/>
      <point x="357" y="687"/>
      <point x="342" y="661" type="curve" smooth="yes"/>
      <point x="-31" y="32" type="line" smooth="yes"/>
      <point x="-35" y="25"/>
      <point x="-37" y="19"/>
      <point x="-37" y="14" type="curve" smooth="yes"/>
      <point x="-37" y="5"/>
      <point x="-30" y="0"/>
      <point x="-15" y="0" type="curve" smooth="yes"/>
    </contour>
    <contour>
      <point x="367" y="441" type="line" smooth="yes"/>
      <point x="389" y="477"/>
      <point x="389" y="476"/>
      <point x="401" y="518" type="curve"/>
      <point x="403" y="518" type="line"/>
      <point x="401" y="502"/>
      <point x="400" y="489"/>
      <point x="400" y="479" type="curve" smooth="yes"/>
      <point x="399" y="468"/>
      <point x="401" y="455"/>
      <point x="404" y="441" type="curve" smooth="yes"/>
      <point x="431" y="286" type="line"/>
      <point x="274" y="286" type="line"/>
    </contour>
    <contour>
      <point x="594" y="10" type="move" name="ogonek"/>
    </contour>
    <contour>
      <point x="282" y="0" type="move" name="bottom"/>
    </contour>
    <contour>
      <point x="433" y="700" type="move" name="top"/>
    </contour>
  </outline>
</glyph>
<glyph name="B" format="1">
  <advance width="673"/>
  <unicode hex="0042"/>
  <outline>
    <contour>
      <point x="259" y="0" type="line" smooth="yes"/>
      <point x="487" y="0"/>
      <point x="611" y="90"/>
      <point x="611" y="207" type="curve" smooth="yes"/>
      <point x="611" y="307"/>
      <point x="540" y="357"/>
      <point x="463" y="365" type="curve"/>
      <point x="463" y="366" type="line"/>
      <point x="542" y="374"/>
      <point x="644" y="425"/>
      <point x="644" y="525" type="curve" smooth="yes"/>
      <point x="644" y="627"/>
      <point x="574" y="700"/>
      <point x="376" y="700" type="curve" smooth="yes"/>
      <point x="220" y="700" type="line" smooth="yes"/>
      <point x="193" y="700"/>
      <point x="178" y="688"/>
      <point x="173" y="664" type="curve" smooth="yes"/>
      <point x="28" y="37" type="line"/>
      <point x="26" y="25" type="line"/>
      <point x="26" y="8"/>
      <point x="37" y="0"/>
      <point x="59" y="0" type="curve" smooth="yes"/>
    </contour>
    <contour>
      <point x="232" y="302" type="line"/>
      <point x="293" y="302" type="line" smooth="yes"/>
      <point x="417" y="302"/>
      <point x="459" y="279"/>
      <point x="459" y="221" type="curve" smooth="yes"/>
      <point x="459" y="149"/>
      <point x="428" y="119"/>
      <point x="271" y="119" type="curve" smooth="yes"/>
      <point x="189" y="119" type="line"/>
    </contour>
    <contour>
      <point x="296" y="581" type="line"/>
      <point x="351" y="581" type="line" smooth="yes"/>
      <point x="460" y="581"/>
      <point x="499" y="567"/>
      <point x="499" y="516" type="curve" smooth="yes"/>
      <point x="499" y="459"/>
      <point x="430" y="417"/>
      <point x="332" y="417" type="curve" smooth="yes"/>
      <point x="258" y="417" type="line"/>
    </contour>
    <contour>
      <point x="439" y="700" type="move" name="top"/>
    </contour>
    <contour>
      <point x="278" y="0" type="move" name="bottom"/>
    </contour>
  </outline>
</glyph>
<glyph name="C" format="1">
  <advance width="686"/>
  <unicode hex="0043"/>
  <outline>
    <contour>
      <point x="486" y="-17"/>
      <point x="582" y="34"/>
      <point x="632" y="108" type="curve" smooth="yes"/>
      <point x="638" y="117"/>
      <point x="641" y="125"/>
      <point x="641" y="132" type="curve" smooth="yes"/>
      <point x="641" y="142"/>
      <point x="635" y="150"/>
      <point x="624" y="156" type="curve" smooth="yes"/>
      <point x="562" y="190" type="line" smooth="yes"/>
      <point x="558" y="192"/>
      <point x="554" y="193"/>
      <point x="549" y="193" type="curve" smooth="yes"/>
      <point x="538" y="193"/>
      <point x="525" y="184"/>
      <point x="513" y="167" type="curve" smooth="yes"/>
      <point x="483" y="126"/>
      <point x="435" y="99"/>
      <point x="370" y="99" type="curve" smooth="yes"/>
      <point x="243" y="99"/>
      <point x="201" y="173"/>
      <point x="201" y="269" type="curve" smooth="yes"/>
      <point x="201" y="460"/>
      <point x="288" y="602"/>
      <point x="425" y="602" type="curve" smooth="yes"/>
      <point x="470" y="602"/>
      <point x="527" y="578"/>
      <point x="558" y="537" type="curve" smooth="yes"/>
      <point x="569" y="522"/>
      <point x="579" y="515"/>
      <point x="590" y="515" type="curve" smooth="yes"/>
      <point x="596" y="515"/>
      <point x="601" y="517"/>
      <point x="605" y="520" type="curve" smooth="yes"/>
      <point x="666" y="560" type="line" smooth="yes"/>
      <point x="677" y="567"/>
      <point x="682" y="575"/>
      <point x="682" y="586" type="curve" smooth="yes"/>
      <point x="682" y="653"/>
      <point x="556" y="717"/>
      <point x="436" y="717" type="curve" smooth="yes"/>
      <point x="310" y="717"/>
      <point x="214" y="674"/>
      <point x="147" y="587" type="curve"/>
      <point x="82" y="500"/>
      <point x="49" y="400"/>
      <point x="49" y="287" type="curve" smooth="yes"/>
      <point x="49" y="80"/>
      <point x="166" y="-17"/>
      <point x="359" y="-17" type="curve" smooth="yes"/>
    </contour>
    <contour>
      <point x="445" y="700" type="move" name="top"/>
    </contour>
    <contour>
      <point x="344" y="0" type="move" name="bottom"/>
    </contour>
  </outline>
</glyph>
<glyph name="D" format="1">
  <advance width="685"/>
  <unicode hex="0044"/>
  <outline>
    <contour>
      <point x="239" y="0" type="line" smooth="yes"/>
      <point x="545" y="0"/>
      <point x="688" y="174"/>
      <point x="688" y="406" type="curve" smooth="yes"/>
      <point x="688" y="581"/>
      <point x="599" y="700"/>
      <point x="361" y="700" type="curve" smooth="yes"/>
      <point x="215" y="700" type="line" smooth="yes"/>
      <point x="191" y="700"/>
      <point x="178" y="688"/>
      <point x="173" y="664" type="curve" smooth="yes"/>
      <point x="28" y="37" type="line" smooth="yes"/>
      <point x="27" y="30"/>
      <point x="26" y="26"/>
      <point x="26" y="23" type="curve" smooth="yes"/>
      <point x="26" y="8"/>
      <point x="35" y="0"/>
      <point x="54" y="0" type="curve" smooth="yes"/>
    </contour>
    <contour>
      <point x="296" y="580" type="line"/>
      <point x="334" y="580" type="line" smooth="yes"/>
      <point x="513" y="580"/>
      <point x="536" y="510"/>
      <point x="536" y="416" type="curve" smooth="yes"/>
      <point x="536" y="232"/>
      <point x="454" y="121"/>
      <point x="257" y="121" type="curve" smooth="yes"/>
      <point x="190" y="121" type="line"/>
    </contour>
    <contour>
      <point x="365" y="350" type="move" name="center"/>
    </contour>
    <contour>
      <point x="284" y="0" type="move" name="bottom"/>
    </contour>
    <contour>
      <point x="445" y="700" type="move" name="top"/>
    </contour>
  </outline>
</glyph>
<glyph name="E" format="1">
  <advance width="625"/>
  <unicode hex="0045"/>
  <outline>
    <contour>
      <point x="488" y="0" type="line" smooth="yes"/>
      <point x="512" y="0"/>
      <point x="527" y="11"/>
      <point x="532" y="32" type="curve" smooth="yes"/>
      <point x="545" y="89" type="line" smooth="yes"/>
      <point x="546" y="92"/>
      <point x="546" y="95"/>
      <point x="546" y="99" type="curve" smooth="yes"/>
      <point x="546" y="114"/>
      <point x="536" y="121"/>
      <point x="516" y="121" type="curve" smooth="yes"/>
      <point x="190" y="121" type="line"/>
      <point x="232" y="303" type="line"/>
      <point x="517" y="303" type="line" smooth="yes"/>
      <point x="542" y="303"/>
      <point x="556" y="313"/>
      <point x="561" y="334" type="curve" smooth="yes"/>
      <point x="574" y="392" type="line" smooth="yes"/>
      <point x="575" y="395"/>
      <point x="575" y="398"/>
      <point x="575" y="402" type="curve" smooth="yes"/>
      <point x="575" y="417"/>
      <point x="565" y="424"/>
      <point x="544" y="424" type="curve" smooth="yes"/>
      <point x="260" y="424" type="line"/>
      <point x="296" y="579" type="line"/>
      <point x="606" y="579" type="line" smooth="yes"/>
      <point x="632" y="579"/>
      <point x="645" y="590"/>
      <point x="650" y="611" type="curve" smooth="yes"/>
      <point x="664" y="668" type="line" smooth="yes"/>
      <point x="665" y="670"/>
      <point x="665" y="673"/>
      <point x="665" y="677" type="curve" smooth="yes"/>
      <point x="665" y="692"/>
      <point x="655" y="700"/>
      <point x="634" y="700" type="curve" smooth="yes"/>
      <point x="215" y="700" type="line" smooth="yes"/>
      <point x="191" y="700"/>
      <point x="178" y="688"/>
      <point x="173" y="664" type="curve" smooth="yes"/>
      <point x="28" y="37" type="line" smooth="yes"/>
      <point x="27" y="30"/>
      <point x="26" y="26"/>
      <point x="26" y="23" type="curve" smooth="yes"/>
      <point x="26" y="8"/>
      <point x="35" y="0"/>
      <point x="54" y="0" type="curve" smooth="yes"/>
    </contour>
    <contour>
      <point x="503" y="10" type="move" name="ogonek"/>
    </contour>
    <contour>
      <point x="415" y="700" type="move" name="top"/>
    </contour>
    <contour>
      <point x="122" y="700" type="move" name="topleft"/>
    </contour>
    <contour>
      <point x="254" y="0" type="move" name="bottom"/>
    </contour>
  </outline>
</glyph>
<glyph name="F" format="1">
  <advance width="574"/>
  <unicode hex="0046"/>
  <outline>
    <contour>
      <point x="128" y="0" type="line" smooth="yes"/>
      <point x="152" y="0"/>
      <point x="164" y="12"/>
      <point x="170" y="37" type="curve" smooth="yes"/>
      <point x="229" y="288" type="line"/>
      <point x="466" y="288" type="line" smooth="yes"/>
      <point x="490" y="288"/>
      <point x="505" y="299"/>
      <point x="510" y="320" type="curve" smooth="yes"/>
      <point x="523" y="377" type="line" smooth="yes"/>
      <point x="524" y="380"/>
      <point x="524" y="383"/>
      <point x="524" y="387" type="curve" smooth="yes"/>
      <point x="524" y="402"/>
      <point x="514" y="409"/>
      <point x="494" y="409" type="curve" smooth="yes"/>
      <point x="256" y="409" type="line"/>
      <point x="296" y="579" type="line"/>
      <point x="574" y="579" type="line" smooth="yes"/>
      <point x="598" y="579"/>
      <point x="613" y="590"/>
      <point x="618" y="611" type="curve" smooth="yes"/>
      <point x="631" y="668" type="line" smooth="yes"/>
      <point x="632" y="671"/>
      <point x="632" y="674"/>
      <point x="632" y="678" type="curve" smooth="yes"/>
      <point x="632" y="693"/>
      <point x="622" y="700"/>
      <point x="602" y="700" type="curve" smooth="yes"/>
      <point x="215" y="700" type="line" smooth="yes"/>
      <point x="191" y="700"/>
      <point x="178" y="688"/>
      <point x="173" y="664" type="curve" smooth="yes"/>
      <point x="28" y="37" type="line" smooth="yes"/>
      <point x="27" y="30"/>
      <point x="26" y="26"/>
      <point x="26" y="23" type="curve" smooth="yes"/>
      <point x="26" y="8"/>
      <point x="35" y="0"/>
      <point x="54" y="0" type="curve" smooth="yes"/>
    </contour>
    <contour>
      <point x="419" y="700" type="move" name="top"/>
    </contour>
    <contour>
      <point x="228" y="0" type="move" name="bottom"/>
    </contour>
  </outline>
</glyph>
<glyph name="G" format="1">
  <advance width="737"/>
  <unicode hex="0047"/>
  <outline>
    <contour>
      <point x="460" y="-17"/>
      <point x="566" y="20"/>
      <point x="649" y="67" type="curve"/>
      <point x="708" y="322" type="line" smooth="yes"/>
      <point x="709" y="325"/>
      <point x="709" y="328"/>
      <point x="709" y="332" type="curve" smooth="yes"/>
      <point x="709" y="347"/>
      <point x="699" y="354"/>
      <point x="679" y="354" type="curve" smooth="yes"/>
      <point x="467" y="354" type="line" smooth="yes"/>
      <point x="443" y="354"/>
      <point x="428" y="343"/>
      <point x="423" y="322" type="curve" smooth="yes"/>
      <point x="410" y="264" type="line" smooth="yes"/>
      <point x="409" y="261"/>
      <point x="409" y="258"/>
      <point x="409" y="254" type="curve" smooth="yes"/>
      <point x="409" y="239"/>
      <point x="419" y="232"/>
      <point x="439" y="232" type="curve" smooth="yes"/>
      <point x="545" y="232" type="line"/>
      <point x="526" y="152" type="line"/>
      <point x="479" y="117"/>
      <point x="429" y="99"/>
      <point x="374" y="99" type="curve" smooth="yes"/>
      <point x="234" y="99"/>
      <point x="201" y="175"/>
      <point x="201" y="269" type="curve" smooth="yes"/>
      <point x="201" y="479"/>
      <point x="284" y="602"/>
      <point x="430" y="602" type="curve" smooth="yes"/>
      <point x="475" y="602"/>
      <point x="534" y="584"/>
      <point x="568" y="542" type="curve" smooth="yes"/>
      <point x="579" y="527"/>
      <point x="589" y="519"/>
      <point x="601" y="519" type="curve" smooth="yes"/>
      <point x="605" y="519"/>
      <point x="610" y="521"/>
      <point x="615" y="524" type="curve" smooth="yes"/>
      <point x="675" y="565" type="line" smooth="yes"/>
      <point x="686" y="572"/>
      <point x="692" y="581"/>
      <point x="692" y="592" type="curve" smooth="yes"/>
      <point x="692" y="658"/>
      <point x="564" y="717"/>
      <point x="440" y="717" type="curve" smooth="yes"/>
      <point x="310" y="717"/>
      <point x="212" y="675"/>
      <point x="146" y="590" type="curve" smooth="yes"/>
      <point x="81" y="505"/>
      <point x="49" y="404"/>
      <point x="49" y="287" type="curve" smooth="yes"/>
      <point x="49" y="78"/>
      <point x="172" y="-17"/>
      <point x="364" y="-17" type="curve" smooth="yes"/>
    </contour>
    <contour>
      <point x="471" y="700" type="move" name="top"/>
    </contour>
    <contour>
      <point x="310" y="0" type="move" name="bottom"/>
    </contour>
  </outline>
</glyph>
<glyph name="H" format="1">
  <advance width="704"/>
  <unicode hex="0048"/>
  <outline>
    <contour>
      <point x="128" y="0" type="line" smooth="yes"/>
      <point x="151" y="0"/>
      <point x="164" y="12"/>
      <point x="170" y="37" type="curve" smooth="yes"/>
      <point x="232" y="304" type="line"/>
      <point x="495" y="304" type="line"/>
      <point x="433" y="37" type="line" smooth="yes"/>
      <point x="432" y="34"/>
      <point x="432" y="29"/>
      <point x="432" y="24" type="curve" smooth="yes"/>
      <point x="432" y="8"/>
      <point x="441" y="0"/>
      <point x="459" y="0" type="curve" smooth="yes"/>
      <point x="533" y="0" type="line" smooth="yes"/>
      <point x="556" y="0"/>
      <point x="570" y="12"/>
      <point x="576" y="37" type="curve" smooth="yes"/>
      <point x="721" y="664" type="line" smooth="yes"/>
      <point x="722" y="667"/>
      <point x="722" y="671"/>
      <point x="722" y="676" type="curve" smooth="yes"/>
      <point x="722" y="692"/>
      <point x="713" y="700"/>
      <point x="695" y="700" type="curve" smooth="yes"/>
      <point x="621" y="700" type="line" smooth="yes"/>
      <point x="597" y="700"/>
      <point x="583" y="688"/>
      <point x="578" y="664" type="curve" smooth="yes"/>
      <point x="523" y="425" type="line"/>
      <point x="260" y="425" type="line"/>
      <point x="315" y="664" type="line" smooth="yes"/>
      <point x="316" y="671"/>
      <point x="317" y="675"/>
      <point x="317" y="678" type="curve" smooth="yes"/>
      <point x="317" y="693"/>
      <point x="308" y="700"/>
      <point x="290" y="700" type="curve" smooth="yes"/>
      <point x="215" y="700" type="line" smooth="yes"/>
      <point x="191" y="700"/>
      <point x="178" y="688"/>
      <point x="173" y="664" type="curve" smooth="yes"/>
      <point x="28" y="37" type="line" smooth="yes"/>
      <point x="27" y="30"/>
      <point x="26" y="26"/>
      <point x="26" y="23" type="curve" smooth="yes"/>
      <point x="26" y="8"/>
      <point x="35" y="0"/>
      <point x="54" y="0" type="curve" smooth="yes"/>
    </contour>
    <contour>
      <point x="293" y="0" type="move" name="bottom"/>
    </contour>
    <contour>
      <point x="454" y="700" type="move" name="top"/>
    </contour>
    <contour>
      <point x="122" y="700" type="move" name="topleft"/>
    </contour>
    <contour>
      <point x="374" y="350" type="move" name="center"/>
    </contour>
  </outline>
</glyph>
<glyph name="I" format="1">
  <advance width="299"/>
  <unicode hex="0049"/>
  <outline>
    <contour>
      <point x="128" y="0" type="line" smooth="yes"/>
      <point x="151" y="0"/>
      <point x="164" y="12"/>
      <point x="170" y="37" type="curve" smooth="yes"/>
      <point x="315" y="664" type="line" smooth="yes"/>
      <point x="316" y="671"/>
      <point x="317" y="675"/>
      <point x="317" y="678" type="curve" smooth="yes"/>
      <point x="317" y="693"/>
      <point x="308" y="700"/>
      <point x="290" y="700" type="curve" smooth="yes"/>
      <point x="215" y="700" type="line" smooth="yes"/>
      <point x="191" y="700"/>
      <point x="178" y="688"/>
      <point x="173" y="664" type="curve" smooth="yes"/>
      <point x="28" y="37" type="line" smooth="yes"/>
      <point x="27" y="30"/>
      <point x="26" y="26"/>
      <point x="26" y="23" type="curve" smooth="yes"/>
      <point x="26" y="8"/>
      <point x="35" y="0"/>
      <point x="54" y="0" type="curve" smooth="yes"/>
    </contour>
    <contour>
      <point x="210" y="10" type="move" name="ogonek"/>
    </contour>
    <contour>
      <point x="252" y="700" type="move" name="top"/>
    </contour>
    <contour>
      <point x="122" y="700" type="move" name="topleft"/>
    </contour>
    <contour>
      <point x="91" y="0" type="move" name="bottom"/>
    </contour>
  </outline>
</glyph>
<glyph name="J" format="1">
  <advance width="462"/>
  <unicode hex="004A"/>
  <outline>
    <contour>
      <point x="242" y="-17"/>
      <point x="332" y="25"/>
      <point x="388" y="269" type="curve" smooth="yes"/>
      <point x="479" y="664" type="line" smooth="yes"/>
      <point x="480" y="667"/>
      <point x="480" y="671"/>
      <point x="480" y="676" type="curve" smooth="yes"/>
      <point x="480" y="692"/>
      <point x="471" y="700"/>
      <point x="453" y="700" type="curve" smooth="yes"/>
      <point x="379" y="700" type="line" smooth="yes"/>
      <point x="356" y="700"/>
      <point x="341" y="688"/>
      <point x="336" y="664" type="curve" smooth="yes"/>
      <point x="243" y="259" type="line" smooth="yes"/>
      <point x="216" y="142"/>
      <point x="184" y="99"/>
      <point x="111" y="99" type="curve" smooth="yes"/>
      <point x="75" y="99"/>
      <point x="38" y="128"/>
      <point x="20" y="128" type="curve" smooth="yes"/>
      <point x="11" y="128"/>
      <point x="5" y="123"/>
      <point x="1" y="113" type="curve" smooth="yes"/>
      <point x="-23" y="47" type="line" smooth="yes"/>
      <point x="-25" y="42"/>
      <point x="-26" y="38"/>
      <point x="-26" y="33" type="curve" smooth="yes"/>
      <point x="-26" y="-1"/>
      <point x="52" y="-17"/>
      <point x="101" y="-17" type="curve" smooth="yes"/>
    </contour>
    <contour>
      <point x="413" y="700" type="move" name="top"/>
    </contour>
    <contour>
      <point x="172" y="0" type="move" name="bottom"/>
    </contour>
  </outline>
</glyph>
<glyph name="K" format="1">
  <advance width="665"/>
  <unicode hex="004B"/>
  <outline>
    <contour>
      <point x="128" y="0" type="line" smooth="yes"/>
      <point x="152" y="0"/>
      <point x="164" y="12"/>
      <point x="170" y="37" type="curve" smooth="yes"/>
      <point x="212" y="216" type="line"/>
      <point x="329" y="318" type="line"/>
      <point x="446" y="29" type="line" smooth="yes"/>
      <point x="454" y="10"/>
      <point x="466" y="0"/>
      <point x="483" y="0" type="curve" smooth="yes"/>
      <point x="559" y="0" type="line" smooth="yes"/>
      <point x="581" y="0"/>
      <point x="592" y="7"/>
      <point x="592" y="22" type="curve" smooth="yes"/>
      <point x="592" y="27"/>
      <point x="590" y="33"/>
      <point x="587" y="42" type="curve" smooth="yes"/>
      <point x="437" y="413" type="line"/>
      <point x="716" y="658" type="line" smooth="yes"/>
      <point x="731" y="671"/>
      <point x="738" y="681"/>
      <point x="738" y="688" type="curve" smooth="yes"/>
      <point x="738" y="696"/>
      <point x="728" y="700"/>
      <point x="708" y="700" type="curve" smooth="yes"/>
      <point x="590" y="700" type="line"/>
      <point x="579" y="699"/>
      <point x="561" y="691"/>
      <point x="539" y="671" type="curve" smooth="yes"/>
      <point x="259" y="426" type="line"/>
      <point x="255" y="426" type="line"/>
      <point x="264" y="449"/>
      <point x="270" y="469"/>
      <point x="274" y="485" type="curve" smooth="yes"/>
      <point x="315" y="664" type="line" smooth="yes"/>
      <point x="316" y="671"/>
      <point x="317" y="675"/>
      <point x="317" y="678" type="curve" smooth="yes"/>
      <point x="317" y="693"/>
      <point x="308" y="700"/>
      <point x="290" y="700" type="curve" smooth="yes"/>
      <point x="215" y="700" type="line" smooth="yes"/>
      <point x="191" y="700"/>
      <point x="178" y="688"/>
      <point x="173" y="664" type="curve" smooth="yes"/>
      <point x="28" y="37" type="line" smooth="yes"/>
      <point x="27" y="30"/>
      <point x="26" y="26"/>
      <point x="26" y="23" type="curve" smooth="yes"/>
      <point x="26" y="8"/>
      <point x="35" y="0"/>
      <point x="54" y="0" type="curve" smooth="yes"/>
    </contour>
    <contour>
      <point x="435" y="700" type="move" name="top"/>
    </contour>
    <contour>
      <point x="274" y="0" type="move" name="bottom"/>
    </contour>
  </outline>
</glyph>
<glyph name="L" format="1">
  <advance width="567"/>
  <unicode hex="004C"/>
  <outline>
    <contour>
      <point x="447" y="0" type="line" smooth="yes"/>
      <point x="471" y="0"/>
      <point x="486" y="11"/>
      <point x="491" y="32" type="curve" smooth="yes"/>
      <point x="504" y="89" type="line" smooth="yes"/>
      <point x="505" y="92"/>
      <point x="505" y="95"/>
      <point x="505" y="99" type="curve" smooth="yes"/>
      <point x="505" y="114"/>
      <point x="495" y="121"/>
      <point x="475" y="121" type="curve" smooth="yes"/>
      <point x="190" y="121" type="line"/>
      <point x="315" y="664" type="line"/>
      <point x="316" y="672"/>
      <point x="317" y="677"/>
      <point x="317" y="679" type="curve" smooth="yes"/>
      <point x="317" y="693"/>
      <point x="309" y="700"/>
      <point x="294" y="700" type="curve" smooth="yes"/>
      <point x="215" y="700" type="line" smooth="yes"/>
      <point x="191" y="700"/>
      <point x="178" y="688"/>
      <point x="173" y="664" type="curve" smooth="yes"/>
      <point x="28" y="37" type="line" smooth="yes"/>
      <point x="27" y="30"/>
      <point x="26" y="26"/>
      <point x="26" y="23" type="curve" smooth="yes"/>
      <point x="26" y="8"/>
      <point x="35" y="0"/>
      <point x="54" y="0" type="curve" smooth="yes"/>
    </contour>
    <contour>
      <point x="95" y="0" type="move" name="bottom"/>
    </contour>
    <contour>
      <point x="257" y="700" type="move" name="top"/>
    </contour>
    <contour>
      <point x="339" y="700" type="move" name="topright"/>
    </contour>
    <contour>
      <point x="306" y="350" type="move" name="center"/>
    </contour>
  </outline>
</glyph>
<glyph name="M" format="1">
  <advance width="893"/>
  <unicode hex="004D"/>
  <outline>
    <contour>
      <point x="128" y="0" type="line" smooth="yes"/>
      <point x="152" y="0"/>
      <point x="164" y="12"/>
      <point x="170" y="37" type="curve" smooth="yes"/>
      <point x="264" y="440" type="line" smooth="yes"/>
      <point x="271" y="469"/>
      <point x="273" y="488"/>
      <point x="275" y="499" type="curve"/>
      <point x="278" y="499" type="line"/>
      <point x="313" y="40" type="line" smooth="yes"/>
      <point x="315" y="13"/>
      <point x="326" y="0"/>
      <point x="346" y="0" type="curve" smooth="yes"/>
      <point x="429" y="0" type="line" smooth="yes"/>
      <point x="449" y="0"/>
      <point x="465" y="13"/>
      <point x="480" y="40" type="curve" smooth="yes"/>
      <point x="728" y="499" type="line"/>
      <point x="731" y="499" type="line"/>
      <point x="723" y="472"/>
      <point x="718" y="453"/>
      <point x="715" y="440" type="curve" smooth="yes"/>
      <point x="622" y="37" type="line" smooth="yes"/>
      <point x="621" y="30"/>
      <point x="620" y="26"/>
      <point x="620" y="23" type="curve" smooth="yes"/>
      <point x="620" y="8"/>
      <point x="629" y="0"/>
      <point x="647" y="0" type="curve" smooth="yes"/>
      <point x="722" y="0" type="line" smooth="yes"/>
      <point x="745" y="0"/>
      <point x="758" y="12"/>
      <point x="764" y="37" type="curve" smooth="yes"/>
      <point x="909" y="664" type="line" smooth="yes"/>
      <point x="910" y="671"/>
      <point x="911" y="675"/>
      <point x="911" y="677" type="curve" smooth="yes"/>
      <point x="911" y="692"/>
      <point x="902" y="700"/>
      <point x="883" y="700" type="curve" smooth="yes"/>
      <point x="735" y="700" type="line" smooth="yes"/>
      <point x="716" y="700"/>
      <point x="700" y="687"/>
      <point x="686" y="661" type="curve" smooth="yes"/>
      <point x="454" y="233" type="line"/>
      <point x="431" y="187" type="line"/>
      <point x="427" y="176"/>
      <point x="421" y="164"/>
      <point x="416" y="145" type="curve"/>
      <point x="413" y="145" type="line"/>
      <point x="417" y="186" type="line"/>
      <point x="417" y="204"/>
      <point x="416" y="220"/>
      <point x="415" y="233" type="curve" smooth="yes"/>
      <point x="382" y="661" type="line" smooth="yes"/>
      <point x="380" y="687"/>
      <point x="369" y="700"/>
      <point x="350" y="700" type="curve" smooth="yes"/>
      <point x="215" y="700" type="line" smooth="yes"/>
      <point x="191" y="700"/>
      <point x="178" y="688"/>
      <point x="173" y="664" type="curve" smooth="yes"/>
      <point x="28" y="37" type="line" smooth="yes"/>
      <point x="27" y="30"/>
      <point x="26" y="26"/>
      <point x="26" y="23" type="curve" smooth="yes"/>
      <point x="26" y="8"/>
      <point x="35" y="0"/>
      <point x="54" y="0" type="curve" smooth="yes"/>
    </contour>
    <contour>
      <point x="549" y="700" type="move" name="top"/>
    </contour>
    <contour>
      <point x="388" y="0" type="move" name="bottom"/>
    </contour>
  </outline>
</glyph>
<glyph name="N" format="1">
  <advance width="719"/>
  <unicode hex="004E"/>
  <outline>
    <contour>
      <point x="128" y="0" type="line" smooth="yes"/>
      <point x="151" y="0"/>
      <point x="164" y="12"/>
      <point x="170" y="37" type="curve" smooth="yes"/>
      <point x="253" y="394" type="line" smooth="yes"/>
      <point x="258" y="417"/>
      <point x="261" y="437"/>
      <point x="264" y="452" type="curve"/>
      <point x="268" y="452" type="line"/>
      <point x="431" y="34" type="line" smooth="yes"/>
      <point x="440" y="11"/>
      <point x="458" y="0"/>
      <point x="487" y="0" type="curve" smooth="yes"/>
      <point x="548" y="0" type="line" smooth="yes"/>
      <point x="571" y="0"/>
      <point x="584" y="12"/>
      <point x="590" y="37" type="curve" smooth="yes"/>
      <point x="735" y="664" type="line" smooth="yes"/>
      <point x="736" y="671"/>
      <point x="737" y="675"/>
      <point x="737" y="677" type="curve" smooth="yes"/>
      <point x="737" y="692"/>
      <point x="728" y="700"/>
      <point x="709" y="700" type="curve" smooth="yes"/>
      <point x="635" y="700" type="line" smooth="yes"/>
      <point x="611" y="700"/>
      <point x="598" y="688"/>
      <point x="593" y="664" type="curve" smooth="yes"/>
      <point x="512" y="314" type="line" smooth="yes"/>
      <point x="507" y="291"/>
      <point x="504" y="271"/>
      <point x="501" y="256" type="curve"/>
      <point x="498" y="256" type="line"/>
      <point x="337" y="666" type="line" smooth="yes"/>
      <point x="328" y="689"/>
      <point x="310" y="700"/>
      <point x="281" y="700" type="curve" smooth="yes"/>
      <point x="215" y="700" type="line" smooth="yes"/>
      <point x="191" y="700"/>
      <point x="178" y="688"/>
      <point x="173" y="664" type="curve" smooth="yes"/>
      <point x="28" y="37" type="line" smooth="yes"/>
      <point x="27" y="30"/>
      <point x="26" y="26"/>
      <point x="26" y="23" type="curve" smooth="yes"/>
      <point x="26" y="8"/>
      <point x="35" y="0"/>
      <point x="54" y="0" type="curve" smooth="yes"/>
    </contour>
    <contour>
      <point x="462" y="700" type="move" name="top"/>
    </contour>
    <contour>
      <point x="301" y="0" type="move" name="bottom"/>
    </contour>
  </outline>
</glyph>
<glyph name="O" format="1">
  <advance width="748"/>
  <unicode hex="004F"/>
  <outline>
    <contour>
      <point x="589" y="-17"/>
      <point x="741" y="173"/>
      <point x="741" y="414" type="curve" smooth="yes"/>
      <point x="741" y="618"/>
      <point x="622" y="717"/>
      <point x="430" y="717" type="curve" smooth="yes"/>
      <point x="316" y="717"/>
      <point x="224" y="675"/>
      <point x="155" y="592" type="curve" smooth="yes"/>
      <point x="86" y="510"/>
      <point x="51" y="408"/>
      <point x="51" y="287" type="curve" smooth="yes"/>
      <point x="51" y="82"/>
      <point x="170" y="-17"/>
      <point x="362" y="-17" type="curve" smooth="yes"/>
    </contour>
    <contour>
      <point x="260" y="99"/>
      <point x="203" y="161"/>
      <point x="203" y="266" type="curve" smooth="yes"/>
      <point x="203" y="464"/>
      <point x="292" y="602"/>
      <point x="423" y="602" type="curve" smooth="yes"/>
      <point x="532" y="602"/>
      <point x="589" y="541"/>
      <point x="589" y="434" type="curve" smooth="yes"/>
      <point x="589" y="240"/>
      <point x="503" y="99"/>
      <point x="369" y="99" type="curve" smooth="yes"/>
    </contour>
    <contour>
      <point x="315" y="0" type="move" name="bottom"/>
    </contour>
    <contour>
      <point x="614" y="10" type="move" name="ogonek"/>
    </contour>
    <contour>
      <point x="456" y="700" type="move" name="top"/>
    </contour>
    <contour>
      <point x="830" y="700" type="move" name="topright"/>
    </contour>
    <contour>
      <point x="122" y="700" type="move" name="topleft"/>
    </contour>
    <contour>
      <point x="396" y="350" type="move" name="center"/>
    </contour>
  </outline>
</glyph>
<glyph name="P" format="1">
  <advance width="648"/>
  <unicode hex="0050"/>
  <outline>
    <contour>
      <point x="128" y="0" type="line" smooth="yes"/>
      <point x="152" y="0"/>
      <point x="164" y="12"/>
      <point x="170" y="37" type="curve" smooth="yes"/>
      <point x="223" y="262" type="line"/>
      <point x="307" y="262" type="line" smooth="yes"/>
      <point x="543" y="262"/>
      <point x="658" y="365"/>
      <point x="658" y="511" type="curve" smooth="yes"/>
      <point x="658" y="642"/>
      <point x="572" y="700"/>
      <point x="388" y="700" type="curve" smooth="yes"/>
      <point x="215" y="700" type="line" smooth="yes"/>
      <point x="191" y="700"/>
      <point x="178" y="688"/>
      <point x="173" y="664" type="curve" smooth="yes"/>
      <point x="28" y="37" type="line" smooth="yes"/>
      <point x="27" y="30"/>
      <point x="26" y="26"/>
      <point x="26" y="23" type="curve" smooth="yes"/>
      <point x="26" y="8"/>
      <point x="35" y="0"/>
      <point x="54" y="0" type="curve" smooth="yes"/>
    </contour>
    <contour>
      <point x="296" y="581" type="line"/>
      <point x="360" y="581" type="line" smooth="yes"/>
      <point x="483" y="581"/>
      <point x="514" y="556"/>
      <point x="514" y="494" type="curve" smooth="yes"/>
      <point x="514" y="433"/>
      <point x="473" y="381"/>
      <point x="333" y="381" type="curve" smooth="yes"/>
      <point x="250" y="381" type="line"/>
    </contour>
    <contour>
      <point x="426" y="700" type="move" name="top"/>
    </contour>
    <contour>
      <point x="265" y="0" type="move" name="bottom"/>
    </contour>
  </outline>
</glyph>
<glyph name="Q" format="1">
  <advance width="748"/>
  <unicode hex="0051"/>
  <outline>
    <contour>
      <point x="532" y="-199"/>
      <point x="618" y="-189"/>
      <point x="618" y="-164" type="curve" smooth="yes"/>
      <point x="618" y="-161"/>
      <point x="618" y="-159"/>
      <point x="617" y="-158" type="curve"/>
      <point x="601" y="-101" type="line" smooth="yes"/>
      <point x="599" y="-92"/>
      <point x="593" y="-88"/>
      <point x="584" y="-88" type="curve" smooth="yes"/>
      <point x="564" y="-88"/>
      <point x="541" y="-99"/>
      <point x="522" y="-99" type="curve" smooth="yes"/>
      <point x="453" y="-99"/>
      <point x="440" y="-71"/>
      <point x="436" y="-10" type="curve"/>
      <point x="619" y="22"/>
      <point x="741" y="204"/>
      <point x="741" y="414" type="curve" smooth="yes"/>
      <point x="741" y="618"/>
      <point x="622" y="717"/>
      <point x="430" y="717" type="curve" smooth="yes"/>
      <point x="316" y="717"/>
      <point x="224" y="675"/>
      <point x="155" y="592" type="curve" smooth="yes"/>
      <point x="86" y="510"/>
      <point x="51" y="408"/>
      <point x="51" y="287" type="curve" smooth="yes"/>
      <point x="51" y="110"/>
      <point x="139" y="11"/>
      <point x="292" y="-12" type="curve"/>
      <point x="298" y="-129"/>
      <point x="350" y="-199"/>
      <point x="492" y="-199" type="curve" smooth="yes"/>
    </contour>
    <contour>
      <point x="260" y="99"/>
      <point x="203" y="161"/>
      <point x="203" y="266" type="curve" smooth="yes"/>
      <point x="203" y="464"/>
      <point x="292" y="602"/>
      <point x="423" y="602" type="curve" smooth="yes"/>
      <point x="532" y="602"/>
      <point x="589" y="541"/>
      <point x="589" y="434" type="curve" smooth="yes"/>
      <point x="589" y="240"/>
      <point x="503" y="99"/>
      <point x="369" y="99" type="curve" smooth="yes"/>
    </contour>
    <contour>
      <point x="446" y="700" type="move" name="top"/>
    </contour>
    <contour>
      <point x="315" y="0" type="move" name="bottom"/>
    </contour>
  </outline>
</glyph>
<glyph name="R" format="1">
  <advance width="697"/>
  <unicode hex="0052"/>
  <outline>
    <contour>
      <point x="128" y="0" type="line" smooth="yes"/>
      <point x="152" y="0"/>
      <point x="164" y="12"/>
      <point x="170" y="37" type="curve" smooth="yes"/>
      <point x="228" y="283" type="line"/>
      <point x="273" y="283" type="line" smooth="yes"/>
      <point x="330" y="283"/>
      <point x="376" y="243"/>
      <point x="394" y="193" type="curve" smooth="yes"/>
      <point x="452" y="29" type="line" smooth="yes"/>
      <point x="459" y="10"/>
      <point x="469" y="0"/>
      <point x="489" y="0" type="curve" smooth="yes"/>
      <point x="563" y="0" type="line" smooth="yes"/>
      <point x="585" y="0"/>
      <point x="596" y="8"/>
      <point x="596" y="23" type="curve" smooth="yes"/>
      <point x="596" y="30"/>
      <point x="595" y="36"/>
      <point x="592" y="42" type="curve" smooth="yes"/>
      <point x="526" y="211" type="line" smooth="yes"/>
      <point x="518" y="232"/>
      <point x="500" y="292"/>
      <point x="443" y="315" type="curve"/>
      <point x="443" y="316" type="line"/>
      <point x="596" y="336"/>
      <point x="687" y="421"/>
      <point x="687" y="526" type="curve" smooth="yes"/>
      <point x="687" y="633"/>
      <point x="615" y="700"/>
      <point x="416" y="700" type="curve" smooth="yes"/>
      <point x="215" y="700" type="line" smooth="yes"/>
      <point x="191" y="700"/>
      <point x="178" y="688"/>
      <point x="173" y="664" type="curve" smooth="yes"/>
      <point x="28" y="37" type="line" smooth="yes"/>
      <point x="27" y="30"/>
      <point x="26" y="26"/>
      <point x="26" y="23" type="curve" smooth="yes"/>
      <point x="26" y="8"/>
      <point x="35" y="0"/>
      <point x="54" y="0" type="curve" smooth="yes"/>
    </contour>
    <contour>
      <point x="296" y="581" type="line"/>
      <point x="388" y="581" type="line" smooth="yes"/>
      <point x="490" y="581"/>
      <point x="547" y="570"/>
      <point x="547" y="512" type="curve" smooth="yes"/>
      <point x="547" y="440"/>
      <point x="450" y="404"/>
      <point x="357" y="404" type="curve" smooth="yes"/>
      <point x="255" y="404" type="line"/>
    </contour>
    <contour>
      <point x="451" y="700" type="move" name="top"/>
    </contour>
    <contour>
      <point x="290" y="0" type="move" name="bottom"/>
    </contour>
  </outline>
</glyph>
<glyph name="S" format="1">
  <advance width="634"/>
  <unicode hex="0053"/>
  <outline>
    <contour>
      <point x="481" y="-17"/>
      <point x="575" y="91"/>
      <point x="575" y="206" type="curve" smooth="yes"/>
      <point x="575" y="322"/>
      <point x="508" y="374"/>
      <point x="389" y="409" type="curve" smooth="yes"/>
      <point x="305" y="433"/>
      <point x="259" y="461"/>
      <point x="259" y="521" type="curve" smooth="yes"/>
      <point x="259" y="571"/>
      <point x="302" y="602"/>
      <point x="377" y="602" type="curve" smooth="yes"/>
      <point x="432" y="602"/>
      <point x="478" y="585"/>
      <point x="513" y="557" type="curve" smooth="yes"/>
      <point x="524" y="548"/>
      <point x="534" y="544"/>
      <point x="543" y="544" type="curve" smooth="yes"/>
      <point x="552" y="544"/>
      <point x="560" y="548"/>
      <point x="567" y="556" type="curve" smooth="yes"/>
      <point x="610" y="604" type="line" smooth="yes"/>
      <point x="615" y="609"/>
      <point x="617" y="615"/>
      <point x="617" y="622" type="curve" smooth="yes"/>
      <point x="617" y="672"/>
      <point x="493" y="717"/>
      <point x="390" y="717" type="curve" smooth="yes"/>
      <point x="315" y="717"/>
      <point x="220" y="703"/>
      <point x="159" y="624" type="curve" smooth="yes"/>
      <point x="130" y="587"/>
      <point x="117" y="545"/>
      <point x="117" y="505" type="curve" smooth="yes"/>
      <point x="117" y="395"/>
      <point x="176" y="352"/>
      <point x="229" y="328" type="curve" smooth="yes"/>
      <point x="294" y="298" type="line"/>
      <point x="352" y="277" type="line" smooth="yes"/>
      <point x="405" y="258"/>
      <point x="430" y="234"/>
      <point x="430" y="194" type="curve" smooth="yes"/>
      <point x="430" y="138"/>
      <point x="386" y="99"/>
      <point x="291" y="99" type="curve" smooth="yes"/>
      <point x="223" y="99"/>
      <point x="166" y="124"/>
      <point x="128" y="153" type="curve" smooth="yes"/>
      <point x="117" y="162"/>
      <point x="106" y="167"/>
      <point x="96" y="167" type="curve" smooth="yes"/>
      <point x="87" y="167"/>
      <point x="79" y="163"/>
      <point x="74" y="156" type="curve" smooth="yes"/>
      <point x="31" y="104" type="line" smooth="yes"/>
      <point x="26" y="99"/>
      <point x="24" y="92"/>
      <point x="24" y="85" type="curve" smooth="yes"/>
      <point x="24" y="54"/>
      <point x="96" y="13"/>
      <point x="136" y="0" type="curve" smooth="yes"/>
      <point x="170" y="-11"/>
      <point x="216" y="-17"/>
      <point x="273" y="-17" type="curve" smooth="yes"/>
    </contour>
    <contour>
      <point x="409" y="700" type="move" name="top"/>
    </contour>
    <contour>
      <point x="258" y="0" type="move" name="bottom"/>
    </contour>
  </outline>
</glyph>
<glyph name="T" format="1">
  <advance width="608"/>
  <unicode hex="0054"/>
  <outline>
    <contour>
      <point x="292" y="0" type="line" smooth="yes"/>
      <point x="309" y="0"/>
      <point x="319" y="9"/>
      <point x="323" y="27" type="curve" smooth="yes"/>
      <point x="450" y="575" type="line"/>
      <point x="629" y="575" type="line" smooth="yes"/>
      <point x="653" y="575"/>
      <point x="668" y="586"/>
      <point x="673" y="607" type="curve" smooth="yes"/>
      <point x="688" y="668" type="line" smooth="yes"/>
      <point x="689" y="670"/>
      <point x="689" y="673"/>
      <point x="689" y="677" type="curve" smooth="yes"/>
      <point x="689" y="692"/>
      <point x="679" y="700"/>
      <point x="658" y="700" type="curve" smooth="yes"/>
      <point x="156" y="700" type="line" smooth="yes"/>
      <point x="132" y="700"/>
      <point x="117" y="689"/>
      <point x="112" y="668" type="curve" smooth="yes"/>
      <point x="98" y="607" type="line" smooth="yes"/>
      <point x="97" y="604"/>
      <point x="97" y="601"/>
      <point x="97" y="597" type="curve" smooth="yes"/>
      <point x="97" y="582"/>
      <point x="107" y="575"/>
      <point x="127" y="575" type="curve" smooth="yes"/>
      <point x="307" y="575" type="line"/>
      <point x="181" y="27" type="line" smooth="yes"/>
      <point x="180" y="22"/>
      <point x="179" y="18"/>
      <point x="179" y="17" type="curve" smooth="yes"/>
      <point x="179" y="6"/>
      <point x="186" y="0"/>
      <point x="199" y="0" type="curve" smooth="yes"/>
    </contour>
    <contour>
      <point x="326" y="350" type="move" name="center"/>
    </contour>
    <contour>
      <point x="245" y="0" type="move" name="bottom"/>
    </contour>
    <contour>
      <point x="406" y="700" type="move" name="top"/>
    </contour>
  </outline>
</glyph>
<glyph name="U" format="1">
  <advance width="694"/>
  <unicode hex="0055"/>
  <outline>
    <contour>
      <point x="481" y="-17"/>
      <point x="570" y="55"/>
      <point x="625" y="292" type="curve" smooth="yes"/>
      <point x="713" y="673" type="line"/>
      <point x="713" y="676"/>
      <point x="714" y="678"/>
      <point x="714" y="681" type="curve" smooth="yes"/>
      <point x="714" y="694"/>
      <point x="704" y="700"/>
      <point x="685" y="700" type="curve" smooth="yes"/>
      <point x="611" y="700" type="line" smooth="yes"/>
      <point x="590" y="700"/>
      <point x="574" y="691"/>
      <point x="570" y="673" type="curve" smooth="yes"/>
      <point x="483" y="296" type="line" smooth="yes"/>
      <point x="447" y="140"/>
      <point x="377" y="99"/>
      <point x="311" y="99" type="curve" smooth="yes"/>
      <point x="255" y="99"/>
      <point x="214" y="117"/>
      <point x="214" y="185" type="curve"/>
      <point x="213" y="214"/>
      <point x="219" y="251"/>
      <point x="230" y="296" type="curve" smooth="yes"/>
      <point x="317" y="673" type="line" smooth="yes"/>
      <point x="318" y="675"/>
      <point x="318" y="678"/>
      <point x="318" y="682" type="curve" smooth="yes"/>
      <point x="318" y="694"/>
      <point x="309" y="700"/>
      <point x="290" y="700" type="curve" smooth="yes"/>
      <point x="215" y="700" type="line" smooth="yes"/>
      <point x="192" y="700"/>
      <point x="179" y="691"/>
      <point x="175" y="673" type="curve" smooth="yes"/>
      <point x="87" y="292" type="line" smooth="yes"/>
      <point x="77" y="251"/>
      <point x="73" y="215"/>
      <point x="73" y="184" type="curve" smooth="yes"/>
      <point x="73" y="46"/>
      <point x="172" y="-17"/>
      <point x="296" y="-17" type="curve" smooth="yes"/>
    </contour>
    <contour>
      <point x="566" y="10" type="move" name="ogonek"/>
    </contour>
    <contour>
      <point x="449" y="700" type="move" name="top"/>
    </contour>
    <contour>
      <point x="776" y="700" type="move" name="topright"/>
    </contour>
    <contour>
      <point x="308" y="0" type="move" name="bottom"/>
    </contour>
  </outline>
</glyph>
<glyph name="V" format="1">
  <advance width="669"/>
  <unicode hex="0056"/>
  <outline>
    <contour>
      <point x="310" y="0" type="line" smooth="yes"/>
      <point x="331" y="0"/>
      <point x="349" y="13"/>
      <point x="365" y="40" type="curve" smooth="yes"/>
      <point x="744" y="668" type="line" smooth="yes"/>
      <point x="749" y="675"/>
      <point x="751" y="681"/>
      <point x="751" y="686" type="curve" smooth="yes"/>
      <point x="751" y="695"/>
      <point x="743" y="700"/>
      <point x="728" y="700" type="curve" smooth="yes"/>
      <point x="641" y="700" type="line" smooth="yes"/>
      <point x="619" y="700"/>
      <point x="601" y="689"/>
      <point x="588" y="667" type="curve" smooth="yes"/>
      <point x="344" y="259" type="line" smooth="yes"/>
      <point x="333" y="240"/>
      <point x="326" y="227"/>
      <point x="322" y="218" type="curve" smooth="yes"/>
      <point x="309" y="182" type="line"/>
      <point x="307" y="182" type="line"/>
      <point x="310" y="196"/>
      <point x="311" y="208"/>
      <point x="311" y="218" type="curve" smooth="yes"/>
      <point x="311" y="227"/>
      <point x="309" y="241"/>
      <point x="307" y="259" type="curve" smooth="yes"/>
      <point x="252" y="667" type="line" smooth="yes"/>
      <point x="249" y="689"/>
      <point x="237" y="700"/>
      <point x="215" y="700" type="curve" smooth="yes"/>
      <point x="147" y="700" type="line" smooth="yes"/>
      <point x="127" y="700"/>
      <point x="116" y="691"/>
      <point x="116" y="675" type="curve" smooth="yes"/>
      <point x="116" y="672"/>
      <point x="117" y="670"/>
      <point x="117" y="668" type="curve" smooth="yes"/>
      <point x="205" y="40" type="line" smooth="yes"/>
      <point x="209" y="13"/>
      <point x="219" y="0"/>
      <point x="242" y="0" type="curve" smooth="yes"/>
    </contour>
    <contour>
      <point x="437" y="700" type="move" name="top"/>
    </contour>
    <contour>
      <point x="276" y="0" type="move" name="bottom"/>
    </contour>
  </outline>
</glyph>
<glyph name="W" format="1">
  <advance width="987"/>
  <unicode hex="0057"/>
  <outline>
    <contour>
      <point x="261" y="0" type="line" smooth="yes"/>
      <point x="280" y="0"/>
      <point x="297" y="16"/>
      <point x="313" y="47" type="curve" smooth="yes"/>
      <point x="525" y="456" type="line" smooth="yes"/>
      <point x="557" y="517"/>
      <point x="547" y="502"/>
      <point x="559" y="537" type="curve"/>
      <point x="560" y="537" type="line"/>
      <point x="556" y="508"/>
      <point x="554" y="501"/>
      <point x="554" y="494" type="curve" smooth="yes"/>
      <point x="555" y="487"/>
      <point x="555" y="474"/>
      <point x="556" y="456" type="curve" smooth="yes"/>
      <point x="579" y="47" type="line" smooth="yes"/>
      <point x="581" y="16"/>
      <point x="589" y="0"/>
      <point x="609" y="0" type="curve" smooth="yes"/>
      <point x="695" y="0" type="line" smooth="yes"/>
      <point x="716" y="0"/>
      <point x="735" y="16"/>
      <point x="751" y="47" type="curve" smooth="yes"/>
      <point x="1060" y="661" type="line" smooth="yes"/>
      <point x="1065" y="670"/>
      <point x="1067" y="677"/>
      <point x="1067" y="684" type="curve" smooth="yes"/>
      <point x="1067" y="695"/>
      <point x="1060" y="700"/>
      <point x="1046" y="700" type="curve" smooth="yes"/>
      <point x="948" y="700" type="line" smooth="yes"/>
      <point x="933" y="700"/>
      <point x="920" y="689"/>
      <point x="910" y="668" type="curve" smooth="yes"/>
      <point x="705" y="232" type="line" smooth="yes"/>
      <point x="700" y="221"/>
      <point x="693" y="202"/>
      <point x="685" y="177" type="curve"/>
      <point x="683" y="177" type="line"/>
      <point x="689" y="229" type="line"/>
      <point x="690" y="232"/>
      <point x="690" y="239"/>
      <point x="690" y="248" type="curve" smooth="yes"/>
      <point x="690" y="263"/>
      <point x="690" y="276"/>
      <point x="689" y="287" type="curve" smooth="yes"/>
      <point x="667" y="664" type="line"/>
      <point x="665" y="688"/>
      <point x="655" y="700"/>
      <point x="634" y="700" type="curve" smooth="yes"/>
      <point x="544" y="700" type="line" smooth="yes"/>
      <point x="523" y="700"/>
      <point x="507" y="688"/>
      <point x="495" y="664" type="curve" smooth="yes"/>
      <point x="299" y="287" type="line"/>
      <point x="287" y="262"/>
      <point x="275" y="242"/>
      <point x="271" y="229" type="curve" smooth="yes"/>
      <point x="255" y="177" type="line"/>
      <point x="252" y="177" type="line"/>
      <point x="256" y="200"/>
      <point x="258" y="217"/>
      <point x="258" y="226" type="curve" smooth="yes"/>
      <point x="254" y="668" type="line"/>
      <point x="253" y="689"/>
      <point x="245" y="700"/>
      <point x="230" y="700" type="curve" smooth="yes"/>
      <point x="147" y="700" type="line" smooth="yes"/>
      <point x="125" y="700"/>
      <point x="116" y="687"/>
      <point x="116" y="661" type="curve"/>
      <point x="140" y="47" type="line" smooth="yes"/>
      <point x="141" y="16"/>
      <point x="155" y="0"/>
      <point x="175" y="0" type="curve" smooth="yes"/>
    </contour>
    <contour>
      <point x="596" y="700" type="move" name="top"/>
    </contour>
    <contour>
      <point x="435" y="0" type="move" name="bottom"/>
    </contour>
  </outline>
</glyph>
<glyph name="X" format="1">
  <advance width="680"/>
  <unicode hex="0058"/>
  <outline>
    <contour>
      <point x="110" y="0" type="line" smooth="yes"/>
      <point x="129" y="0"/>
      <point x="146" y="10"/>
      <point x="161" y="29" type="curve" smooth="yes"/>
      <point x="346" y="258" type="line"/>
      <point x="444" y="29" type="line" smooth="yes"/>
      <point x="452" y="10"/>
      <point x="464" y="0"/>
      <point x="481" y="0" type="curve" smooth="yes"/>
      <point x="568" y="0" type="line" smooth="yes"/>
      <point x="591" y="0"/>
      <point x="603" y="7"/>
      <point x="603" y="21" type="curve" smooth="yes"/>
      <point x="603" y="27"/>
      <point x="601" y="34"/>
      <point x="597" y="42" type="curve" smooth="yes"/>
      <point x="438" y="353" type="line"/>
      <point x="721" y="658" type="line" smooth="yes"/>
      <point x="732" y="670"/>
      <point x="738" y="680"/>
      <point x="738" y="687" type="curve" smooth="yes"/>
      <point x="738" y="696"/>
      <point x="729" y="700"/>
      <point x="712" y="700" type="curve" smooth="yes"/>
      <point x="598" y="700" type="line" smooth="yes"/>
      <point x="580" y="700"/>
      <point x="563" y="690"/>
      <point x="547" y="671" type="curve" smooth="yes"/>
      <point x="382" y="468" type="line"/>
      <point x="296" y="671" type="line" smooth="yes"/>
      <point x="288" y="690"/>
      <point x="276" y="700"/>
      <point x="259" y="700" type="curve" smooth="yes"/>
      <point x="173" y="700" type="line" smooth="yes"/>
      <point x="150" y="700"/>
      <point x="139" y="693"/>
      <point x="139" y="680" type="curve" smooth="yes"/>
      <point x="139" y="673"/>
      <point x="141" y="666"/>
      <point x="145" y="658" type="curve" smooth="yes"/>
      <point x="290" y="373" type="line"/>
      <point x="-15" y="42" type="line" smooth="yes"/>
      <point x="-26" y="30"/>
      <point x="-32" y="20"/>
      <point x="-32" y="13" type="curve" smooth="yes"/>
      <point x="-32" y="4"/>
      <point x="-23" y="0"/>
      <point x="-6" y="0" type="curve" smooth="yes"/>
    </contour>
    <contour>
      <point x="442" y="700" type="move" name="top"/>
    </contour>
    <contour>
      <point x="281" y="0" type="move" name="bottom"/>
    </contour>
  </outline>
</glyph>
<glyph name="Y" format="1">
  <advance width="668"/>
  <unicode hex="0059"/>
  <outline>
    <contour>
      <point x="313" y="0" type="line" smooth="yes"/>
      <point x="336" y="0"/>
      <point x="349" y="9"/>
      <point x="353" y="27" type="curve" smooth="yes"/>
      <point x="406" y="256" type="line"/>
      <point x="736" y="658" type="line" smooth="yes"/>
      <point x="746" y="670"/>
      <point x="751" y="679"/>
      <point x="751" y="686" type="curve" smooth="yes"/>
      <point x="751" y="695"/>
      <point x="742" y="700"/>
      <point x="723" y="700" type="curve" smooth="yes"/>
      <point x="623" y="700" type="line" smooth="yes"/>
      <point x="606" y="700"/>
      <point x="588" y="689"/>
      <point x="570" y="667" type="curve" smooth="yes"/>
      <point x="380" y="428" type="line"/>
      <point x="365" y="407"/>
      <point x="354" y="386"/>
      <point x="349" y="365" type="curve"/>
      <point x="347" y="365" type="line"/>
      <point x="347" y="392"/>
      <point x="344" y="414"/>
      <point x="338" y="432" type="curve" smooth="yes"/>
      <point x="259" y="667" type="line" smooth="yes"/>
      <point x="251" y="689"/>
      <point x="238" y="700"/>
      <point x="222" y="700" type="curve" smooth="yes"/>
      <point x="151" y="700" type="line" smooth="yes"/>
      <point x="126" y="700"/>
      <point x="114" y="692"/>
      <point x="114" y="676" type="curve" smooth="yes"/>
      <point x="114" y="673"/>
      <point x="115" y="667"/>
      <point x="118" y="658" type="curve" smooth="yes"/>
      <point x="263" y="256" type="line"/>
      <point x="210" y="27" type="line" smooth="yes"/>
      <point x="209" y="24"/>
      <point x="209" y="21"/>
      <point x="209" y="19" type="curve" smooth="yes"/>
      <point x="209" y="6"/>
      <point x="218" y="0"/>
      <point x="238" y="0" type="curve" smooth="yes"/>
    </contour>
    <contour>
      <point x="436" y="700" type="move" name="top"/>
    </contour>
    <contour>
      <point x="275" y="0" type="move" name="bottom"/>
    </contour>
    <contour>
      <point x="122" y="700" type="move" name="topleft"/>
    </contour>
  </outline>
</glyph>
<glyph name="Z" format="1">
  <advance width="611"/>
  <unicode hex="005A"/>
  <outline>
    <contour>
      <point x="486" y="0" type="line" smooth="yes"/>
      <point x="510" y="0"/>
      <point x="525" y="11"/>
      <point x="530" y="32" type="curve" smooth="yes"/>
      <point x="543" y="89" type="line" smooth="yes"/>
      <point x="544" y="92"/>
      <point x="544" y="95"/>
      <point x="544" y="99" type="curve" smooth="yes"/>
      <point x="544" y="114"/>
      <point x="534" y="121"/>
      <point x="514" y="121" type="curve" smooth="yes"/>
      <point x="252" y="121" type="line" smooth="yes"/>
      <point x="239" y="121"/>
      <point x="220" y="120"/>
      <point x="193" y="119" type="curve"/>
      <point x="194" y="122" type="line"/>
      <point x="627" y="584" type="line" smooth="yes"/>
      <point x="642" y="600"/>
      <point x="651" y="617"/>
      <point x="656" y="636" type="curve" smooth="yes"/>
      <point x="664" y="668" type="line" smooth="yes"/>
      <point x="665" y="670"/>
      <point x="665" y="673"/>
      <point x="665" y="677" type="curve" smooth="yes"/>
      <point x="665" y="692"/>
      <point x="655" y="700"/>
      <point x="634" y="700" type="curve" smooth="yes"/>
      <point x="189" y="700" type="line" smooth="yes"/>
      <point x="165" y="700"/>
      <point x="150" y="689"/>
      <point x="145" y="668" type="curve" smooth="yes"/>
      <point x="132" y="611" type="line" smooth="yes"/>
      <point x="131" y="608"/>
      <point x="131" y="605"/>
      <point x="131" y="601" type="curve" smooth="yes"/>
      <point x="131" y="586"/>
      <point x="141" y="579"/>
      <point x="161" y="579" type="curve" smooth="yes"/>
      <point x="378" y="579" type="line" smooth="yes"/>
      <point x="397" y="579"/>
      <point x="417" y="580"/>
      <point x="438" y="582" type="curve"/>
      <point x="437" y="578" type="line"/>
      <point x="28" y="142" type="line" smooth="yes"/>
      <point x="6" y="118"/>
      <point x="-7" y="95"/>
      <point x="-12" y="72" type="curve" smooth="yes"/>
      <point x="-21" y="32" type="line" smooth="yes"/>
      <point x="-22" y="29"/>
      <point x="-22" y="26"/>
      <point x="-22" y="22" type="curve" smooth="yes"/>
      <point x="-22" y="7"/>
      <point x="-12" y="0"/>
      <point x="8" y="0" type="curve" smooth="yes"/>
    </contour>
    <contour>
      <point x="408" y="700" type="move" name="top"/>
    </contour>
    <contour>
      <point x="247" y="0" type="move" name="bottom"/>
    </contour>
  </outline>
</glyph>
<glyph name="bracketleft" format="1">
  <advance width="339"/>
  <unicode hex="005B"/>
  <outline>
    <contour>
      <point x="173" y="-199" type="line" smooth="yes"/>
      <point x="192" y="-199"/>
      <point x="204" y="-191"/>
      <point x="208" y="-175" type="curve" smooth="yes"/>
      <point x="219" y="-126" type="line" smooth="yes"/>
      <point x="220" y="-123"/>
      <point x="220" y="-121"/>
      <point x="220" y="-119" type="curve" smooth="yes"/>
      <point x="220" y="-108"/>
      <point x="212" y="-102"/>
      <point x="195" y="-102" type="curve" smooth="yes"/>
      <point x="133" y="-102" type="line"/>
      <point x="302" y="633" type="line"/>
      <point x="365" y="633" type="line" smooth="yes"/>
      <point x="384" y="633"/>
      <point x="396" y="641"/>
      <point x="400" y="657" type="curve" smooth="yes"/>
      <point x="411" y="706" type="line" smooth="yes"/>
      <point x="412" y="709"/>
      <point x="412" y="711"/>
      <point x="412" y="713" type="curve" smooth="yes"/>
      <point x="412" y="724"/>
      <point x="404" y="730"/>
      <point x="387" y="730" type="curve" smooth="yes"/>
      <point x="217" y="730" type="line" smooth="yes"/>
      <point x="198" y="730"/>
      <point x="186" y="720"/>
      <point x="182" y="701" type="curve" smooth="yes"/>
      <point x="-20" y="-170" type="line" smooth="yes"/>
      <point x="-21" y="-172"/>
      <point x="-21" y="-175"/>
      <point x="-21" y="-179" type="curve" smooth="yes"/>
      <point x="-21" y="-192"/>
      <point x="-13" y="-199"/>
      <point x="3" y="-199" type="curve" smooth="yes"/>
    </contour>
  </outline>
</glyph>
<glyph name="backslash" format="1">
  <advance width="418"/>
  <unicode hex="005C"/>
  <outline>
    <contour>
      <point x="343" y="-188" type="line" smooth="yes"/>
      <point x="356" y="-184"/>
      <point x="362" y="-176"/>
      <point x="362" y="-163" type="curve" smooth="yes"/>
      <point x="362" y="-160"/>
      <point x="361" y="-156"/>
      <point x="360" y="-151" type="curve" smooth="yes"/>
      <point x="154" y="696" type="line" smooth="yes"/>
      <point x="150" y="710"/>
      <point x="142" y="717"/>
      <point x="133" y="717" type="curve" smooth="yes"/>
      <point x="131" y="717"/>
      <point x="128" y="716"/>
      <point x="124" y="715" type="curve" smooth="yes"/>
      <point x="84" y="703" type="line" smooth="yes"/>
      <point x="72" y="699"/>
      <point x="66" y="691"/>
      <point x="66" y="678" type="curve" smooth="yes"/>
      <point x="66" y="673"/>
      <point x="66" y="670"/>
      <point x="67" y="667" type="curve" smooth="yes"/>
      <point x="274" y="-181" type="line" smooth="yes"/>
      <point x="277" y="-195"/>
      <point x="284" y="-202"/>
      <point x="295" y="-202" type="curve"/>
    </contour>
  </outline>
</glyph>
<glyph name="bracketright" format="1">
  <advance width="339"/>
  <unicode hex="005D"/>
  <outline>
    <contour>
      <point x="127" y="-199" type="line" smooth="yes"/>
      <point x="145" y="-199"/>
      <point x="158" y="-189"/>
      <point x="163" y="-170" type="curve" smooth="yes"/>
      <point x="364" y="701" type="line" smooth="yes"/>
      <point x="365" y="704"/>
      <point x="365" y="707"/>
      <point x="365" y="711" type="curve" smooth="yes"/>
      <point x="365" y="724"/>
      <point x="357" y="730"/>
      <point x="341" y="730" type="curve" smooth="yes"/>
      <point x="171" y="730" type="line" smooth="yes"/>
      <point x="152" y="730"/>
      <point x="141" y="722"/>
      <point x="137" y="706" type="curve" smooth="yes"/>
      <point x="125" y="657" type="line" smooth="yes"/>
      <point x="124" y="655"/>
      <point x="124" y="653"/>
      <point x="124" y="651" type="curve" smooth="yes"/>
      <point x="124" y="639"/>
      <point x="132" y="633"/>
      <point x="149" y="633" type="curve" smooth="yes"/>
      <point x="211" y="633" type="line"/>
      <point x="42" y="-102" type="line"/>
      <point x="-21" y="-102" type="line" smooth="yes"/>
      <point x="-40" y="-102"/>
      <point x="-53" y="-110"/>
      <point x="-56" y="-126" type="curve" smooth="yes"/>
      <point x="-67" y="-175" type="line" smooth="yes"/>
      <point x="-68" y="-177"/>
      <point x="-68" y="-179"/>
      <point x="-68" y="-181" type="curve" smooth="yes"/>
      <point x="-68" y="-193"/>
      <point x="-60" y="-199"/>
      <point x="-43" y="-199" type="curve" smooth="yes"/>
    </contour>
  </outline>
</glyph>
<glyph name="asciicircum" format="1">
  <advance width="449"/>
  <unicode hex="005E"/>
  <outline>
    <contour>
      <point x="142" y="427"/>
      <point x="150" y="432"/>
      <point x="157" y="441" type="curve" smooth="yes"/>
      <point x="274" y="602" type="line"/>
      <point x="390" y="441" type="line" smooth="yes"/>
      <point x="397" y="432"/>
      <point x="405" y="427"/>
      <point x="412" y="427" type="curve" smooth="yes"/>
      <point x="416" y="427"/>
      <point x="421" y="429"/>
      <point x="426" y="432" type="curve" smooth="yes"/>
      <point x="457" y="454" type="line" smooth="yes"/>
      <point x="464" y="459"/>
      <point x="467" y="465"/>
      <point x="467" y="472" type="curve" smooth="yes"/>
      <point x="467" y="478"/>
      <point x="464" y="485"/>
      <point x="459" y="492" type="curve" smooth="yes"/>
      <point x="317" y="686" type="line" smooth="yes"/>
      <point x="308" y="698"/>
      <point x="297" y="704"/>
      <point x="282" y="704" type="curve" smooth="yes"/>
      <point x="265" y="704" type="line" smooth="yes"/>
      <point x="250" y="704"/>
      <point x="238" y="698"/>
      <point x="229" y="686" type="curve" smooth="yes"/>
      <point x="88" y="492" type="line"/>
      <point x="83" y="483"/>
      <point x="80" y="476"/>
      <point x="80" y="471" type="curve" smooth="yes"/>
      <point x="80" y="464"/>
      <point x="83" y="459"/>
      <point x="90" y="454" type="curve" smooth="yes"/>
      <point x="121" y="432" type="line" smooth="yes"/>
      <point x="126" y="429"/>
      <point x="131" y="427"/>
      <point x="135" y="427" type="curve" smooth="yes"/>
    </contour>
  </outline>
</glyph>
<glyph name="underscore" format="1">
  <advance width="586"/>
  <unicode hex="005F"/>
  <outline>
    <contour>
      <point x="474" y="-208" type="line" smooth="yes"/>
      <point x="493" y="-208"/>
      <point x="503" y="-200"/>
      <point x="503" y="-183" type="curve" smooth="yes"/>
      <point x="503" y="-134" type="line" smooth="yes"/>
      <point x="503" y="-118"/>
      <point x="493" y="-110"/>
      <point x="474" y="-110" type="curve" smooth="yes"/>
      <point x="-78" y="-110" type="line" smooth="yes"/>
      <point x="-97" y="-110"/>
      <point x="-107" y="-118"/>
      <point x="-107" y="-134" type="curve" smooth="yes"/>
      <point x="-107" y="-183" type="line" smooth="yes"/>
      <point x="-107" y="-200"/>
      <point x="-97" y="-208"/>
      <point x="-78" y="-208" type="curve" smooth="yes"/>
    </contour>
  </outline>
</glyph>
<glyph name="grave" format="1">
  <advance width="300"/>
  <unicode hex="0060"/>
  <outline>
    <contour>
      <point x="323" y="562" type="line" smooth="yes"/>
      <point x="338" y="562"/>
      <point x="345" y="566"/>
      <point x="345" y="575" type="curve" smooth="yes"/>
      <point x="345" y="578"/>
      <point x="343" y="583"/>
      <point x="340" y="590" type="curve" smooth="yes"/>
      <point x="298" y="678" type="line" smooth="yes"/>
      <point x="291" y="693"/>
      <point x="275" y="701"/>
      <point x="251" y="701" type="curve" smooth="yes"/>
      <point x="177" y="701" type="line" smooth="yes"/>
      <point x="160" y="701"/>
      <point x="151" y="697"/>
      <point x="151" y="689" type="curve" smooth="yes"/>
      <point x="151" y="685"/>
      <point x="154" y="679"/>
      <point x="160" y="672" type="curve" smooth="yes"/>
      <point x="236" y="580" type="line" smooth="yes"/>
      <point x="246" y="568"/>
      <point x="261" y="562"/>
      <point x="281" y="562" type="curve" smooth="yes"/>
    </contour>
  </outline>
</glyph>
<glyph name="a" format="1">
  <advance width="575"/>
  <unicode hex="0061"/>
  <outline>
    <contour>
      <point x="247" y="-10"/>
      <point x="288" y="18"/>
      <point x="329" y="67" type="curve"/>
      <point x="331" y="67" type="line"/>
      <point x="324" y="29" type="line" smooth="yes"/>
      <point x="323" y="26"/>
      <point x="323" y="23"/>
      <point x="323" y="21" type="curve" smooth="yes"/>
      <point x="323" y="7"/>
      <point x="331" y="0"/>
      <point x="346" y="0" type="curve" smooth="yes"/>
      <point x="421" y="0" type="line" smooth="yes"/>
      <point x="441" y="0"/>
      <point x="453" y="10"/>
      <point x="457" y="29" type="curve" smooth="yes"/>
      <point x="562" y="483" type="line" smooth="yes"/>
      <point x="563" y="486"/>
      <point x="563" y="489"/>
      <point x="563" y="493" type="curve" smooth="yes"/>
      <point x="563" y="506"/>
      <point x="555" y="513"/>
      <point x="539" y="513" type="curve" smooth="yes"/>
      <point x="464" y="513" type="line" smooth="yes"/>
      <point x="451" y="513"/>
      <point x="442" y="502"/>
      <point x="432" y="483" type="curve" smooth="yes"/>
      <point x="423" y="466" type="line"/>
      <point x="421" y="466" type="line"/>
      <point x="393" y="508"/>
      <point x="353" y="522"/>
      <point x="318" y="522" type="curve" smooth="yes"/>
      <point x="245" y="522"/>
      <point x="179" y="489"/>
      <point x="119" y="422" type="curve" smooth="yes"/>
      <point x="60" y="355"/>
      <point x="30" y="276"/>
      <point x="30" y="185" type="curve" smooth="yes"/>
      <point x="30" y="85"/>
      <point x="89" y="-10"/>
      <point x="194" y="-10" type="curve" smooth="yes"/>
    </contour>
    <contour>
      <point x="221" y="86"/>
      <point x="206" y="94"/>
      <point x="193" y="110" type="curve" smooth="yes"/>
      <point x="181" y="126"/>
      <point x="175" y="148"/>
      <point x="175" y="176" type="curve" smooth="yes"/>
      <point x="175" y="302"/>
      <point x="234" y="427"/>
      <point x="316" y="427" type="curve" smooth="yes"/>
      <point x="371" y="427"/>
      <point x="391" y="395"/>
      <point x="391" y="332" type="curve"/>
      <point x="373" y="255" type="line" smooth="yes"/>
      <point x="347" y="146"/>
      <point x="294" y="86"/>
      <point x="236" y="86" type="curve" smooth="yes"/>
    </contour>
    <contour>
      <point x="458" y="10" type="move" name="ogonek"/>
    </contour>
    <contour>
      <point x="229" y="0" type="move" name="bottom"/>
    </contour>
    <contour>
      <point x="347" y="513" type="move" name="top"/>
    </contour>
  </outline>
</glyph>
<glyph name="b" format="1">
  <advance width="582"/>
  <unicode hex="0062"/>
  <outline>
    <contour>
      <point x="427" y="-10"/>
      <point x="551" y="147"/>
      <point x="551" y="318" type="curve" smooth="yes"/>
      <point x="551" y="421"/>
      <point x="504" y="522"/>
      <point x="374" y="522" type="curve" smooth="yes"/>
      <point x="321" y="522"/>
      <point x="292" y="498"/>
      <point x="248" y="445" type="curve"/>
      <point x="246" y="445" type="line"/>
      <point x="251" y="462"/>
      <point x="255" y="475"/>
      <point x="257" y="484" type="curve" smooth="yes"/>
      <point x="304" y="691" type="line" smooth="yes"/>
      <point x="305" y="694"/>
      <point x="305" y="697"/>
      <point x="305" y="702" type="curve" smooth="yes"/>
      <point x="305" y="715"/>
      <point x="297" y="721"/>
      <point x="282" y="721" type="curve" smooth="yes"/>
      <point x="204" y="721" type="line" smooth="yes"/>
      <point x="185" y="721"/>
      <point x="171" y="711"/>
      <point x="167" y="691" type="curve" smooth="yes"/>
      <point x="15" y="29" type="line" smooth="yes"/>
      <point x="14" y="26"/>
      <point x="14" y="23"/>
      <point x="14" y="19" type="curve" smooth="yes"/>
      <point x="14" y="6"/>
      <point x="22" y="0"/>
      <point x="37" y="0" type="curve" smooth="yes"/>
      <point x="114" y="0" type="line" smooth="yes"/>
      <point x="130" y="0"/>
      <point x="141" y="10"/>
      <point x="147" y="29" type="curve" smooth="yes"/>
      <point x="153" y="47" type="line"/>
      <point x="155" y="47" type="line"/>
      <point x="183" y="-1"/>
      <point x="240" y="-10"/>
      <point x="291" y="-10" type="curve" smooth="yes"/>
    </contour>
    <contour>
      <point x="235" y="86"/>
      <point x="213" y="94"/>
      <point x="202" y="110" type="curve" smooth="yes"/>
      <point x="191" y="125"/>
      <point x="186" y="149"/>
      <point x="186" y="181" type="curve"/>
      <point x="204" y="258" type="line" smooth="yes"/>
      <point x="230" y="369"/>
      <point x="293" y="427"/>
      <point x="336" y="427" type="curve" smooth="yes"/>
      <point x="381" y="427"/>
      <point x="407" y="394"/>
      <point x="407" y="327" type="curve" smooth="yes"/>
      <point x="407" y="207"/>
      <point x="357" y="86"/>
      <point x="268" y="86" type="curve" smooth="yes"/>
    </contour>
    <contour>
      <point x="350" y="513" type="move" name="top"/>
    </contour>
    <contour>
      <point x="232" y="0" type="move" name="bottom"/>
    </contour>
  </outline>
</glyph>
<glyph name="c" format="1">
  <advance width="530"/>
  <unicode hex="0063"/>
  <outline>
    <contour>
      <point x="384" y="-10"/>
      <point x="459" y="64"/>
      <point x="459" y="94" type="curve" smooth="yes"/>
      <point x="459" y="101"/>
      <point x="456" y="107"/>
      <point x="450" y="113" type="curve" smooth="yes"/>
      <point x="411" y="149" type="line" smooth="yes"/>
      <point x="404" y="156"/>
      <point x="398" y="159"/>
      <point x="391" y="159" type="curve" smooth="yes"/>
      <point x="376" y="159"/>
      <point x="344" y="116"/>
      <point x="324" y="102" type="curve" smooth="yes"/>
      <point x="308" y="91"/>
      <point x="288" y="86"/>
      <point x="262" y="86" type="curve" smooth="yes"/>
      <point x="206" y="86"/>
      <point x="173" y="122"/>
      <point x="173" y="189" type="curve" smooth="yes"/>
      <point x="173" y="342"/>
      <point x="251" y="427"/>
      <point x="324" y="427" type="curve" smooth="yes"/>
      <point x="396" y="427"/>
      <point x="404" y="367"/>
      <point x="429" y="367" type="curve" smooth="yes"/>
      <point x="432" y="367"/>
      <point x="436" y="368"/>
      <point x="441" y="371" type="curve" smooth="yes"/>
      <point x="494" y="407" type="line" smooth="yes"/>
      <point x="503" y="413"/>
      <point x="508" y="420"/>
      <point x="508" y="427" type="curve" smooth="yes"/>
      <point x="508" y="451"/>
      <point x="462" y="487"/>
      <point x="439" y="500" type="curve" smooth="yes"/>
      <point x="413" y="514"/>
      <point x="379" y="522"/>
      <point x="329" y="522" type="curve" smooth="yes"/>
      <point x="238" y="522"/>
      <point x="165" y="487"/>
      <point x="110" y="418" type="curve" smooth="yes"/>
      <point x="55" y="348"/>
      <point x="28" y="276"/>
      <point x="28" y="201" type="curve" smooth="yes"/>
      <point x="28" y="89"/>
      <point x="82" y="-10"/>
      <point x="253" y="-10" type="curve" smooth="yes"/>
    </contour>
    <contour>
      <point x="324" y="513" type="move" name="top"/>
    </contour>
    <contour>
      <point x="206" y="0" type="move" name="bottom"/>
    </contour>
  </outline>
</glyph>
<glyph name="d" format="1">
  <advance width="582"/>
  <unicode hex="0064"/>
  <outline>
    <contour>
      <point x="256" y="-10"/>
      <point x="289" y="10"/>
      <point x="336" y="67" type="curve"/>
      <point x="338" y="67" type="line"/>
      <point x="330" y="20" type="line"/>
      <point x="330" y="7"/>
      <point x="337" y="0"/>
      <point x="351" y="0" type="curve" smooth="yes"/>
      <point x="428" y="0" type="line" smooth="yes"/>
      <point x="446" y="0"/>
      <point x="459" y="10"/>
      <point x="464" y="29" type="curve" smooth="yes"/>
      <point x="617" y="691" type="line" smooth="yes"/>
      <point x="618" y="694"/>
      <point x="618" y="697"/>
      <point x="618" y="701" type="curve" smooth="yes"/>
      <point x="618" y="714"/>
      <point x="610" y="721"/>
      <point x="594" y="721" type="curve" smooth="yes"/>
      <point x="516" y="721" type="line" smooth="yes"/>
      <point x="496" y="721"/>
      <point x="484" y="711"/>
      <point x="480" y="691" type="curve" smooth="yes"/>
      <point x="430" y="466" type="line"/>
      <point x="428" y="466" type="line"/>
      <point x="397" y="514"/>
      <point x="349" y="522"/>
      <point x="292" y="522" type="curve" smooth="yes"/>
      <point x="224" y="522"/>
      <point x="163" y="489"/>
      <point x="110" y="423" type="curve"/>
      <point x="58" y="356"/>
      <point x="32" y="280"/>
      <point x="32" y="195" type="curve" smooth="yes"/>
      <point x="32" y="91"/>
      <point x="80" y="-10"/>
      <point x="209" y="-10" type="curve" smooth="yes"/>
    </contour>
    <contour>
      <point x="203" y="86"/>
      <point x="177" y="119"/>
      <point x="177" y="186" type="curve" smooth="yes"/>
      <point x="177" y="304"/>
      <point x="226" y="427"/>
      <point x="316" y="427" type="curve" smooth="yes"/>
      <point x="381" y="427"/>
      <point x="397" y="396"/>
      <point x="397" y="332" type="curve"/>
      <point x="379" y="255" type="line" smooth="yes"/>
      <point x="354" y="148"/>
      <point x="294" y="86"/>
      <point x="248" y="86" type="curve" smooth="yes"/>
    </contour>
    <contour>
      <point x="232" y="0" type="move" name="bottom"/>
    </contour>
    <contour>
      <point x="350" y="513" type="move" name="top"/>
    </contour>
    <contour>
      <point x="611" y="700" type="move" name="topright"/>
    </contour>
    <contour>
      <point x="291" y="257" type="move" name="center"/>
    </contour>
  </outline>
</glyph>
<glyph name="e" format="1">
  <advance width="562"/>
  <unicode hex="0065"/>
  <outline>
    <contour>
      <point x="358" y="-10"/>
      <point x="476" y="21"/>
      <point x="476" y="71" type="curve" smooth="yes"/>
      <point x="476" y="77"/>
      <point x="473" y="84"/>
      <point x="468" y="91" type="curve" smooth="yes"/>
      <point x="439" y="129" type="line"/>
      <point x="435" y="136"/>
      <point x="430" y="139"/>
      <point x="423" y="139" type="curve" smooth="yes"/>
      <point x="402" y="139"/>
      <point x="342" y="86"/>
      <point x="270" y="86" type="curve" smooth="yes"/>
      <point x="184" y="86"/>
      <point x="174" y="135"/>
      <point x="174" y="173" type="curve" smooth="yes"/>
      <point x="174" y="187" type="line"/>
      <point x="276" y="204" type="line" smooth="yes"/>
      <point x="439" y="231"/>
      <point x="539" y="251"/>
      <point x="539" y="378" type="curve" smooth="yes"/>
      <point x="539" y="449"/>
      <point x="468" y="522"/>
      <point x="332" y="522" type="curve" smooth="yes"/>
      <point x="237" y="522"/>
      <point x="163" y="488"/>
      <point x="109" y="419" type="curve" smooth="yes"/>
      <point x="55" y="350"/>
      <point x="28" y="278"/>
      <point x="28" y="203" type="curve" smooth="yes"/>
      <point x="28" y="87"/>
      <point x="78" y="-10"/>
      <point x="261" y="-10" type="curve" smooth="yes"/>
    </contour>
    <contour>
      <point x="203" y="364"/>
      <point x="252" y="427"/>
      <point x="333" y="427" type="curve" smooth="yes"/>
      <point x="382" y="427"/>
      <point x="423" y="403"/>
      <point x="423" y="367" type="curve" smooth="yes"/>
      <point x="423" y="348"/>
      <point x="409" y="332"/>
      <point x="381" y="320" type="curve" smooth="yes"/>
      <point x="348" y="307"/>
      <point x="317" y="301"/>
      <point x="288" y="296" type="curve" smooth="yes"/>
      <point x="181" y="278" type="line"/>
    </contour>
    <contour>
      <point x="447" y="10" type="move" name="ogonek"/>
    </contour>
    <contour>
      <point x="222" y="0" type="move" name="bottom"/>
    </contour>
    <contour>
      <point x="340" y="513" type="move" name="top"/>
    </contour>
  </outline>
</glyph>
<glyph name="f" format="1">
  <advance width="333"/>
  <unicode hex="0066"/>
  <outline>
    <contour>
      <point x="81" y="-195" type="line" smooth="yes"/>
      <point x="99" y="-195"/>
      <point x="112" y="-185"/>
      <point x="117" y="-166" type="curve"/>
      <point x="250" y="415" type="line"/>
      <point x="315" y="415" type="line" smooth="yes"/>
      <point x="334" y="415"/>
      <point x="346" y="423"/>
      <point x="350" y="439" type="curve" smooth="yes"/>
      <point x="361" y="488" type="line" smooth="yes"/>
      <point x="362" y="491"/>
      <point x="362" y="493"/>
      <point x="362" y="496" type="curve" smooth="yes"/>
      <point x="362" y="507"/>
      <point x="354" y="513"/>
      <point x="337" y="513" type="curve" smooth="yes"/>
      <point x="273" y="513" type="line"/>
      <point x="278" y="532" type="line" smooth="yes"/>
      <point x="298" y="604"/>
      <point x="301" y="635"/>
      <point x="354" y="635" type="curve" smooth="yes"/>
      <point x="382" y="635"/>
      <point x="406" y="625"/>
      <point x="424" y="625" type="curve" smooth="yes"/>
      <point x="431" y="625"/>
      <point x="435" y="628"/>
      <point x="437" y="633" type="curve" smooth="yes"/>
      <point x="459" y="686" type="line" smooth="yes"/>
      <point x="460" y="689"/>
      <point x="461" y="692"/>
      <point x="461" y="697" type="curve" smooth="yes"/>
      <point x="461" y="721"/>
      <point x="387" y="730"/>
      <point x="357" y="730" type="curve" smooth="yes"/>
      <point x="240" y="730"/>
      <point x="177" y="686"/>
      <point x="152" y="581" type="curve" smooth="yes"/>
      <point x="136" y="513" type="line"/>
      <point x="109" y="513" type="line" smooth="yes"/>
      <point x="90" y="513"/>
      <point x="79" y="505"/>
      <point x="75" y="488" type="curve" smooth="yes"/>
      <point x="63" y="439" type="line" smooth="yes"/>
      <point x="62" y="437"/>
      <point x="62" y="435"/>
      <point x="62" y="433" type="curve" smooth="yes"/>
      <point x="62" y="421"/>
      <point x="70" y="415"/>
      <point x="86" y="415" type="curve" smooth="yes"/>
      <point x="114" y="415" type="line"/>
      <point x="-20" y="-166" type="line" smooth="yes"/>
      <point x="-21" y="-169"/>
      <point x="-21" y="-172"/>
      <point x="-21" y="-176" type="curve" smooth="yes"/>
      <point x="-21" y="-189"/>
      <point x="-13" y="-195"/>
      <point x="2" y="-195" type="curve" smooth="yes"/>
    </contour>
    <contour>
      <point x="267" y="700" type="move" name="top"/>
    </contour>
    <contour>
      <point x="108" y="0" type="move" name="bottom"/>
    </contour>
  </outline>
</glyph>
<glyph name="g" format="1">
  <advance width="582"/>
  <unicode hex="0067"/>
  <outline>
    <contour>
      <point x="335" y="-205"/>
      <point x="424" y="-147"/>
      <point x="458" y="5" type="curve"/>
      <point x="569" y="483" type="line" smooth="yes"/>
      <point x="570" y="486"/>
      <point x="570" y="489"/>
      <point x="570" y="493" type="curve" smooth="yes"/>
      <point x="570" y="506"/>
      <point x="562" y="513"/>
      <point x="546" y="513" type="curve" smooth="yes"/>
      <point x="469" y="513" type="line" smooth="yes"/>
      <point x="452" y="513"/>
      <point x="443" y="503"/>
      <point x="436" y="483" type="curve" smooth="yes"/>
      <point x="430" y="466" type="line"/>
      <point x="428" y="466" type="line"/>
      <point x="397" y="514"/>
      <point x="349" y="522"/>
      <point x="292" y="522" type="curve" smooth="yes"/>
      <point x="224" y="522"/>
      <point x="163" y="489"/>
      <point x="110" y="423" type="curve"/>
      <point x="58" y="356"/>
      <point x="32" y="281"/>
      <point x="32" y="196" type="curve" smooth="yes"/>
      <point x="32" y="107"/>
      <point x="78" y="-5"/>
      <point x="210" y="-5" type="curve" smooth="yes"/>
      <point x="262" y="-5"/>
      <point x="289" y="16"/>
      <point x="337" y="72" type="curve"/>
      <point x="339" y="72" type="line"/>
      <point x="334" y="57"/>
      <point x="330" y="44"/>
      <point x="328" y="33" type="curve" smooth="yes"/>
      <point x="324" y="15" type="line" smooth="yes"/>
      <point x="302" y="-86"/>
      <point x="239" y="-109"/>
      <point x="166" y="-109" type="curve" smooth="yes"/>
      <point x="123" y="-109"/>
      <point x="85" y="-100"/>
      <point x="50" y="-83" type="curve" smooth="yes"/>
      <point x="45" y="-80"/>
      <point x="39" y="-79"/>
      <point x="34" y="-79" type="curve" smooth="yes"/>
      <point x="25" y="-79"/>
      <point x="17" y="-84"/>
      <point x="12" y="-93" type="curve" smooth="yes"/>
      <point x="-9" y="-128" type="line" smooth="yes"/>
      <point x="-14" y="-135"/>
      <point x="-16" y="-142"/>
      <point x="-16" y="-149" type="curve" smooth="yes"/>
      <point x="-16" y="-170"/>
      <point x="45" y="-191"/>
      <point x="69" y="-197" type="curve" smooth="yes"/>
      <point x="91" y="-203"/>
      <point x="122" y="-205"/>
      <point x="159" y="-205" type="curve" smooth="yes"/>
    </contour>
    <contour>
      <point x="205" y="90"/>
      <point x="177" y="128"/>
      <point x="177" y="187" type="curve" smooth="yes"/>
      <point x="177" y="304"/>
      <point x="226" y="427"/>
      <point x="316" y="427" type="curve" smooth="yes"/>
      <point x="381" y="427"/>
      <point x="397" y="396"/>
      <point x="397" y="332" type="curve"/>
      <point x="379" y="255" type="line" smooth="yes"/>
      <point x="356" y="158"/>
      <point x="295" y="90"/>
      <point x="249" y="90" type="curve" smooth="yes"/>
    </contour>
    <contour>
      <point x="350" y="513" type="move" name="top"/>
    </contour>
    <contour>
      <point x="232" y="0" type="move" name="bottom"/>
    </contour>
  </outline>
</glyph>
<glyph name="h" format="1">
  <advance width="586"/>
  <unicode hex="0068"/>
  <outline>
    <contour>
      <point x="115" y="0" type="line" smooth="yes"/>
      <point x="135" y="0"/>
      <point x="147" y="10"/>
      <point x="151" y="29" type="curve" smooth="yes"/>
      <point x="192" y="207" type="line" smooth="yes"/>
      <point x="224" y="348"/>
      <point x="278" y="427"/>
      <point x="346" y="427" type="curve" smooth="yes"/>
      <point x="384" y="427"/>
      <point x="402" y="410"/>
      <point x="402" y="369" type="curve" smooth="yes"/>
      <point x="402" y="343"/>
      <point x="397" y="308"/>
      <point x="386" y="265" type="curve"/>
      <point x="332" y="29" type="line" smooth="yes"/>
      <point x="331" y="27"/>
      <point x="331" y="24"/>
      <point x="331" y="20" type="curve" smooth="yes"/>
      <point x="331" y="7"/>
      <point x="339" y="0"/>
      <point x="354" y="0" type="curve" smooth="yes"/>
      <point x="433" y="0" type="line" smooth="yes"/>
      <point x="451" y="0"/>
      <point x="464" y="10"/>
      <point x="469" y="29" type="curve" smooth="yes"/>
      <point x="531" y="300" type="line" smooth="yes"/>
      <point x="538" y="333"/>
      <point x="542" y="362"/>
      <point x="542" y="385" type="curve" smooth="yes"/>
      <point x="542" y="481"/>
      <point x="478" y="522"/>
      <point x="407" y="522" type="curve" smooth="yes"/>
      <point x="341" y="522"/>
      <point x="302" y="509"/>
      <point x="248" y="445" type="curve"/>
      <point x="246" y="445" type="line"/>
      <point x="251" y="462"/>
      <point x="255" y="475"/>
      <point x="257" y="484" type="curve" smooth="yes"/>
      <point x="304" y="691" type="line" smooth="yes"/>
      <point x="305" y="694"/>
      <point x="305" y="697"/>
      <point x="305" y="702" type="curve" smooth="yes"/>
      <point x="305" y="715"/>
      <point x="297" y="721"/>
      <point x="282" y="721" type="curve" smooth="yes"/>
      <point x="204" y="721" type="line" smooth="yes"/>
      <point x="185" y="721"/>
      <point x="171" y="711"/>
      <point x="167" y="691" type="curve" smooth="yes"/>
      <point x="15" y="29" type="line" smooth="yes"/>
      <point x="14" y="26"/>
      <point x="14" y="23"/>
      <point x="14" y="19" type="curve" smooth="yes"/>
      <point x="14" y="6"/>
      <point x="22" y="0"/>
      <point x="37" y="0" type="curve" smooth="yes"/>
    </contour>
    <contour>
      <point x="293" y="257" type="move" name="center"/>
    </contour>
    <contour>
      <point x="234" y="0" type="move" name="bottom"/>
    </contour>
    <contour>
      <point x="224" y="700" type="move" name="top"/>
    </contour>
  </outline>
</glyph>
<glyph name="k" format="1">
  <advance width="546"/>
  <unicode hex="006B"/>
  <outline>
    <contour>
      <point x="115" y="0" type="line" smooth="yes"/>
      <point x="135" y="0"/>
      <point x="147" y="10"/>
      <point x="151" y="29" type="curve" smooth="yes"/>
      <point x="173" y="125" type="line"/>
      <point x="263" y="210" type="line"/>
      <point x="337" y="25" type="line" smooth="yes"/>
      <point x="344" y="8"/>
      <point x="355" y="0"/>
      <point x="371" y="0" type="curve" smooth="yes"/>
      <point x="441" y="0" type="line" smooth="yes"/>
      <point x="460" y="0"/>
      <point x="469" y="6"/>
      <point x="469" y="18" type="curve" smooth="yes"/>
      <point x="469" y="22"/>
      <point x="467" y="28"/>
      <point x="464" y="36" type="curve" smooth="yes"/>
      <point x="355" y="295" type="line"/>
      <point x="544" y="477" type="line" smooth="yes"/>
      <point x="555" y="488"/>
      <point x="561" y="497"/>
      <point x="561" y="502" type="curve" smooth="yes"/>
      <point x="561" y="509"/>
      <point x="553" y="513"/>
      <point x="537" y="513" type="curve" smooth="yes"/>
      <point x="444" y="513" type="line" smooth="yes"/>
      <point x="430" y="513"/>
      <point x="416" y="506"/>
      <point x="401" y="493" type="curve"/>
      <point x="217" y="312" type="line"/>
      <point x="215" y="312" type="line"/>
      <point x="226" y="351" type="line"/>
      <point x="304" y="691" type="line" smooth="yes"/>
      <point x="305" y="694"/>
      <point x="305" y="697"/>
      <point x="305" y="702" type="curve" smooth="yes"/>
      <point x="305" y="715"/>
      <point x="297" y="721"/>
      <point x="282" y="721" type="curve" smooth="yes"/>
      <point x="204" y="721" type="line" smooth="yes"/>
      <point x="185" y="721"/>
      <point x="171" y="711"/>
      <point x="167" y="691" type="curve" smooth="yes"/>
      <point x="15" y="29" type="line" smooth="yes"/>
      <point x="14" y="26"/>
      <point x="14" y="23"/>
      <point x="14" y="19" type="curve" smooth="yes"/>
      <point x="14" y="6"/>
      <point x="22" y="0"/>
      <point x="37" y="0" type="curve" smooth="yes"/>
    </contour>
    <contour>
      <point x="332" y="513" type="move" name="top"/>
    </contour>
    <contour>
      <point x="214" y="0" type="move" name="bottom"/>
    </contour>
  </outline>
</glyph>
<glyph name="l" format="1">
  <advance width="270"/>
  <unicode hex="006C"/>
  <outline>
    <contour>
      <point x="115" y="0" type="line" smooth="yes"/>
      <point x="135" y="0"/>
      <point x="146" y="10"/>
      <point x="151" y="29" type="curve" smooth="yes"/>
      <point x="307" y="701" type="line" smooth="yes"/>
      <point x="308" y="703"/>
      <point x="308" y="706"/>
      <point x="308" y="710" type="curve" smooth="yes"/>
      <point x="308" y="723"/>
      <point x="300" y="730"/>
      <point x="284" y="730" type="curve" smooth="yes"/>
      <point x="250" y="730" type="line" smooth="yes"/>
      <point x="240" y="730"/>
      <point x="230" y="724"/>
      <point x="220" y="712" type="curve" smooth="yes"/>
      <point x="167" y="646" type="line" smooth="yes"/>
      <point x="157" y="633"/>
      <point x="151" y="619"/>
      <point x="148" y="606" type="curve" smooth="yes"/>
      <point x="15" y="29" type="line" smooth="yes"/>
      <point x="14" y="26"/>
      <point x="14" y="23"/>
      <point x="14" y="19" type="curve" smooth="yes"/>
      <point x="14" y="6"/>
      <point x="22" y="0"/>
      <point x="37" y="0" type="curve" smooth="yes"/>
    </contour>
    <contour>
      <point x="76" y="0" type="move" name="bottom"/>
    </contour>
    <contour>
      <point x="194" y="513" type="move" name="top"/>
    </contour>
    <contour>
      <point x="324" y="700" type="move" name="topright"/>
    </contour>
    <contour>
      <point x="135" y="257" type="move" name="center"/>
    </contour>
  </outline>
</glyph>
<glyph name="m" format="1">
  <advance width="854"/>
  <unicode hex="006D"/>
  <outline>
    <contour>
      <point x="115" y="0" type="line" smooth="yes"/>
      <point x="135" y="0"/>
      <point x="146" y="10"/>
      <point x="151" y="29" type="curve" smooth="yes"/>
      <point x="191" y="201" type="line" smooth="yes"/>
      <point x="227" y="357"/>
      <point x="290" y="427"/>
      <point x="334" y="427" type="curve" smooth="yes"/>
      <point x="362" y="427"/>
      <point x="376" y="408"/>
      <point x="376" y="370" type="curve" smooth="yes"/>
      <point x="376" y="345"/>
      <point x="370" y="303"/>
      <point x="357" y="244" type="curve" smooth="yes"/>
      <point x="308" y="29" type="line" smooth="yes"/>
      <point x="307" y="26"/>
      <point x="307" y="23"/>
      <point x="307" y="19" type="curve" smooth="yes"/>
      <point x="307" y="6"/>
      <point x="315" y="0"/>
      <point x="330" y="0" type="curve" smooth="yes"/>
      <point x="408" y="0" type="line" smooth="yes"/>
      <point x="428" y="0"/>
      <point x="439" y="10"/>
      <point x="444" y="29" type="curve" smooth="yes"/>
      <point x="484" y="201" type="line" smooth="yes"/>
      <point x="530" y="399"/>
      <point x="581" y="427"/>
      <point x="627" y="427" type="curve" smooth="yes"/>
      <point x="656" y="427"/>
      <point x="669" y="409"/>
      <point x="669" y="368" type="curve"/>
      <point x="668" y="343"/>
      <point x="663" y="305"/>
      <point x="652" y="254" type="curve" smooth="yes"/>
      <point x="601" y="29" type="line" smooth="yes"/>
      <point x="600" y="26"/>
      <point x="600" y="23"/>
      <point x="600" y="19" type="curve" smooth="yes"/>
      <point x="600" y="6"/>
      <point x="608" y="0"/>
      <point x="623" y="0" type="curve" smooth="yes"/>
      <point x="701" y="0" type="line" smooth="yes"/>
      <point x="721" y="0"/>
      <point x="733" y="10"/>
      <point x="737" y="29" type="curve" smooth="yes"/>
      <point x="798" y="293" type="line" smooth="yes"/>
      <point x="807" y="331"/>
      <point x="811" y="362"/>
      <point x="811" y="386" type="curve" smooth="yes"/>
      <point x="811" y="482"/>
      <point x="744" y="522"/>
      <point x="680" y="522" type="curve" smooth="yes"/>
      <point x="599" y="522"/>
      <point x="544" y="485"/>
      <point x="493" y="410" type="curve"/>
      <point x="491" y="410" type="line"/>
      <point x="491" y="463"/>
      <point x="460" y="522"/>
      <point x="377" y="522" type="curve" smooth="yes"/>
      <point x="325" y="522"/>
      <point x="275" y="481"/>
      <point x="247" y="439" type="curve"/>
      <point x="245" y="439" type="line"/>
      <point x="255" y="483" type="line" smooth="yes"/>
      <point x="256" y="486"/>
      <point x="256" y="489"/>
      <point x="256" y="493" type="curve" smooth="yes"/>
      <point x="256" y="506"/>
      <point x="248" y="513"/>
      <point x="232" y="513" type="curve" smooth="yes"/>
      <point x="155" y="513" type="line" smooth="yes"/>
      <point x="135" y="513"/>
      <point x="124" y="503"/>
      <point x="120" y="483" type="curve" smooth="yes"/>
      <point x="15" y="29" type="line" smooth="yes"/>
      <point x="14" y="26"/>
      <point x="14" y="23"/>
      <point x="14" y="19" type="curve" smooth="yes"/>
      <point x="14" y="6"/>
      <point x="22" y="0"/>
      <point x="37" y="0" type="curve" smooth="yes"/>
    </contour>
    <contour>
      <point x="486" y="513" type="move" name="top"/>
    </contour>
    <contour>
      <point x="368" y="0" type="move" name="bottom"/>
    </contour>
  </outline>
</glyph>
<glyph name="n" format="1">
  <advance width="586"/>
  <unicode hex="006E"/>
  <outline>
    <contour>
      <point x="115" y="0" type="line" smooth="yes"/>
      <point x="135" y="0"/>
      <point x="147" y="10"/>
      <point x="151" y="29" type="curve" smooth="yes"/>
      <point x="192" y="207" type="line" smooth="yes"/>
      <point x="224" y="348"/>
      <point x="278" y="427"/>
      <point x="346" y="427" type="curve" smooth="yes"/>
      <point x="384" y="427"/>
      <point x="402" y="410"/>
      <point x="402" y="369" type="curve" smooth="yes"/>
      <point x="402" y="343"/>
      <point x="397" y="308"/>
      <point x="386" y="265" type="curve"/>
      <point x="332" y="29" type="line" smooth="yes"/>
      <point x="331" y="27"/>
      <point x="331" y="24"/>
      <point x="331" y="20" type="curve" smooth="yes"/>
      <point x="331" y="7"/>
      <point x="339" y="0"/>
      <point x="354" y="0" type="curve" smooth="yes"/>
      <point x="433" y="0" type="line" smooth="yes"/>
      <point x="451" y="0"/>
      <point x="464" y="10"/>
      <point x="469" y="29" type="curve" smooth="yes"/>
      <point x="531" y="300" type="line" smooth="yes"/>
      <point x="538" y="333"/>
      <point x="542" y="362"/>
      <point x="542" y="385" type="curve" smooth="yes"/>
      <point x="542" y="481"/>
      <point x="478" y="522"/>
      <point x="407" y="522" type="curve" smooth="yes"/>
      <point x="341" y="522"/>
      <point x="302" y="509"/>
      <point x="248" y="445" type="curve"/>
      <point x="246" y="445" type="line"/>
      <point x="255" y="483" type="line" smooth="yes"/>
      <point x="256" y="486"/>
      <point x="256" y="489"/>
      <point x="256" y="493" type="curve" smooth="yes"/>
      <point x="256" y="506"/>
      <point x="248" y="513"/>
      <point x="232" y="513" type="curve" smooth="yes"/>
      <point x="155" y="513" type="line" smooth="yes"/>
      <point x="135" y="513"/>
      <point x="124" y="503"/>
      <point x="120" y="483" type="curve" smooth="yes"/>
      <point x="15" y="29" type="line" smooth="yes"/>
      <point x="14" y="26"/>
      <point x="14" y="23"/>
      <point x="14" y="19" type="curve" smooth="yes"/>
      <point x="14" y="6"/>
      <point x="22" y="0"/>
      <point x="37" y="0" type="curve" smooth="yes"/>
    </contour>
    <contour>
      <point x="352" y="513" type="move" name="top"/>
    </contour>
    <contour>
      <point x="234" y="0" type="move" name="bottom"/>
    </contour>
  </outline>
</glyph>
<glyph name="o" format="1">
  <advance width="589"/>
  <unicode hex="006F"/>
  <outline>
    <contour>
      <point x="350" y="-10"/>
      <point x="425" y="25"/>
      <point x="480" y="96" type="curve" smooth="yes"/>
      <point x="535" y="167"/>
      <point x="562" y="238"/>
      <point x="562" y="312" type="curve" smooth="yes"/>
      <point x="562" y="420"/>
      <point x="510" y="522"/>
      <point x="337" y="522" type="curve" smooth="yes"/>
      <point x="240" y="522"/>
      <point x="164" y="487"/>
      <point x="109" y="417" type="curve"/>
      <point x="55" y="346"/>
      <point x="28" y="274"/>
      <point x="28" y="201" type="curve" smooth="yes"/>
      <point x="28" y="89"/>
      <point x="82" y="-10"/>
      <point x="253" y="-10" type="curve" smooth="yes"/>
    </contour>
    <contour>
      <point x="207" y="86"/>
      <point x="173" y="124"/>
      <point x="173" y="189" type="curve" smooth="yes"/>
      <point x="173" y="340"/>
      <point x="248" y="427"/>
      <point x="328" y="427" type="curve" smooth="yes"/>
      <point x="383" y="427"/>
      <point x="417" y="389"/>
      <point x="417" y="324" type="curve" smooth="yes"/>
      <point x="417" y="176"/>
      <point x="343" y="86"/>
      <point x="262" y="86" type="curve" smooth="yes"/>
    </contour>
    <contour>
      <point x="236" y="0" type="move" name="bottom"/>
    </contour>
    <contour>
      <point x="471" y="10" type="move" name="ogonek"/>
    </contour>
    <contour>
      <point x="354" y="513" type="move" name="top"/>
    </contour>
    <contour>
      <point x="628" y="513" type="move" name="topright"/>
    </contour>
    <contour>
      <point x="295" y="257" type="move" name="center"/>
    </contour>
  </outline>
</glyph>
<glyph name="q" format="1">
  <advance width="582"/>
  <unicode hex="0071"/>
  <outline>
    <contour>
      <point x="383" y="-195" type="line" smooth="yes"/>
      <point x="403" y="-195"/>
      <point x="415" y="-185"/>
      <point x="419" y="-166" type="curve" smooth="yes"/>
      <point x="569" y="483" type="line" smooth="yes"/>
      <point x="570" y="486"/>
      <point x="570" y="489"/>
      <point x="570" y="493" type="curve" smooth="yes"/>
      <point x="570" y="506"/>
      <point x="562" y="513"/>
      <point x="546" y="513" type="curve" smooth="yes"/>
      <point x="469" y="513" type="line" smooth="yes"/>
      <point x="452" y="513"/>
      <point x="443" y="503"/>
      <point x="436" y="483" type="curve" smooth="yes"/>
      <point x="430" y="466" type="line"/>
      <point x="428" y="466" type="line"/>
      <point x="397" y="514"/>
      <point x="349" y="522"/>
      <point x="292" y="522" type="curve" smooth="yes"/>
      <point x="224" y="522"/>
      <point x="163" y="489"/>
      <point x="110" y="423" type="curve"/>
      <point x="58" y="356"/>
      <point x="32" y="280"/>
      <point x="32" y="195" type="curve" smooth="yes"/>
      <point x="32" y="91"/>
      <point x="80" y="-10"/>
      <point x="209" y="-10" type="curve" smooth="yes"/>
      <point x="256" y="-10"/>
      <point x="289" y="10"/>
      <point x="336" y="67" type="curve"/>
      <point x="338" y="67" type="line"/>
      <point x="338" y="67"/>
      <point x="338" y="67"/>
      <point x="338" y="67" type="curve"/>
      <point x="338" y="67"/>
      <point x="334" y="54"/>
      <point x="327" y="28" type="curve"/>
      <point x="282" y="-166" type="line" smooth="yes"/>
      <point x="281" y="-169"/>
      <point x="281" y="-172"/>
      <point x="281" y="-176" type="curve" smooth="yes"/>
      <point x="281" y="-189"/>
      <point x="289" y="-195"/>
      <point x="305" y="-195" type="curve" smooth="yes"/>
    </contour>
    <contour>
      <point x="203" y="86"/>
      <point x="177" y="119"/>
      <point x="177" y="186" type="curve" smooth="yes"/>
      <point x="177" y="304"/>
      <point x="226" y="427"/>
      <point x="316" y="427" type="curve" smooth="yes"/>
      <point x="381" y="427"/>
      <point x="397" y="396"/>
      <point x="397" y="332" type="curve"/>
      <point x="379" y="255" type="line" smooth="yes"/>
      <point x="354" y="148"/>
      <point x="294" y="86"/>
      <point x="248" y="86" type="curve" smooth="yes"/>
    </contour>
    <contour>
      <point x="350" y="513" type="move" name="top"/>
    </contour>
    <contour>
      <point x="232" y="0" type="move" name="bottom"/>
    </contour>
  </outline>
</glyph>
<glyph name="r" format="1">
  <advance width="384"/>
  <unicode hex="0072"/>
  <outline>
    <contour>
      <point x="115" y="0" type="line" smooth="yes"/>
      <point x="135" y="0"/>
      <point x="146" y="10"/>
      <point x="151" y="29" type="curve" smooth="yes"/>
      <point x="184" y="169" type="line" smooth="yes"/>
      <point x="224" y="340"/>
      <point x="295" y="427"/>
      <point x="352" y="427" type="curve" smooth="yes"/>
      <point x="364" y="427"/>
      <point x="381" y="420"/>
      <point x="389" y="420" type="curve" smooth="yes"/>
      <point x="397" y="420"/>
      <point x="403" y="425"/>
      <point x="407" y="434" type="curve" smooth="yes"/>
      <point x="428" y="492" type="line" smooth="yes"/>
      <point x="429" y="495"/>
      <point x="430" y="498"/>
      <point x="430" y="502" type="curve" smooth="yes"/>
      <point x="430" y="519"/>
      <point x="404" y="522"/>
      <point x="375" y="522" type="curve" smooth="yes"/>
      <point x="314" y="522"/>
      <point x="267" y="475"/>
      <point x="242" y="423" type="curve"/>
      <point x="240" y="423" type="line"/>
      <point x="253" y="483" type="line" smooth="yes"/>
      <point x="254" y="486"/>
      <point x="254" y="489"/>
      <point x="254" y="493" type="curve" smooth="yes"/>
      <point x="254" y="506"/>
      <point x="246" y="513"/>
      <point x="230" y="513" type="curve" smooth="yes"/>
      <point x="155" y="513" type="line" smooth="yes"/>
      <point x="135" y="513"/>
      <point x="124" y="503"/>
      <point x="120" y="483" type="curve" smooth="yes"/>
      <point x="15" y="29" type="line" smooth="yes"/>
      <point x="14" y="26"/>
      <point x="14" y="23"/>
      <point x="14" y="19" type="curve" smooth="yes"/>
      <point x="14" y="6"/>
      <point x="22" y="0"/>
      <point x="37" y="0" type="curve" smooth="yes"/>
    </contour>
    <contour>
      <point x="291" y="513" type="move" name="top"/>
    </contour>
    <contour>
      <point x="83" y="0" type="move" name="bottom"/>
    </contour>
  </outline>
</glyph>
<glyph name="s" format="1">
  <advance width="491"/>
  <unicode hex="0073"/>
  <outline>
    <contour>
      <point x="304" y="-10"/>
      <point x="432" y="32"/>
      <point x="432" y="152" type="curve" smooth="yes"/>
      <point x="432" y="232"/>
      <point x="394" y="262"/>
      <point x="290" y="304" type="curve" smooth="yes"/>
      <point x="255" y="318" type="line" smooth="yes"/>
      <point x="226" y="330"/>
      <point x="214" y="353"/>
      <point x="214" y="376" type="curve" smooth="yes"/>
      <point x="214" y="409"/>
      <point x="247" y="427"/>
      <point x="283" y="427" type="curve" smooth="yes"/>
      <point x="330" y="427"/>
      <point x="391" y="393"/>
      <point x="408" y="393" type="curve" smooth="yes"/>
      <point x="415" y="393"/>
      <point x="421" y="396"/>
      <point x="425" y="401" type="curve" smooth="yes"/>
      <point x="456" y="441" type="line"/>
      <point x="461" y="446"/>
      <point x="463" y="452"/>
      <point x="463" y="458" type="curve" smooth="yes"/>
      <point x="463" y="483"/>
      <point x="380" y="522"/>
      <point x="300" y="522" type="curve" smooth="yes"/>
      <point x="163" y="522"/>
      <point x="79" y="471"/>
      <point x="79" y="366" type="curve"/>
      <point x="82" y="298"/>
      <point x="100" y="267"/>
      <point x="167" y="235" type="curve"/>
      <point x="250" y="200" type="line"/>
      <point x="281" y="189"/>
      <point x="297" y="171"/>
      <point x="297" y="147" type="curve" smooth="yes"/>
      <point x="297" y="112"/>
      <point x="270" y="86"/>
      <point x="209" y="86" type="curve" smooth="yes"/>
      <point x="162" y="86"/>
      <point x="112" y="97"/>
      <point x="78" y="118" type="curve" smooth="yes"/>
      <point x="68" y="124"/>
      <point x="60" y="127"/>
      <point x="53" y="127" type="curve" smooth="yes"/>
      <point x="46" y="127"/>
      <point x="41" y="124"/>
      <point x="37" y="117" type="curve" smooth="yes"/>
      <point x="10" y="73" type="line" smooth="yes"/>
      <point x="7" y="68"/>
      <point x="6" y="63"/>
      <point x="6" y="58" type="curve" smooth="yes"/>
      <point x="6" y="32"/>
      <point x="65" y="7"/>
      <point x="96" y="0" type="curve" smooth="yes"/>
      <point x="126" y="-7"/>
      <point x="163" y="-10"/>
      <point x="206" y="-10" type="curve" smooth="yes"/>
    </contour>
    <contour>
      <point x="305" y="513" type="move" name="top"/>
    </contour>
    <contour>
      <point x="187" y="0" type="move" name="bottom"/>
    </contour>
  </outline>
</glyph>
<glyph name="t" format="1">
  <advance width="390"/>
  <unicode hex="0074"/>
  <outline>
    <contour>
      <point x="254" y="-16"/>
      <point x="315" y="-4"/>
      <point x="315" y="23" type="curve"/>
      <point x="307" y="81" type="line" smooth="yes"/>
      <point x="306" y="90"/>
      <point x="303" y="94"/>
      <point x="296" y="94" type="curve"/>
      <point x="288" y="92" type="line"/>
      <point x="271" y="85"/>
      <point x="243" y="80"/>
      <point x="223" y="80" type="curve" smooth="yes"/>
      <point x="204" y="80"/>
      <point x="194" y="93"/>
      <point x="194" y="120" type="curve"/>
      <point x="193" y="136"/>
      <point x="197" y="154"/>
      <point x="201" y="173" type="curve" smooth="yes"/>
      <point x="256" y="415" type="line"/>
      <point x="335" y="415" type="line" smooth="yes"/>
      <point x="354" y="415"/>
      <point x="366" y="423"/>
      <point x="370" y="439" type="curve" smooth="yes"/>
      <point x="381" y="488" type="line" smooth="yes"/>
      <point x="382" y="491"/>
      <point x="382" y="493"/>
      <point x="382" y="496" type="curve" smooth="yes"/>
      <point x="382" y="507"/>
      <point x="374" y="513"/>
      <point x="358" y="513" type="curve" smooth="yes"/>
      <point x="279" y="513" type="line"/>
      <point x="305" y="625" type="line" smooth="yes"/>
      <point x="306" y="628"/>
      <point x="306" y="631"/>
      <point x="306" y="635" type="curve" smooth="yes"/>
      <point x="306" y="648"/>
      <point x="298" y="654"/>
      <point x="282" y="654" type="curve" smooth="yes"/>
      <point x="248" y="654" type="line" smooth="yes"/>
      <point x="239" y="654"/>
      <point x="229" y="648"/>
      <point x="219" y="636" type="curve" smooth="yes"/>
      <point x="166" y="570" type="line"/>
      <point x="155" y="558"/>
      <point x="149" y="545"/>
      <point x="146" y="530" type="curve" smooth="yes"/>
      <point x="142" y="513" type="line"/>
      <point x="109" y="513" type="line" smooth="yes"/>
      <point x="90" y="513"/>
      <point x="79" y="505"/>
      <point x="75" y="488" type="curve" smooth="yes"/>
      <point x="67" y="459"/>
      <point x="62" y="441"/>
      <point x="62" y="433" type="curve" smooth="yes"/>
      <point x="62" y="421"/>
      <point x="70" y="415"/>
      <point x="86" y="415" type="curve" smooth="yes"/>
      <point x="120" y="415" type="line"/>
      <point x="63" y="171" type="line"/>
      <point x="58" y="144"/>
      <point x="55" y="122"/>
      <point x="55" y="103" type="curve" smooth="yes"/>
      <point x="55" y="25"/>
      <point x="92" y="-16"/>
      <point x="188" y="-16" type="curve" smooth="yes"/>
    </contour>
    <contour>
      <point x="136" y="0" type="move" name="bottom"/>
    </contour>
    <contour>
      <point x="254" y="513" type="move" name="top"/>
    </contour>
    <contour>
      <point x="317" y="721" type="move" name="topright"/>
    </contour>
    <contour>
      <point x="173" y="323" type="move" name="center"/>
    </contour>
  </outline>
</glyph>
<glyph name="u" format="1">
  <advance width="583"/>
  <unicode hex="0075"/>
  <outline>
    <contour>
      <point x="245" y="-10"/>
      <point x="290" y="13"/>
      <point x="337" y="72" type="curve"/>
      <point x="339" y="72" type="line"/>
      <point x="329" y="29" type="line" smooth="yes"/>
      <point x="328" y="26"/>
      <point x="328" y="23"/>
      <point x="328" y="19" type="curve" smooth="yes"/>
      <point x="328" y="6"/>
      <point x="336" y="0"/>
      <point x="352" y="0" type="curve" smooth="yes"/>
      <point x="429" y="0" type="line" smooth="yes"/>
      <point x="447" y="0"/>
      <point x="460" y="10"/>
      <point x="465" y="29" type="curve" smooth="yes"/>
      <point x="570" y="483" type="line" smooth="yes"/>
      <point x="571" y="485"/>
      <point x="571" y="488"/>
      <point x="571" y="492" type="curve" smooth="yes"/>
      <point x="571" y="506"/>
      <point x="563" y="513"/>
      <point x="547" y="513" type="curve" smooth="yes"/>
      <point x="469" y="513" type="line" smooth="yes"/>
      <point x="450" y="513"/>
      <point x="437" y="503"/>
      <point x="433" y="483" type="curve" smooth="yes"/>
      <point x="394" y="310" type="line"/>
      <point x="359" y="166"/>
      <point x="305" y="86"/>
      <point x="240" y="86" type="curve" smooth="yes"/>
      <point x="205" y="86"/>
      <point x="185" y="102"/>
      <point x="185" y="141" type="curve"/>
      <point x="184" y="167"/>
      <point x="191" y="203"/>
      <point x="201" y="248" type="curve" smooth="yes"/>
      <point x="255" y="483" type="line" smooth="yes"/>
      <point x="256" y="486"/>
      <point x="256" y="489"/>
      <point x="256" y="493" type="curve" smooth="yes"/>
      <point x="256" y="506"/>
      <point x="248" y="513"/>
      <point x="232" y="513" type="curve" smooth="yes"/>
      <point x="154" y="513" type="line" smooth="yes"/>
      <point x="134" y="513"/>
      <point x="124" y="503"/>
      <point x="119" y="483" type="curve" smooth="yes"/>
      <point x="56" y="213" type="line" smooth="yes"/>
      <point x="48" y="180"/>
      <point x="45" y="151"/>
      <point x="45" y="128" type="curve" smooth="yes"/>
      <point x="45" y="33"/>
      <point x="108" y="-10"/>
      <point x="179" y="-10" type="curve" smooth="yes"/>
    </contour>
    <contour>
      <point x="466" y="10" type="move" name="ogonek"/>
    </contour>
    <contour>
      <point x="351" y="513" type="move" name="top"/>
    </contour>
    <contour>
      <point x="622" y="513" type="move" name="topright"/>
    </contour>
    <contour>
      <point x="233" y="0" type="move" name="bottom"/>
    </contour>
  </outline>
</glyph>
<glyph name="v" format="1">
  <advance width="492"/>
  <unicode hex="0076"/>
  <outline>
    <contour>
      <point x="236" y="0" type="line" smooth="yes"/>
      <point x="253" y="0"/>
      <point x="267" y="11"/>
      <point x="279" y="33" type="curve" smooth="yes"/>
      <point x="522" y="475" type="line" smooth="yes"/>
      <point x="529" y="487"/>
      <point x="532" y="495"/>
      <point x="532" y="500" type="curve" smooth="yes"/>
      <point x="532" y="509"/>
      <point x="526" y="513"/>
      <point x="515" y="513" type="curve" smooth="yes"/>
      <point x="419" y="513" type="line" smooth="yes"/>
      <point x="405" y="513"/>
      <point x="392" y="505"/>
      <point x="384" y="488" type="curve" smooth="yes"/>
      <point x="242" y="202" type="line"/>
      <point x="225" y="165"/>
      <point x="213" y="137"/>
      <point x="207" y="116" type="curve"/>
      <point x="204" y="116" type="line"/>
      <point x="207" y="130"/>
      <point x="208" y="151"/>
      <point x="208" y="176" type="curve" smooth="yes"/>
      <point x="208" y="184"/>
      <point x="208" y="193"/>
      <point x="208" y="202" type="curve" smooth="yes"/>
      <point x="199" y="488" type="line" smooth="yes"/>
      <point x="198" y="505"/>
      <point x="190" y="513"/>
      <point x="175" y="513" type="curve" smooth="yes"/>
      <point x="96" y="513" type="line" smooth="yes"/>
      <point x="79" y="513"/>
      <point x="71" y="502"/>
      <point x="71" y="482" type="curve" smooth="yes"/>
      <point x="71" y="480"/>
      <point x="71" y="477"/>
      <point x="71" y="475" type="curve" smooth="yes"/>
      <point x="111" y="33" type="line" smooth="yes"/>
      <point x="113" y="11"/>
      <point x="122" y="0"/>
      <point x="139" y="0" type="curve" smooth="yes"/>
    </contour>
    <contour>
      <point x="305" y="513" type="move" name="top"/>
    </contour>
    <contour>
      <point x="187" y="0" type="move" name="bottom"/>
    </contour>
  </outline>
</glyph>
<glyph name="w" format="1">
  <advance width="783"/>
  <unicode hex="0077"/>
  <outline>
    <contour>
      <point x="213" y="0" type="line" smooth="yes"/>
      <point x="232" y="0"/>
      <point x="246" y="11"/>
      <point x="256" y="33" type="curve" smooth="yes"/>
      <point x="413" y="364" type="line"/>
      <point x="418" y="380"/>
      <point x="422" y="391"/>
      <point x="423" y="396" type="curve"/>
      <point x="425" y="396" type="line"/>
      <point x="421" y="364" type="line" smooth="yes"/>
      <point x="421" y="361"/>
      <point x="420" y="351"/>
      <point x="420" y="340" type="curve" smooth="yes"/>
      <point x="420" y="334"/>
      <point x="421" y="328"/>
      <point x="421" y="322" type="curve" smooth="yes"/>
      <point x="425" y="33" type="line" smooth="yes"/>
      <point x="425" y="11"/>
      <point x="434" y="0"/>
      <point x="453" y="0" type="curve" smooth="yes"/>
      <point x="542" y="0" type="line" smooth="yes"/>
      <point x="559" y="0"/>
      <point x="573" y="11"/>
      <point x="584" y="33" type="curve" smooth="yes"/>
      <point x="813" y="475" type="line" smooth="yes"/>
      <point x="819" y="486"/>
      <point x="822" y="495"/>
      <point x="822" y="500" type="curve" smooth="yes"/>
      <point x="822" y="509"/>
      <point x="817" y="513"/>
      <point x="806" y="513" type="curve" smooth="yes"/>
      <point x="718" y="513" type="line" smooth="yes"/>
      <point x="704" y="513"/>
      <point x="691" y="505"/>
      <point x="683" y="488" type="curve" smooth="yes"/>
      <point x="551" y="202" type="line" smooth="yes"/>
      <point x="531" y="159"/>
      <point x="519" y="131"/>
      <point x="516" y="116" type="curve"/>
      <point x="513" y="116" type="line"/>
      <point x="516" y="134"/>
      <point x="517" y="163"/>
      <point x="517" y="202" type="curve" smooth="yes"/>
      <point x="514" y="488" type="line"/>
      <point x="513" y="505"/>
      <point x="505" y="513"/>
      <point x="490" y="513" type="curve" smooth="yes"/>
      <point x="401" y="513" type="line" smooth="yes"/>
      <point x="386" y="513"/>
      <point x="374" y="505"/>
      <point x="366" y="488" type="curve" smooth="yes"/>
      <point x="230" y="202" type="line" smooth="yes"/>
      <point x="213" y="167"/>
      <point x="202" y="138"/>
      <point x="195" y="116" type="curve"/>
      <point x="192" y="116" type="line"/>
      <point x="195" y="129"/>
      <point x="196" y="158"/>
      <point x="196" y="202" type="curve" smooth="yes"/>
      <point x="197" y="488" type="line"/>
      <point x="196" y="505"/>
      <point x="188" y="513"/>
      <point x="173" y="513" type="curve" smooth="yes"/>
      <point x="96" y="513" type="line" smooth="yes"/>
      <point x="77" y="513"/>
      <point x="71" y="500"/>
      <point x="71" y="475" type="curve"/>
      <point x="96" y="33" type="line" smooth="yes"/>
      <point x="97" y="11"/>
      <point x="108" y="0"/>
      <point x="125" y="0" type="curve" smooth="yes"/>
    </contour>
    <contour>
      <point x="451" y="513" type="move" name="top"/>
    </contour>
    <contour>
      <point x="333" y="0" type="move" name="bottom"/>
    </contour>
  </outline>
</glyph>
<glyph name="x" format="1">
  <advance width="511"/>
  <unicode hex="0078"/>
  <outline>
    <contour>
      <point x="93" y="0" type="line" smooth="yes"/>
      <point x="109" y="0"/>
      <point x="121" y="7"/>
      <point x="131" y="20" type="curve" smooth="yes"/>
      <point x="248" y="175" type="line"/>
      <point x="306" y="20" type="line" smooth="yes"/>
      <point x="311" y="7"/>
      <point x="320" y="0"/>
      <point x="335" y="0" type="curve" smooth="yes"/>
      <point x="416" y="0" type="line" smooth="yes"/>
      <point x="436" y="0"/>
      <point x="446" y="6"/>
      <point x="446" y="18" type="curve" smooth="yes"/>
      <point x="446" y="22"/>
      <point x="444" y="28"/>
      <point x="441" y="36" type="curve"/>
      <point x="332" y="263" type="line"/>
      <point x="528" y="477" type="line" smooth="yes"/>
      <point x="537" y="487"/>
      <point x="541" y="496"/>
      <point x="542" y="501" type="curve"/>
      <point x="542" y="509"/>
      <point x="534" y="513"/>
      <point x="518" y="513" type="curve" smooth="yes"/>
      <point x="410" y="513" type="line" smooth="yes"/>
      <point x="394" y="513"/>
      <point x="381" y="506"/>
      <point x="372" y="493" type="curve" smooth="yes"/>
      <point x="279" y="367" type="line"/>
      <point x="235" y="493" type="line" smooth="yes"/>
      <point x="230" y="506"/>
      <point x="222" y="513"/>
      <point x="207" y="513" type="curve" smooth="yes"/>
      <point x="125" y="513" type="line" smooth="yes"/>
      <point x="105" y="513"/>
      <point x="95" y="507"/>
      <point x="95" y="495" type="curve" smooth="yes"/>
      <point x="95" y="491"/>
      <point x="97" y="485"/>
      <point x="100" y="477" type="curve"/>
      <point x="196" y="279" type="line"/>
      <point x="-25" y="36" type="line" smooth="yes"/>
      <point x="-35" y="25"/>
      <point x="-40" y="17"/>
      <point x="-40" y="11" type="curve" smooth="yes"/>
      <point x="-40" y="4"/>
      <point x="-32" y="0"/>
      <point x="-16" y="0" type="curve" smooth="yes"/>
    </contour>
    <contour>
      <point x="315" y="513" type="move" name="top"/>
    </contour>
    <contour>
      <point x="197" y="0" type="move" name="bottom"/>
    </contour>
  </outline>
</glyph>
<glyph name="y" format="1">
  <advance width="583"/>
  <unicode hex="0079"/>
  <outline>
    <contour>
      <point x="335" y="-205"/>
      <point x="422" y="-146"/>
      <point x="458" y="5" type="curve" smooth="yes"/>
      <point x="570" y="483" type="line" smooth="yes"/>
      <point x="571" y="486"/>
      <point x="571" y="489"/>
      <point x="571" y="493" type="curve" smooth="yes"/>
      <point x="571" y="506"/>
      <point x="563" y="513"/>
      <point x="547" y="513" type="curve" smooth="yes"/>
      <point x="469" y="513" type="line" smooth="yes"/>
      <point x="450" y="513"/>
      <point x="437" y="503"/>
      <point x="433" y="483" type="curve" smooth="yes"/>
      <point x="394" y="310" type="line" smooth="yes"/>
      <point x="364" y="176"/>
      <point x="307" y="90"/>
      <point x="241" y="90" type="curve" smooth="yes"/>
      <point x="207" y="90"/>
      <point x="186" y="106"/>
      <point x="186" y="145" type="curve" smooth="yes"/>
      <point x="186" y="169"/>
      <point x="191" y="203"/>
      <point x="201" y="248" type="curve" smooth="yes"/>
      <point x="255" y="483" type="line" smooth="yes"/>
      <point x="256" y="486"/>
      <point x="256" y="489"/>
      <point x="256" y="493" type="curve" smooth="yes"/>
      <point x="256" y="506"/>
      <point x="248" y="513"/>
      <point x="232" y="513" type="curve" smooth="yes"/>
      <point x="154" y="513" type="line" smooth="yes"/>
      <point x="134" y="513"/>
      <point x="124" y="503"/>
      <point x="119" y="483" type="curve" smooth="yes"/>
      <point x="57" y="217" type="line" smooth="yes"/>
      <point x="49" y="184"/>
      <point x="46" y="156"/>
      <point x="46" y="133" type="curve" smooth="yes"/>
      <point x="46" y="38"/>
      <point x="108" y="-5"/>
      <point x="180" y="-5" type="curve" smooth="yes"/>
      <point x="250" y="-5"/>
      <point x="292" y="18"/>
      <point x="338" y="76" type="curve"/>
      <point x="340" y="76" type="line"/>
      <point x="340" y="76"/>
      <point x="340" y="76"/>
      <point x="340" y="76" type="curve"/>
      <point x="340" y="76"/>
      <point x="336" y="63"/>
      <point x="329" y="37" type="curve" smooth="yes"/>
      <point x="295" y="-103"/>
      <point x="251" y="-109"/>
      <point x="182" y="-109" type="curve" smooth="yes"/>
      <point x="135" y="-109"/>
      <point x="121" y="-111"/>
      <point x="69" y="-84" type="curve" smooth="yes"/>
      <point x="64" y="-81"/>
      <point x="60" y="-80"/>
      <point x="55" y="-80" type="curve" smooth="yes"/>
      <point x="46" y="-80"/>
      <point x="39" y="-85"/>
      <point x="34" y="-94" type="curve" smooth="yes"/>
      <point x="10" y="-132" type="line" smooth="yes"/>
      <point x="5" y="-141"/>
      <point x="2" y="-148"/>
      <point x="2" y="-153" type="curve" smooth="yes"/>
      <point x="2" y="-199"/>
      <point x="147" y="-205"/>
      <point x="167" y="-205" type="curve" smooth="yes"/>
    </contour>
    <contour>
      <point x="351" y="513" type="move" name="top"/>
    </contour>
    <contour>
      <point x="233" y="0" type="move" name="bottom"/>
    </contour>
  </outline>
</glyph>
<glyph name="z" format="1">
  <advance width="471"/>
  <unicode hex="007A"/>
  <outline>
    <contour>
      <point x="357" y="0" type="line" smooth="yes"/>
      <point x="377" y="0"/>
      <point x="389" y="8"/>
      <point x="393" y="24" type="curve" smooth="yes"/>
      <point x="402" y="65"/>
      <point x="404" y="70"/>
      <point x="404" y="79" type="curve" smooth="yes"/>
      <point x="404" y="92"/>
      <point x="396" y="98"/>
      <point x="380" y="98" type="curve" smooth="yes"/>
      <point x="167" y="98" type="line"/>
      <point x="447" y="398" type="line" smooth="yes"/>
      <point x="465" y="418"/>
      <point x="476" y="437"/>
      <point x="480" y="454" type="curve" smooth="yes"/>
      <point x="486" y="480"/>
      <point x="488" y="485"/>
      <point x="488" y="494" type="curve" smooth="yes"/>
      <point x="488" y="507"/>
      <point x="480" y="513"/>
      <point x="464" y="513" type="curve" smooth="yes"/>
      <point x="126" y="513" type="line" smooth="yes"/>
      <point x="107" y="513"/>
      <point x="90" y="494"/>
      <point x="83" y="455" type="curve" smooth="yes"/>
      <point x="80" y="442"/>
      <point x="79" y="435"/>
      <point x="79" y="433" type="curve" smooth="yes"/>
      <point x="79" y="421"/>
      <point x="87" y="415"/>
      <point x="104" y="415" type="curve" smooth="yes"/>
      <point x="254" y="415" type="line" smooth="yes"/>
      <point x="263" y="415"/>
      <point x="277" y="416"/>
      <point x="294" y="417" type="curve"/>
      <point x="13" y="114" type="line" smooth="yes"/>
      <point x="-6" y="94"/>
      <point x="-16" y="77"/>
      <point x="-19" y="62" type="curve" smooth="yes"/>
      <point x="-26" y="29"/>
      <point x="-28" y="21"/>
      <point x="-28" y="16" type="curve" smooth="yes"/>
      <point x="-28" y="5"/>
      <point x="-20" y="0"/>
      <point x="-4" y="0" type="curve" smooth="yes"/>
    </contour>
    <contour>
      <point x="295" y="513" type="move" name="top"/>
    </contour>
    <contour>
      <point x="177" y="0" type="move" name="bottom"/>
    </contour>
  </outline>
</glyph>
<glyph name="braceleft" format="1">
  <advance width="405"/>
  <unicode hex="007B"/>
  <outline>
    <contour>
      <point x="263" y="-199"/>
      <point x="274" y="-191"/>
      <point x="278" y="-175" type="curve" smooth="yes"/>
      <point x="290" y="-126" type="line" smooth="yes"/>
      <point x="290" y="-124"/>
      <point x="290" y="-122"/>
      <point x="290" y="-120" type="curve" smooth="yes"/>
      <point x="290" y="-88"/>
      <point x="214" y="-112"/>
      <point x="214" y="-75" type="curve"/>
      <point x="213" y="-62"/>
      <point x="216" y="-45"/>
      <point x="221" y="-25" type="curve" smooth="yes"/>
      <point x="247" y="85" type="line" smooth="yes"/>
      <point x="253" y="109"/>
      <point x="255" y="132"/>
      <point x="255" y="150" type="curve" smooth="yes"/>
      <point x="255" y="208"/>
      <point x="225" y="244"/>
      <point x="170" y="265" type="curve"/>
      <point x="171" y="266" type="line"/>
      <point x="259" y="278"/>
      <point x="299" y="315"/>
      <point x="327" y="432" type="curve"/>
      <point x="355" y="556" type="line" smooth="yes"/>
      <point x="366" y="606"/>
      <point x="383" y="633"/>
      <point x="436" y="633" type="curve" smooth="yes"/>
      <point x="455" y="633"/>
      <point x="467" y="641"/>
      <point x="471" y="657" type="curve" smooth="yes"/>
      <point x="482" y="706" type="line" smooth="yes"/>
      <point x="482" y="708"/>
      <point x="482" y="710"/>
      <point x="482" y="712" type="curve" smooth="yes"/>
      <point x="482" y="724"/>
      <point x="474" y="730"/>
      <point x="458" y="730" type="curve" smooth="yes"/>
      <point x="271" y="730"/>
      <point x="252" y="703"/>
      <point x="228" y="594" type="curve"/>
      <point x="195" y="455" type="line" smooth="yes"/>
      <point x="173" y="364"/>
      <point x="133" y="314"/>
      <point x="80" y="314" type="curve" smooth="yes"/>
      <point x="63" y="314"/>
      <point x="53" y="305"/>
      <point x="49" y="286" type="curve" smooth="yes"/>
      <point x="40" y="246" type="line" smooth="yes"/>
      <point x="39" y="241"/>
      <point x="38" y="237"/>
      <point x="38" y="234" type="curve" smooth="yes"/>
      <point x="38" y="201"/>
      <point x="119" y="235"/>
      <point x="119" y="155" type="curve" smooth="yes"/>
      <point x="119" y="133"/>
      <point x="115" y="107"/>
      <point x="108" y="77" type="curve" smooth="yes"/>
      <point x="84" y="-23" type="line" smooth="yes"/>
      <point x="78" y="-48"/>
      <point x="76" y="-70"/>
      <point x="76" y="-86" type="curve" smooth="yes"/>
      <point x="76" y="-161"/>
      <point x="116" y="-199"/>
      <point x="244" y="-199" type="curve" smooth="yes"/>
    </contour>
  </outline>
</glyph>
<glyph name="bar" format="1">
  <advance width="308"/>
  <unicode hex="007C"/>
  <outline>
    <contour>
      <point x="179" y="-215" type="line" smooth="yes"/>
      <point x="196" y="-215"/>
      <point x="204" y="-205"/>
      <point x="204" y="-186" type="curve" smooth="yes"/>
      <point x="204" y="701" type="line" smooth="yes"/>
      <point x="204" y="720"/>
      <point x="196" y="730"/>
      <point x="179" y="730" type="curve" smooth="yes"/>
      <point x="130" y="730" type="line" smooth="yes"/>
      <point x="114" y="730"/>
      <point x="106" y="720"/>
      <point x="106" y="701" type="curve" smooth="yes"/>
      <point x="106" y="-186" type="line" smooth="yes"/>
      <point x="106" y="-205"/>
      <point x="114" y="-215"/>
      <point x="130" y="-215" type="curve" smooth="yes"/>
    </contour>
  </outline>
</glyph>
<glyph name="braceright" format="1">
  <advance width="405"/>
  <unicode hex="007D"/>
  <outline>
    <contour>
      <point x="135" y="-199"/>
      <point x="158" y="-171"/>
      <point x="183" y="-63" type="curve" smooth="yes"/>
      <point x="215" y="77" type="line" smooth="yes"/>
      <point x="236" y="168"/>
      <point x="276" y="217"/>
      <point x="331" y="217" type="curve" smooth="yes"/>
      <point x="347" y="217"/>
      <point x="356" y="227"/>
      <point x="361" y="246" type="curve" smooth="yes"/>
      <point x="371" y="286" type="line" smooth="yes"/>
      <point x="372" y="289"/>
      <point x="372" y="292"/>
      <point x="372" y="296" type="curve" smooth="yes"/>
      <point x="372" y="331"/>
      <point x="291" y="296"/>
      <point x="291" y="376" type="curve" smooth="yes"/>
      <point x="291" y="399"/>
      <point x="295" y="425"/>
      <point x="302" y="455" type="curve" smooth="yes"/>
      <point x="326" y="555" type="line" smooth="yes"/>
      <point x="332" y="579"/>
      <point x="334" y="601"/>
      <point x="334" y="618" type="curve" smooth="yes"/>
      <point x="334" y="693"/>
      <point x="294" y="730"/>
      <point x="167" y="730" type="curve" smooth="yes"/>
      <point x="148" y="730"/>
      <point x="135" y="722"/>
      <point x="132" y="706" type="curve" smooth="yes"/>
      <point x="121" y="657" type="line" smooth="yes"/>
      <point x="120" y="654"/>
      <point x="120" y="652"/>
      <point x="120" y="649" type="curve" smooth="yes"/>
      <point x="120" y="620"/>
      <point x="196" y="642"/>
      <point x="196" y="606" type="curve" smooth="yes"/>
      <point x="196" y="594"/>
      <point x="194" y="577"/>
      <point x="189" y="556" type="curve" smooth="yes"/>
      <point x="164" y="446" type="line" smooth="yes"/>
      <point x="158" y="421"/>
      <point x="155" y="400"/>
      <point x="155" y="381" type="curve" smooth="yes"/>
      <point x="155" y="320"/>
      <point x="189" y="286"/>
      <point x="240" y="266" type="curve"/>
      <point x="239" y="265" type="line"/>
      <point x="150" y="253"/>
      <point x="111" y="215"/>
      <point x="83" y="100" type="curve"/>
      <point x="55" y="-25" type="line" smooth="yes"/>
      <point x="44" y="-75"/>
      <point x="26" y="-102"/>
      <point x="-25" y="-102" type="curve" smooth="yes"/>
      <point x="-45" y="-102"/>
      <point x="-58" y="-110"/>
      <point x="-61" y="-126" type="curve" smooth="yes"/>
      <point x="-72" y="-175" type="line" smooth="yes"/>
      <point x="-73" y="-177"/>
      <point x="-73" y="-179"/>
      <point x="-73" y="-181" type="curve" smooth="yes"/>
      <point x="-73" y="-193"/>
      <point x="-65" y="-199"/>
      <point x="-48" y="-199" type="curve" smooth="yes"/>
    </contour>
  </outline>
</glyph>
<glyph name="asciitilde" format="1">
  <advance width="625"/>
  <unicode hex="007E"/>
  <outline>
    <contour>
      <point x="535" y="256"/>
      <point x="579" y="293"/>
      <point x="607" y="372" type="curve" smooth="yes"/>
      <point x="608" y="375"/>
      <point x="609" y="378"/>
      <point x="609" y="383" type="curve" smooth="yes"/>
      <point x="609" y="390"/>
      <point x="606" y="395"/>
      <point x="599" y="398" type="curve"/>
      <point x="567" y="416" type="line" smooth="yes"/>
      <point x="565" y="417"/>
      <point x="563" y="418"/>
      <point x="560" y="418" type="curve" smooth="yes"/>
      <point x="534" y="418"/>
      <point x="533" y="349"/>
      <point x="459" y="349" type="curve" smooth="yes"/>
      <point x="435" y="349"/>
      <point x="400" y="366"/>
      <point x="358" y="400" type="curve" smooth="yes"/>
      <point x="314" y="435"/>
      <point x="273" y="452"/>
      <point x="230" y="452" type="curve" smooth="yes"/>
      <point x="136" y="452"/>
      <point x="93" y="416"/>
      <point x="63" y="336" type="curve" smooth="yes"/>
      <point x="62" y="332"/>
      <point x="61" y="329"/>
      <point x="61" y="326" type="curve" smooth="yes"/>
      <point x="61" y="319"/>
      <point x="65" y="314"/>
      <point x="72" y="310" type="curve" smooth="yes"/>
      <point x="104" y="292" type="line" smooth="yes"/>
      <point x="106" y="291"/>
      <point x="108" y="290"/>
      <point x="110" y="290" type="curve" smooth="yes"/>
      <point x="121" y="290"/>
      <point x="143" y="330"/>
      <point x="159" y="344" type="curve" smooth="yes"/>
      <point x="170" y="354"/>
      <point x="188" y="359"/>
      <point x="212" y="359" type="curve" smooth="yes"/>
      <point x="237" y="359"/>
      <point x="270" y="342"/>
      <point x="313" y="308" type="curve" smooth="yes"/>
      <point x="356" y="273"/>
      <point x="397" y="256"/>
      <point x="441" y="256" type="curve" smooth="yes"/>
    </contour>
  </outline>
</glyph>
<glyph name="exclamdown" format="1">
  <advance width="326"/>
  <unicode hex="00A1"/>
  <outline>
    <contour>
      <point x="100" y="-188" type="line" smooth="yes"/>
      <point x="123" y="-188"/>
      <point x="138" y="-176"/>
      <point x="143" y="-151" type="curve" smooth="yes"/>
      <point x="228" y="276" type="line" smooth="yes"/>
      <point x="229" y="279"/>
      <point x="229" y="282"/>
      <point x="229" y="286" type="curve" smooth="yes"/>
      <point x="229" y="301"/>
      <point x="221" y="308"/>
      <point x="204" y="308" type="curve" smooth="yes"/>
      <point x="147" y="308" type="line" smooth="yes"/>
      <point x="126" y="308"/>
      <point x="113" y="297"/>
      <point x="108" y="276" type="curve" smooth="yes"/>
      <point x="-3" y="-151" type="line" smooth="yes"/>
      <point x="-4" y="-154"/>
      <point x="-5" y="-159"/>
      <point x="-5" y="-165" type="curve" smooth="yes"/>
      <point x="-5" y="-180"/>
      <point x="4" y="-188"/>
      <point x="22" y="-188" type="curve" smooth="yes"/>
    </contour>
    <contour>
      <point x="228" y="374" type="line" smooth="yes"/>
      <point x="251" y="374"/>
      <point x="265" y="386"/>
      <point x="271" y="411" type="curve" smooth="yes"/>
      <point x="286" y="476" type="line" smooth="yes"/>
      <point x="287" y="479"/>
      <point x="287" y="483"/>
      <point x="287" y="488" type="curve" smooth="yes"/>
      <point x="287" y="505"/>
      <point x="278" y="513"/>
      <point x="260" y="513" type="curve" smooth="yes"/>
      <point x="186" y="513" type="line" smooth="yes"/>
      <point x="162" y="513"/>
      <point x="149" y="501"/>
      <point x="143" y="476" type="curve" smooth="yes"/>
      <point x="128" y="411" type="line" smooth="yes"/>
      <point x="127" y="408"/>
      <point x="127" y="403"/>
      <point x="127" y="398" type="curve" smooth="yes"/>
      <point x="127" y="382"/>
      <point x="136" y="374"/>
      <point x="154" y="374" type="curve" smooth="yes"/>
    </contour>
  </outline>
</glyph>
